<svg width="64" height="64" viewBox="0 0 64 64" fill="none" xmlns="http://www.w3.org/2000/svg">
<path d="M57.9618 52.404H11.5822V6.04193C11.5822 4.91887 10.665 4 9.54395 4C8.42293 4 7.50573 4.91887 7.50573 6.04193V52.404H6.03822C4.9172 52.404 4 53.3229 4 54.4459C4 55.569 4.9172 56.4879 6.03822 56.4879H7.50573V57.9581C7.50573 59.0811 8.42293 60 9.54395 60C10.665 60 11.5822 59.0811 11.5822 57.9581V56.4879H57.9618C59.0828 56.4879 60 55.569 60 54.4459C60 53.3229 59.0828 52.404 57.9618 52.404Z" fill="#249EDC"/>
<path d="M31.9446 28.5442H27.6848C27.0938 28.5442 26.6147 29.0242 26.6147 29.6163V47.5955C26.6147 48.1875 27.0938 48.6675 27.6848 48.6675H31.9446C32.5356 48.6675 33.0147 48.1875 33.0147 47.5955V29.6163C33.0147 29.0242 32.5356 28.5442 31.9446 28.5442Z" fill="#249EDC"/>
<path d="M21.5389 34.9558H17.2791C16.6881 34.9558 16.209 35.4358 16.209 36.0278V47.5852C16.209 48.1772 16.6881 48.6572 17.2791 48.6572H21.5389C22.1299 48.6572 22.609 48.1772 22.609 47.5852V36.0278C22.609 35.4358 22.1299 34.9558 21.5389 34.9558Z" fill="#249EDC"/>
<path d="M42.3509 34.9558H38.0911C37.5001 34.9558 37.021 35.4358 37.021 36.0278V47.5852C37.021 48.1772 37.5001 48.6572 38.0911 48.6572H42.3509C42.9419 48.6572 43.421 48.1772 43.421 47.5852V36.0278C43.421 35.4358 42.9419 34.9558 42.3509 34.9558Z" fill="#249EDC"/>
<path d="M52.7449 26.4004H48.4851C47.8941 26.4004 47.415 26.8804 47.415 27.4724V47.5854C47.415 48.1775 47.8941 48.6575 48.4851 48.6575H52.7449C53.3359 48.6575 53.815 48.1775 53.815 47.5854V27.4724C53.815 26.8804 53.3359 26.4004 52.7449 26.4004Z" fill="#249EDC"/>
<path d="M18.5844 28.3396C18.8697 28.3396 19.1449 28.2477 19.3793 28.0537L30.4468 19.0998L38.9258 27.6147C39.415 28.1048 40.2099 28.115 40.7092 27.6351L51.3182 17.4153C51.8277 16.9252 51.8379 16.1186 51.3589 15.6081C50.8698 15.0977 50.0647 15.0874 49.5551 15.5673L39.843 24.9194L31.4354 16.476C30.9768 16.0165 30.243 15.9757 29.7334 16.3841L17.7691 26.0526C17.2188 26.4916 17.1373 27.2982 17.5755 27.8495C17.8303 28.166 18.1971 28.3192 18.564 28.3192L18.5844 28.3396Z" fill="#249EDC"/>
</svg>
