<svg width="208" height="117" viewBox="0 0 208 117" fill="none" xmlns="http://www.w3.org/2000/svg">
<rect width="208" height="117" rx="8" fill="white"/>
<g clip-path="url(#clip0_12233_28909)">
<g clip-path="url(#clip1_12233_28909)">
<path d="M126.158 67.9948C126.151 68.0018 126.144 68.0018 126.144 68.0088C120.861 71.7471 114.607 75.674 107.879 79.7965L107.613 79.9503C107.522 80.0132 107.501 80.1389 107.564 80.2298C107.627 80.3206 107.753 80.3416 107.844 80.2787L108.067 80.1599C113.776 77.1833 120.33 73.6476 126.926 70.0212C126.961 70.0002 126.996 69.9792 127.031 69.9653C126.668 69.3644 126.367 68.7075 126.158 67.9948ZM160.815 39.9404C152.493 30.759 98.9347 39.0181 76.1627 43.9931L75.6317 44.1049C75.5199 44.1259 75.45 44.2307 75.471 44.3355C75.492 44.4473 75.5968 44.5172 75.7016 44.4962L76.2256 44.3914C95.0916 41.0305 134.333 36.3768 142.774 44.7477C145.352 47.3051 144.737 50.5892 141.746 54.4742C143.354 55.5083 144.5 57.1364 145.017 59.1697C156.686 51.4277 164.518 44.028 160.815 39.9404Z" fill="#D03027"/>
<path d="M129.525 65.5839C129.63 68.8121 131.677 71.4603 134.339 71.4603C139.503 71.4603 141.704 65.1157 141.55 60.8814C141.438 57.6462 139.342 55.005 136.68 55.005C132.243 54.998 129.371 61.3146 129.525 65.5839ZM126.8 65.4092C126.611 59.8962 130.929 54.2573 137.204 54.2573C141.396 54.2573 144.142 57.0523 144.296 61.3356C144.499 67.1491 140.46 72.4874 133.899 72.4874C129.692 72.4874 126.946 69.6995 126.8 65.4092Z" fill="#004977"/>
<path d="M67.374 63.9563C67.1504 64.0402 66.8639 64.124 66.5006 64.2009C66.1442 64.2847 65.4874 64.3965 64.5371 64.5503C63.8803 64.6551 63.4261 64.7878 63.1676 64.9765C62.923 65.1582 62.7763 65.3748 62.7344 65.6473C62.6855 65.9338 62.7763 66.1574 63.0209 66.339C63.2724 66.5137 63.6917 66.6046 64.2856 66.6046C64.7328 66.6046 65.166 66.5347 65.5852 66.3949C66.0115 66.2552 66.3748 66.0665 66.6473 65.829C66.85 65.6543 66.9967 65.4307 67.1085 65.1582C67.1784 64.9765 67.2692 64.5782 67.374 63.9563ZM72.8242 60.5674C72.8032 61.0705 72.7124 61.5177 72.5796 62.2933L71.6573 67.471C71.5804 67.9322 71.7481 68.2885 72.1744 68.5401L72.1464 68.7427L66.8639 68.7357L66.815 67.4221C66.0464 67.8832 65.1171 68.2745 64.2786 68.5051C63.4401 68.7217 62.7623 68.8126 61.7492 68.8126C60.0442 68.8126 59.066 68.6379 58.3882 68.044C57.7035 67.4361 57.3681 67.0308 57.403 66.1923C57.431 65.7102 57.6825 65.0883 58.0389 64.6551C58.4022 64.2149 58.9053 63.9284 59.4433 63.6698C59.9883 63.4113 60.6312 63.2227 61.5605 63.0759C62.4968 62.9222 63.7965 62.7755 65.5363 62.6287C66.4517 62.5519 67.0107 62.3422 67.2692 62.2374C67.6326 62.0977 67.7793 61.937 67.8282 61.6435C67.926 61.1125 67.7583 60.805 67.0456 60.6653C65.145 60.2879 61.5745 60.9098 59.7368 61.364L60.736 58.6669C63.1606 58.3105 65.4315 58.0869 67.8282 58.0869C71.6503 58.0869 72.8661 59.17 72.8242 60.5674Z" fill="#004977"/>
<path d="M88.1411 68.7341L89.9718 58.3858H95.0306L93.1999 68.7341H88.1411ZM90.2513 55.9891C90.405 55.1367 91.7466 54.4519 93.2419 54.4519C94.7442 54.4519 95.8412 55.1437 95.6944 55.9891C95.5337 56.8416 94.1991 57.5333 92.6899 57.5333C91.1946 57.5333 90.1045 56.8416 90.2513 55.9891Z" fill="#004977"/>
<path d="M112.992 63.9769C112.761 64.0538 112.468 64.1376 112.111 64.2215C111.755 64.3053 111.098 64.4101 110.148 64.5638C109.498 64.6686 109.037 64.8014 108.785 64.9901C108.541 65.1648 108.401 65.3884 108.345 65.6539C108.289 65.9404 108.394 66.1709 108.632 66.3456C108.89 66.5203 109.309 66.6042 109.903 66.6042C110.344 66.6042 110.777 66.5413 111.203 66.4085C111.636 66.2618 111.993 66.0801 112.272 65.8425C112.468 65.6678 112.614 65.4373 112.719 65.1717C112.789 64.9971 112.88 64.5988 112.992 63.9769ZM118.442 60.581C118.421 61.0911 118.33 61.5383 118.19 62.3069L117.275 67.4916C117.198 67.9457 117.366 68.3091 117.792 68.5606L117.764 68.7423L112.482 68.7493L112.44 67.4287C111.671 67.8968 110.735 68.2881 109.903 68.5117C109.065 68.7353 108.387 68.8262 107.36 68.8262C105.655 68.8262 104.684 68.6585 104.006 68.0575C103.314 67.4426 102.986 67.0444 103.021 66.2059C103.042 65.7168 103.293 65.0949 103.657 64.6687C104.02 64.2215 104.523 63.942 105.068 63.6834C105.613 63.4249 106.256 63.2362 107.178 63.0825C108.115 62.9358 109.421 62.7821 111.161 62.6353C112.069 62.5585 112.628 62.3558 112.887 62.251C113.257 62.1113 113.397 61.9506 113.453 61.6501C113.544 61.126 113.383 60.8186 112.677 60.6719C110.763 60.2945 107.206 60.9164 105.369 61.3706L106.361 58.6735C108.792 58.3171 111.056 58.0935 113.453 58.0935C117.261 58.1005 118.477 59.1905 118.442 60.581Z" fill="#004977"/>
<path d="M56.7178 65.0179C55.0687 65.3463 54.1464 65.472 52.5183 65.472C50.1007 65.472 48.1792 64.2702 48.284 62.0692C48.3608 60.6018 50.0937 57.5134 54.5028 57.5134C55.8933 57.5134 56.9763 57.758 58.4367 58.5895L59.0795 54.9979C57.0951 54.2503 55.7815 54.1385 54.0765 54.1525C48.291 54.2153 42.743 56.8426 42.0512 62.188C41.3525 67.6172 47.9835 68.9797 50.9252 68.9657C52.6232 68.9588 54.391 68.8889 56.04 68.7212L56.7178 65.0179Z" fill="#004977"/>
<path d="M97.8181 58.3315L98.1815 56.2213L103.471 55.0684L102.905 58.3245H105.497L105.008 60.4067L102.493 60.3997L100.962 68.7217C100.962 68.7217 95.8687 68.6868 95.8477 68.7217L97.3709 60.4207H95.4564L95.8477 58.3245H97.8181V58.3315Z" fill="#004977"/>
<path d="M126.041 54.4383L123.581 68.7276L118.432 68.7346L121.024 54.2986L126.041 54.4383Z" fill="#004977"/>
<path d="M81.4461 60.8105C80.7823 60.8105 80.1814 61.0132 79.6503 61.4115C79.1193 61.8167 78.7839 62.4037 78.6511 63.1793C78.4904 64.0806 78.5882 64.7305 78.9446 65.1287C79.3079 65.527 79.825 65.7297 80.5098 65.7297C80.9709 65.7297 81.4461 65.6458 81.7954 65.4711C82.2287 65.2405 82.5291 65.003 82.7877 64.6187C83.0672 64.2204 83.2488 63.7732 83.3466 63.2561C83.4934 62.4386 83.3676 61.8307 82.9903 61.4254C82.62 61.0202 82.1099 60.8105 81.4461 60.8105ZM72.2367 72.3048L74.7032 58.4418H79.1472L78.8048 60.2096C79.1891 59.6786 79.804 59.2454 80.6565 58.896C81.5159 58.5466 82.4802 58.2881 83.5283 58.2881C84.6882 58.2881 85.4009 58.351 86.2674 58.7982C87.1268 59.2523 87.7347 59.9092 88.0562 60.7616C88.3916 61.6001 88.4614 62.5504 88.2798 63.5775C87.9793 65.2895 87.1478 66.631 85.7783 67.6233C84.4227 68.6155 83.1999 68.874 81.46 68.881C80.8452 68.881 80.3281 68.8181 79.9019 68.7133C79.4826 68.6015 79.1472 68.4687 78.8957 68.308C78.6511 68.1473 78.3926 67.9167 78.0642 67.5534L77.2397 72.3048H72.2367Z" fill="#004977"/>
<path d="M164.063 62.0823C164.035 61.2508 163.615 60.6848 162.756 60.6848C160.681 60.6848 158.473 64.7515 158.095 66.3866C161.498 66.3935 164.146 64.3672 164.063 62.0823ZM164.51 68.4548L164.908 68.7273C163.895 70.7886 161.834 72.4446 159.416 72.4446C157.439 72.4446 155.811 71.124 155.727 68.6505C155.566 64.2135 159.723 60.0979 163.126 60.0979C164.587 60.0979 165.942 60.7338 165.998 62.3059C166.124 65.8346 161.17 66.9106 157.907 66.9875C157.802 67.3578 157.76 67.7281 157.781 68.2871C157.837 69.7475 158.717 70.9773 160.548 70.9773C162.127 70.9773 163.706 69.7056 164.51 68.4548Z" fill="#004977"/>
<path d="M144.22 61.9712C144.569 61.9222 145.135 61.8594 145.38 61.8594C145.75 61.8594 146.1 61.9292 146.121 62.2996C146.128 62.5162 145.736 64.0883 145.653 64.4517L144.863 67.9314C144.542 69.3568 144.199 70.8452 143.892 72.026H145.918L147.057 66.513C150.53 62.8935 151.871 61.7126 152.689 61.7126C153.059 61.7126 153.311 61.9083 153.332 62.3485C153.353 62.9843 152.954 64.4307 152.822 64.85L151.662 68.8677C151.396 69.7691 151.201 70.5866 151.222 71.1666C151.256 72.047 151.787 72.4383 152.584 72.4383C154.065 72.4383 155.141 70.8941 156.078 69.3778L155.805 68.8817C155.428 69.4896 154.548 70.8242 153.856 70.8242C153.639 70.8242 153.43 70.6775 153.423 70.3141C153.402 69.846 153.597 69.1402 153.737 68.6721L155.03 63.9626C155.379 62.6629 155.54 61.8314 155.533 61.3842C155.498 60.5038 154.988 60.0916 154.198 60.0916C152.864 60.0916 151.096 61.0698 147.343 65.381H147.288L147.763 63.2778C148.021 62.1249 148.273 60.9231 148.51 60.0916C147.211 60.5597 145.352 61.0838 144.206 61.3074L144.22 61.9712Z" fill="#004977"/>
</g>
</g>
<defs>
<clipPath id="clip0_12233_28909">
<rect width="124" height="58.6786" fill="white" transform="translate(42 29.1606)"/>
</clipPath>
<clipPath id="clip1_12233_28909">
<rect width="124" height="44.5104" fill="white" transform="translate(42 35.8035)"/>
</clipPath>
</defs>
</svg>
