<svg width="48" height="49" viewBox="0 0 48 49" fill="none" xmlns="http://www.w3.org/2000/svg">
<mask id="path-1-outside-1_4159_1683" maskUnits="userSpaceOnUse" x="2" y="0" width="44" height="49" fill="black">
<rect fill="white" x="2" width="44" height="49"/>
<path d="M43.2126 31.6499C41.8485 30.8655 40.1775 31.0957 39.0606 32.0847L37.0827 30.857C37.9693 28.9813 38.4809 26.901 38.4809 24.6929C38.4809 22.4847 37.9352 20.2595 36.9889 18.3327L38.8816 17.1562C39.5636 17.8382 40.4844 18.2134 41.4308 18.2134C42.0361 18.2134 42.6499 18.0599 43.2126 17.7359C44.9178 16.747 45.5061 14.5558 44.5256 12.8507C44.0482 12.0237 43.2723 11.4269 42.3515 11.1797C41.4308 10.9324 40.4674 11.0603 39.6319 11.5378C38.2933 12.3051 37.6624 13.8141 37.9097 15.255L35.9146 16.4912C33.4934 12.9956 29.5801 10.617 25.0956 10.276V7.97402C26.5364 7.51363 27.5851 6.17509 27.5851 4.58079C27.5851 2.61136 25.9822 1 24.0043 1C22.0263 1 20.4235 2.60283 20.4235 4.58079C20.4235 6.19215 21.4977 7.5392 22.9641 7.99107V10.276C18.4029 10.5999 14.4214 13.0383 12.0001 16.6276L10.0648 15.4255C10.3973 13.942 9.76636 12.3477 8.37667 11.5463C7.54968 11.0688 6.58628 10.941 5.65698 11.1882C4.7362 11.4354 3.96037 12.0237 3.48293 12.8592C2.49395 14.5644 3.08222 16.764 4.79588 17.7445C5.35858 18.0684 5.97243 18.2219 6.57775 18.2219C7.46443 18.2219 8.33405 17.8894 8.99905 17.2755L10.9429 18.4862C10.0392 20.3704 9.51912 22.4677 9.51912 24.6929C9.51912 26.9181 10.0051 28.8705 10.8406 30.7035L8.81148 31.9653C7.69462 31.0701 6.10031 30.8911 4.78736 31.6499C3.08222 32.6388 2.49395 34.8299 3.4744 36.5351C3.95184 37.3621 4.72768 37.9589 5.64845 38.2061C5.95538 38.2914 6.27083 38.334 6.57775 38.334C7.20013 38.334 7.81398 38.172 8.35962 37.8566C9.81752 37.0125 10.4484 35.2989 9.99655 33.7472L11.8637 32.5877C14.2679 36.2708 18.3006 38.7859 22.9386 39.1184V41.4032C21.4721 41.8551 20.3979 43.2022 20.3979 44.8135C20.3979 46.783 22.0007 48.3943 23.9787 48.3943C25.9566 48.3943 27.5595 46.7915 27.5595 44.8135C27.5595 43.2192 26.5108 41.8892 25.07 41.4203V39.1184C29.6312 38.7773 33.6042 36.3219 36.0084 32.7241L37.9267 33.9177C37.5686 35.4182 38.191 37.0466 39.5977 37.8566C40.1519 38.172 40.7572 38.334 41.3796 38.334C41.6865 38.334 42.002 38.2914 42.3089 38.2061C43.2297 37.9589 44.0055 37.3706 44.483 36.5351C45.4719 34.8299 44.8837 32.6303 43.17 31.6499H43.2126ZM40.6976 13.3878C41.0301 13.1917 41.4222 13.1406 41.7974 13.2429C42.1725 13.3452 42.4794 13.5839 42.6755 13.9164C43.0762 14.607 42.8375 15.4937 42.1469 15.8944C41.4563 16.2951 40.5697 16.0564 40.169 15.3658C39.7683 14.6752 40.007 13.7885 40.6976 13.3878ZM5.87865 15.8944C5.18807 15.4937 4.94935 14.607 5.35005 13.9164C5.54614 13.5839 5.85307 13.3452 6.2282 13.2429C6.35609 13.2088 6.47545 13.1917 6.60333 13.1917C6.85058 13.1917 7.09782 13.2599 7.32801 13.3878C8.0186 13.7885 8.25731 14.6752 7.85661 15.3658C7.4559 16.0564 6.56923 16.2951 5.87865 15.8944ZM7.32801 35.998C6.99551 36.194 6.60333 36.2452 6.2282 36.1429C5.85307 36.0406 5.54614 35.8019 5.35005 35.4694C4.94935 34.7788 5.18807 33.8921 5.87865 33.4914C6.56923 33.0907 7.4559 33.3294 7.85661 34.02C8.25731 34.7106 8.0186 35.5973 7.32801 35.998ZM24.0128 3.13995C24.8142 3.13995 25.4622 3.7879 25.4622 4.58932C25.4622 5.39073 24.8142 6.03868 24.0128 6.03868C23.2114 6.03868 22.5634 5.39073 22.5634 4.58932C22.5634 3.7879 23.2114 3.13995 24.0128 3.13995ZM24.0128 46.2458C23.2114 46.2458 22.5634 45.5979 22.5634 44.7965C22.5634 43.9951 23.2114 43.3471 24.0128 43.3471C24.8142 43.3471 25.4622 43.9951 25.4622 44.7965C25.4622 45.5979 24.8142 46.2458 24.0128 46.2458ZM24.0128 37.0296C17.2093 37.0296 11.6761 31.4964 11.6761 24.6929C11.6761 17.8894 17.2093 12.3562 24.0128 12.3562C30.8163 12.3562 36.3495 17.8894 36.3495 24.6929C36.3495 31.4964 30.8163 37.0296 24.0128 37.0296ZM42.6755 35.4694C42.4794 35.8019 42.1725 36.0406 41.7974 36.1429C41.4222 36.2452 41.0301 36.194 40.6976 35.998C40.007 35.5973 39.7683 34.7106 40.169 34.02C40.4333 33.5596 40.9278 33.2953 41.4222 33.2953C41.6695 33.2953 41.9167 33.355 42.1469 33.4914C42.8375 33.8921 43.0762 34.7788 42.6755 35.4694Z"/>
<path d="M7.66904 28.8619V20.5067C7.66904 19.9184 7.1916 19.441 6.60333 19.441C6.01506 19.441 5.53762 19.9184 5.53762 20.5067V28.8619C5.53762 29.4501 6.01506 29.9276 6.60333 29.9276C7.1916 29.9276 7.66904 29.4501 7.66904 28.8619Z"/>
<path d="M40.3565 20.5837V28.8536C40.3565 29.4419 40.834 29.9193 41.4222 29.9193C42.0105 29.9193 42.488 29.4419 42.488 28.8536V20.5837C42.488 19.9954 42.0105 19.518 41.4222 19.518C40.834 19.518 40.3565 19.9954 40.3565 20.5837Z"/>
<path d="M19.4089 40.9087L12.2303 36.7652C11.7187 36.4753 11.0708 36.6458 10.7724 37.1574C10.474 37.6689 10.653 38.3168 11.1646 38.6152L18.3432 42.7587C18.5137 42.8525 18.6928 42.9037 18.8718 42.9037C19.2384 42.9037 19.5965 42.7161 19.7926 42.3751C20.091 41.8635 19.9119 41.2156 19.4004 40.9172L19.4089 40.9087Z"/>
<path d="M28.6508 8.49417L35.8123 12.6291C35.9829 12.7229 36.1619 12.7741 36.3409 12.7741C36.7075 12.7741 37.0656 12.5865 37.2617 12.2455C37.5601 11.7339 37.3811 11.086 36.8695 10.7876L29.7079 6.65263C29.1964 6.35423 28.5485 6.53327 28.2501 7.04481C27.9517 7.55635 28.1307 8.2043 28.6422 8.5027L28.6508 8.49417Z"/>
<path d="M35.7612 36.7824L28.6081 40.9089C28.0966 41.2073 27.9261 41.8552 28.216 42.3668C28.412 42.7078 28.7701 42.8954 29.1367 42.8954C29.3158 42.8954 29.5033 42.8527 29.6653 42.7504L36.8184 38.624C37.3299 38.3256 37.5004 37.6776 37.2106 37.1661C36.9122 36.6546 36.2642 36.484 35.7527 36.7739L35.7612 36.7824Z"/>
<path d="M11.7017 12.7653C11.8807 12.7653 12.0683 12.7227 12.2303 12.6203L19.3748 8.49392C19.8863 8.19552 20.0569 7.54756 19.767 7.03602C19.4771 6.52448 18.8206 6.35397 18.3091 6.64384L11.1646 10.7703C10.653 11.0687 10.4825 11.7166 10.7724 12.2282C10.9685 12.5692 11.3266 12.7568 11.6932 12.7568L11.7017 12.7653Z"/>
</mask>
<path d="M43.2126 31.6499C41.8485 30.8655 40.1775 31.0957 39.0606 32.0847L37.0827 30.857C37.9693 28.9813 38.4809 26.901 38.4809 24.6929C38.4809 22.4847 37.9352 20.2595 36.9889 18.3327L38.8816 17.1562C39.5636 17.8382 40.4844 18.2134 41.4308 18.2134C42.0361 18.2134 42.6499 18.0599 43.2126 17.7359C44.9178 16.747 45.5061 14.5558 44.5256 12.8507C44.0482 12.0237 43.2723 11.4269 42.3515 11.1797C41.4308 10.9324 40.4674 11.0603 39.6319 11.5378C38.2933 12.3051 37.6624 13.8141 37.9097 15.255L35.9146 16.4912C33.4934 12.9956 29.5801 10.617 25.0956 10.276V7.97402C26.5364 7.51363 27.5851 6.17509 27.5851 4.58079C27.5851 2.61136 25.9822 1 24.0043 1C22.0263 1 20.4235 2.60283 20.4235 4.58079C20.4235 6.19215 21.4977 7.5392 22.9641 7.99107V10.276C18.4029 10.5999 14.4214 13.0383 12.0001 16.6276L10.0648 15.4255C10.3973 13.942 9.76636 12.3477 8.37667 11.5463C7.54968 11.0688 6.58628 10.941 5.65698 11.1882C4.7362 11.4354 3.96037 12.0237 3.48293 12.8592C2.49395 14.5644 3.08222 16.764 4.79588 17.7445C5.35858 18.0684 5.97243 18.2219 6.57775 18.2219C7.46443 18.2219 8.33405 17.8894 8.99905 17.2755L10.9429 18.4862C10.0392 20.3704 9.51912 22.4677 9.51912 24.6929C9.51912 26.9181 10.0051 28.8705 10.8406 30.7035L8.81148 31.9653C7.69462 31.0701 6.10031 30.8911 4.78736 31.6499C3.08222 32.6388 2.49395 34.8299 3.4744 36.5351C3.95184 37.3621 4.72768 37.9589 5.64845 38.2061C5.95538 38.2914 6.27083 38.334 6.57775 38.334C7.20013 38.334 7.81398 38.172 8.35962 37.8566C9.81752 37.0125 10.4484 35.2989 9.99655 33.7472L11.8637 32.5877C14.2679 36.2708 18.3006 38.7859 22.9386 39.1184V41.4032C21.4721 41.8551 20.3979 43.2022 20.3979 44.8135C20.3979 46.783 22.0007 48.3943 23.9787 48.3943C25.9566 48.3943 27.5595 46.7915 27.5595 44.8135C27.5595 43.2192 26.5108 41.8892 25.07 41.4203V39.1184C29.6312 38.7773 33.6042 36.3219 36.0084 32.7241L37.9267 33.9177C37.5686 35.4182 38.191 37.0466 39.5977 37.8566C40.1519 38.172 40.7572 38.334 41.3796 38.334C41.6865 38.334 42.002 38.2914 42.3089 38.2061C43.2297 37.9589 44.0055 37.3706 44.483 36.5351C45.4719 34.8299 44.8837 32.6303 43.17 31.6499H43.2126ZM40.6976 13.3878C41.0301 13.1917 41.4222 13.1406 41.7974 13.2429C42.1725 13.3452 42.4794 13.5839 42.6755 13.9164C43.0762 14.607 42.8375 15.4937 42.1469 15.8944C41.4563 16.2951 40.5697 16.0564 40.169 15.3658C39.7683 14.6752 40.007 13.7885 40.6976 13.3878ZM5.87865 15.8944C5.18807 15.4937 4.94935 14.607 5.35005 13.9164C5.54614 13.5839 5.85307 13.3452 6.2282 13.2429C6.35609 13.2088 6.47545 13.1917 6.60333 13.1917C6.85058 13.1917 7.09782 13.2599 7.32801 13.3878C8.0186 13.7885 8.25731 14.6752 7.85661 15.3658C7.4559 16.0564 6.56923 16.2951 5.87865 15.8944ZM7.32801 35.998C6.99551 36.194 6.60333 36.2452 6.2282 36.1429C5.85307 36.0406 5.54614 35.8019 5.35005 35.4694C4.94935 34.7788 5.18807 33.8921 5.87865 33.4914C6.56923 33.0907 7.4559 33.3294 7.85661 34.02C8.25731 34.7106 8.0186 35.5973 7.32801 35.998ZM24.0128 3.13995C24.8142 3.13995 25.4622 3.7879 25.4622 4.58932C25.4622 5.39073 24.8142 6.03868 24.0128 6.03868C23.2114 6.03868 22.5634 5.39073 22.5634 4.58932C22.5634 3.7879 23.2114 3.13995 24.0128 3.13995ZM24.0128 46.2458C23.2114 46.2458 22.5634 45.5979 22.5634 44.7965C22.5634 43.9951 23.2114 43.3471 24.0128 43.3471C24.8142 43.3471 25.4622 43.9951 25.4622 44.7965C25.4622 45.5979 24.8142 46.2458 24.0128 46.2458ZM24.0128 37.0296C17.2093 37.0296 11.6761 31.4964 11.6761 24.6929C11.6761 17.8894 17.2093 12.3562 24.0128 12.3562C30.8163 12.3562 36.3495 17.8894 36.3495 24.6929C36.3495 31.4964 30.8163 37.0296 24.0128 37.0296ZM42.6755 35.4694C42.4794 35.8019 42.1725 36.0406 41.7974 36.1429C41.4222 36.2452 41.0301 36.194 40.6976 35.998C40.007 35.5973 39.7683 34.7106 40.169 34.02C40.4333 33.5596 40.9278 33.2953 41.4222 33.2953C41.6695 33.2953 41.9167 33.355 42.1469 33.4914C42.8375 33.8921 43.0762 34.7788 42.6755 35.4694Z" fill="white"/>
<path d="M7.66904 28.8619V20.5067C7.66904 19.9184 7.1916 19.441 6.60333 19.441C6.01506 19.441 5.53762 19.9184 5.53762 20.5067V28.8619C5.53762 29.4501 6.01506 29.9276 6.60333 29.9276C7.1916 29.9276 7.66904 29.4501 7.66904 28.8619Z" fill="white"/>
<path d="M40.3565 20.5837V28.8536C40.3565 29.4419 40.834 29.9193 41.4222 29.9193C42.0105 29.9193 42.488 29.4419 42.488 28.8536V20.5837C42.488 19.9954 42.0105 19.518 41.4222 19.518C40.834 19.518 40.3565 19.9954 40.3565 20.5837Z" fill="white"/>
<path d="M19.4089 40.9087L12.2303 36.7652C11.7187 36.4753 11.0708 36.6458 10.7724 37.1574C10.474 37.6689 10.653 38.3168 11.1646 38.6152L18.3432 42.7587C18.5137 42.8525 18.6928 42.9037 18.8718 42.9037C19.2384 42.9037 19.5965 42.7161 19.7926 42.3751C20.091 41.8635 19.9119 41.2156 19.4004 40.9172L19.4089 40.9087Z" fill="white"/>
<path d="M28.6508 8.49417L35.8123 12.6291C35.9829 12.7229 36.1619 12.7741 36.3409 12.7741C36.7075 12.7741 37.0656 12.5865 37.2617 12.2455C37.5601 11.7339 37.3811 11.086 36.8695 10.7876L29.7079 6.65263C29.1964 6.35423 28.5485 6.53327 28.2501 7.04481C27.9517 7.55635 28.1307 8.2043 28.6422 8.5027L28.6508 8.49417Z" fill="white"/>
<path d="M35.7612 36.7824L28.6081 40.9089C28.0966 41.2073 27.9261 41.8552 28.216 42.3668C28.412 42.7078 28.7701 42.8954 29.1367 42.8954C29.3158 42.8954 29.5033 42.8527 29.6653 42.7504L36.8184 38.624C37.3299 38.3256 37.5004 37.6776 37.2106 37.1661C36.9122 36.6546 36.2642 36.484 35.7527 36.7739L35.7612 36.7824Z" fill="white"/>
<path d="M11.7017 12.7653C11.8807 12.7653 12.0683 12.7227 12.2303 12.6203L19.3748 8.49392C19.8863 8.19552 20.0569 7.54756 19.767 7.03602C19.4771 6.52448 18.8206 6.35397 18.3091 6.64384L11.1646 10.7703C10.653 11.0687 10.4825 11.7166 10.7724 12.2282C10.9685 12.5692 11.3266 12.7568 11.6932 12.7568L11.7017 12.7653Z" fill="white"/>
<path d="M43.2126 31.6499C41.8485 30.8655 40.1775 31.0957 39.0606 32.0847L37.0827 30.857C37.9693 28.9813 38.4809 26.901 38.4809 24.6929C38.4809 22.4847 37.9352 20.2595 36.9889 18.3327L38.8816 17.1562C39.5636 17.8382 40.4844 18.2134 41.4308 18.2134C42.0361 18.2134 42.6499 18.0599 43.2126 17.7359C44.9178 16.747 45.5061 14.5558 44.5256 12.8507C44.0482 12.0237 43.2723 11.4269 42.3515 11.1797C41.4308 10.9324 40.4674 11.0603 39.6319 11.5378C38.2933 12.3051 37.6624 13.8141 37.9097 15.255L35.9146 16.4912C33.4934 12.9956 29.5801 10.617 25.0956 10.276V7.97402C26.5364 7.51363 27.5851 6.17509 27.5851 4.58079C27.5851 2.61136 25.9822 1 24.0043 1C22.0263 1 20.4235 2.60283 20.4235 4.58079C20.4235 6.19215 21.4977 7.5392 22.9641 7.99107V10.276C18.4029 10.5999 14.4214 13.0383 12.0001 16.6276L10.0648 15.4255C10.3973 13.942 9.76636 12.3477 8.37667 11.5463C7.54968 11.0688 6.58628 10.941 5.65698 11.1882C4.7362 11.4354 3.96037 12.0237 3.48293 12.8592C2.49395 14.5644 3.08222 16.764 4.79588 17.7445C5.35858 18.0684 5.97243 18.2219 6.57775 18.2219C7.46443 18.2219 8.33405 17.8894 8.99905 17.2755L10.9429 18.4862C10.0392 20.3704 9.51912 22.4677 9.51912 24.6929C9.51912 26.9181 10.0051 28.8705 10.8406 30.7035L8.81148 31.9653C7.69462 31.0701 6.10031 30.8911 4.78736 31.6499C3.08222 32.6388 2.49395 34.8299 3.4744 36.5351C3.95184 37.3621 4.72768 37.9589 5.64845 38.2061C5.95538 38.2914 6.27083 38.334 6.57775 38.334C7.20013 38.334 7.81398 38.172 8.35962 37.8566C9.81752 37.0125 10.4484 35.2989 9.99655 33.7472L11.8637 32.5877C14.2679 36.2708 18.3006 38.7859 22.9386 39.1184V41.4032C21.4721 41.8551 20.3979 43.2022 20.3979 44.8135C20.3979 46.783 22.0007 48.3943 23.9787 48.3943C25.9566 48.3943 27.5595 46.7915 27.5595 44.8135C27.5595 43.2192 26.5108 41.8892 25.07 41.4203V39.1184C29.6312 38.7773 33.6042 36.3219 36.0084 32.7241L37.9267 33.9177C37.5686 35.4182 38.191 37.0466 39.5977 37.8566C40.1519 38.172 40.7572 38.334 41.3796 38.334C41.6865 38.334 42.002 38.2914 42.3089 38.2061C43.2297 37.9589 44.0055 37.3706 44.483 36.5351C45.4719 34.8299 44.8837 32.6303 43.17 31.6499H43.2126ZM40.6976 13.3878C41.0301 13.1917 41.4222 13.1406 41.7974 13.2429C42.1725 13.3452 42.4794 13.5839 42.6755 13.9164C43.0762 14.607 42.8375 15.4937 42.1469 15.8944C41.4563 16.2951 40.5697 16.0564 40.169 15.3658C39.7683 14.6752 40.007 13.7885 40.6976 13.3878ZM5.87865 15.8944C5.18807 15.4937 4.94935 14.607 5.35005 13.9164C5.54614 13.5839 5.85307 13.3452 6.2282 13.2429C6.35609 13.2088 6.47545 13.1917 6.60333 13.1917C6.85058 13.1917 7.09782 13.2599 7.32801 13.3878C8.0186 13.7885 8.25731 14.6752 7.85661 15.3658C7.4559 16.0564 6.56923 16.2951 5.87865 15.8944ZM7.32801 35.998C6.99551 36.194 6.60333 36.2452 6.2282 36.1429C5.85307 36.0406 5.54614 35.8019 5.35005 35.4694C4.94935 34.7788 5.18807 33.8921 5.87865 33.4914C6.56923 33.0907 7.4559 33.3294 7.85661 34.02C8.25731 34.7106 8.0186 35.5973 7.32801 35.998ZM24.0128 3.13995C24.8142 3.13995 25.4622 3.7879 25.4622 4.58932C25.4622 5.39073 24.8142 6.03868 24.0128 6.03868C23.2114 6.03868 22.5634 5.39073 22.5634 4.58932C22.5634 3.7879 23.2114 3.13995 24.0128 3.13995ZM24.0128 46.2458C23.2114 46.2458 22.5634 45.5979 22.5634 44.7965C22.5634 43.9951 23.2114 43.3471 24.0128 43.3471C24.8142 43.3471 25.4622 43.9951 25.4622 44.7965C25.4622 45.5979 24.8142 46.2458 24.0128 46.2458ZM24.0128 37.0296C17.2093 37.0296 11.6761 31.4964 11.6761 24.6929C11.6761 17.8894 17.2093 12.3562 24.0128 12.3562C30.8163 12.3562 36.3495 17.8894 36.3495 24.6929C36.3495 31.4964 30.8163 37.0296 24.0128 37.0296ZM42.6755 35.4694C42.4794 35.8019 42.1725 36.0406 41.7974 36.1429C41.4222 36.2452 41.0301 36.194 40.6976 35.998C40.007 35.5973 39.7683 34.7106 40.169 34.02C40.4333 33.5596 40.9278 33.2953 41.4222 33.2953C41.6695 33.2953 41.9167 33.355 42.1469 33.4914C42.8375 33.8921 43.0762 34.7788 42.6755 35.4694Z" stroke="white" stroke-width="0.315" mask="url(#path-1-outside-1_4159_1683)"/>
<path d="M7.66904 28.8619V20.5067C7.66904 19.9184 7.1916 19.441 6.60333 19.441C6.01506 19.441 5.53762 19.9184 5.53762 20.5067V28.8619C5.53762 29.4501 6.01506 29.9276 6.60333 29.9276C7.1916 29.9276 7.66904 29.4501 7.66904 28.8619Z" stroke="white" stroke-width="0.315" mask="url(#path-1-outside-1_4159_1683)"/>
<path d="M40.3565 20.5837V28.8536C40.3565 29.4419 40.834 29.9193 41.4222 29.9193C42.0105 29.9193 42.488 29.4419 42.488 28.8536V20.5837C42.488 19.9954 42.0105 19.518 41.4222 19.518C40.834 19.518 40.3565 19.9954 40.3565 20.5837Z" stroke="white" stroke-width="0.315" mask="url(#path-1-outside-1_4159_1683)"/>
<path d="M19.4089 40.9087L12.2303 36.7652C11.7187 36.4753 11.0708 36.6458 10.7724 37.1574C10.474 37.6689 10.653 38.3168 11.1646 38.6152L18.3432 42.7587C18.5137 42.8525 18.6928 42.9037 18.8718 42.9037C19.2384 42.9037 19.5965 42.7161 19.7926 42.3751C20.091 41.8635 19.9119 41.2156 19.4004 40.9172L19.4089 40.9087Z" stroke="white" stroke-width="0.315" mask="url(#path-1-outside-1_4159_1683)"/>
<path d="M28.6508 8.49417L35.8123 12.6291C35.9829 12.7229 36.1619 12.7741 36.3409 12.7741C36.7075 12.7741 37.0656 12.5865 37.2617 12.2455C37.5601 11.7339 37.3811 11.086 36.8695 10.7876L29.7079 6.65263C29.1964 6.35423 28.5485 6.53327 28.2501 7.04481C27.9517 7.55635 28.1307 8.2043 28.6422 8.5027L28.6508 8.49417Z" stroke="white" stroke-width="0.315" mask="url(#path-1-outside-1_4159_1683)"/>
<path d="M35.7612 36.7824L28.6081 40.9089C28.0966 41.2073 27.9261 41.8552 28.216 42.3668C28.412 42.7078 28.7701 42.8954 29.1367 42.8954C29.3158 42.8954 29.5033 42.8527 29.6653 42.7504L36.8184 38.624C37.3299 38.3256 37.5004 37.6776 37.2106 37.1661C36.9122 36.6546 36.2642 36.484 35.7527 36.7739L35.7612 36.7824Z" stroke="white" stroke-width="0.315" mask="url(#path-1-outside-1_4159_1683)"/>
<path d="M11.7017 12.7653C11.8807 12.7653 12.0683 12.7227 12.2303 12.6203L19.3748 8.49392C19.8863 8.19552 20.0569 7.54756 19.767 7.03602C19.4771 6.52448 18.8206 6.35397 18.3091 6.64384L11.1646 10.7703C10.653 11.0687 10.4825 11.7166 10.7724 12.2282C10.9685 12.5692 11.3266 12.7568 11.6932 12.7568L11.7017 12.7653Z" stroke="white" stroke-width="0.315" mask="url(#path-1-outside-1_4159_1683)"/>
</svg>
