<svg width="64" height="64" viewBox="0 0 64 64" fill="none" xmlns="http://www.w3.org/2000/svg">
<path d="M48.2794 17.5298C46.649 17.5298 45.2866 18.5237 44.2257 20.1094H23.7563C22.3269 18.01 20.7859 17.5298 19.6915 17.5298H11.506C8.82586 17.5298 6.6036 20.2322 5.41988 24.9559C5.23004 25.7041 5.68789 26.4635 6.43609 26.6533C6.54776 26.6868 6.6706 26.698 6.78227 26.698C7.40763 26.698 7.97716 26.2737 8.1335 25.6483C9.06037 21.9966 10.5344 20.3327 11.5171 20.3327H15.4926C14.7221 21.5276 14.0856 23.0799 13.6054 24.9671C13.4155 25.7153 13.8734 26.4747 14.6216 26.6645C14.7333 26.698 14.8561 26.7092 14.9678 26.7092C15.5931 26.7092 16.1627 26.2848 16.319 25.6595C17.2459 22.0078 18.7199 20.3439 19.7027 20.3439C20.0377 20.3439 20.395 20.5226 20.7635 20.8688C19.7138 21.6281 18.8316 22.9794 18.1728 24.8554C17.9159 25.5813 18.2956 26.3742 19.0326 26.631C19.189 26.6868 19.3453 26.7092 19.4905 26.7092C20.0712 26.7092 20.6072 26.3518 20.8082 25.7711C21.5006 23.8169 22.3716 22.9235 22.8853 22.9235H42.8522C41.8806 25.5478 41.3781 28.8086 41.3781 31.9912C41.3781 35.1739 41.8806 38.4347 42.8522 41.059H27.8882C27.1176 41.059 26.4923 41.6843 26.4923 42.4549C26.4923 43.2254 27.1176 43.8508 27.8882 43.8508H44.2369C45.3089 45.4365 46.6601 46.4304 48.2906 46.4304H56.1076C60.5967 46.4304 63.02 38.9819 63.02 31.9801C63.02 24.9783 60.5967 17.5298 56.1076 17.5298H48.2794ZM44.1475 31.9801C44.1475 24.8666 46.5931 20.3216 48.2682 20.3216H51.8864C50.1108 23.1245 49.1728 27.6361 49.1728 31.9801C49.1728 36.3241 50.1108 40.8356 51.8864 43.6386H48.2682C46.5931 43.6386 44.1475 39.0935 44.1475 31.9801ZM56.0964 43.6386C54.4213 43.6386 51.9757 39.0935 51.9757 31.9801C51.9757 24.8666 54.4213 20.3216 56.0964 20.3216C57.7715 20.3216 60.2171 24.8666 60.2171 31.9801C60.2171 39.0935 57.7715 43.6386 56.0964 43.6386Z" fill="#249EDC"/>
<path d="M4.81679 30.428H29.7195L28.6363 31.634C28.1226 32.2036 28.1673 33.0858 28.7368 33.6106C29.0048 33.8563 29.3398 33.968 29.6748 33.968C30.0545 33.968 30.4342 33.8116 30.7134 33.5101L33.896 29.9701C33.963 29.9031 33.9854 29.8138 34.0301 29.7468C34.0636 29.6798 34.1193 29.6239 34.1417 29.5569C34.2757 29.2219 34.2757 28.8534 34.1417 28.5184C34.1082 28.4514 34.0636 28.3956 34.0301 28.3286C33.9854 28.2504 33.9518 28.1722 33.896 28.1052L30.7134 24.5652C30.1997 23.9957 29.3175 23.951 28.7368 24.4647C28.1673 24.9784 28.1226 25.8606 28.6363 26.4413L29.7195 27.6474H4.81679C4.04626 27.6474 3.4209 28.2727 3.4209 29.0432C3.4209 29.8138 4.04626 30.4391 4.81679 30.4391V30.428Z" fill="#249EDC"/>
<path d="M3.06337 35.3301H13.8397C14.6102 35.3301 15.2356 34.7047 15.2356 33.9342C15.2356 33.1636 14.6102 32.5383 13.8397 32.5383H3.06337C2.29284 32.5383 1.66748 33.1636 1.66748 33.9342C1.66748 34.7047 2.29284 35.3301 3.06337 35.3301Z" fill="#249EDC"/>
<path d="M19.6803 42.3989H2.41591C1.64538 42.3989 1.02002 43.0243 1.02002 43.7948C1.02002 44.5654 1.64538 45.1907 2.41591 45.1907H19.6803C20.4509 45.1907 21.0762 44.5654 21.0762 43.7948C21.0762 43.0243 20.4509 42.3989 19.6803 42.3989Z" fill="#249EDC"/>
<path d="M27.7207 39.3951C27.7542 39.3281 27.8101 39.2723 27.8324 39.2053C27.9664 38.8703 27.9664 38.5018 27.8324 38.1668C27.7989 38.0998 27.7542 38.0439 27.7207 37.9769C27.6761 37.8987 27.6426 37.8206 27.5867 37.7536L24.4041 34.2136C23.8904 33.6441 23.0082 33.5994 22.4275 34.1131C21.858 34.6268 21.8133 35.509 22.327 36.0897L23.4102 37.2957H5.87782C5.10729 37.2957 4.48193 37.9211 4.48193 38.6916C4.48193 39.4622 5.10729 40.0875 5.87782 40.0875H23.4102L22.327 41.2936C21.8133 41.8631 21.858 42.7453 22.4275 43.2701C22.6955 43.5158 23.0305 43.6275 23.3656 43.6275C23.7452 43.6275 24.1249 43.4712 24.4041 43.1696L27.5867 39.6297C27.6537 39.5627 27.6761 39.4733 27.7207 39.4063V39.3951Z" fill="#249EDC"/>
<path d="M18.4075 31.1758C17.6369 31.1982 17.0339 31.8347 17.0451 32.6052C17.0674 33.4539 17.1344 34.3026 17.2572 35.1848C17.3466 35.8884 17.9496 36.4021 18.642 36.4021C18.6978 36.4021 18.7648 36.4021 18.8318 36.3909C19.5912 36.2904 20.1384 35.5869 20.0379 34.8275C19.9374 34.0346 19.8704 33.2864 19.848 32.5382C19.8257 31.7677 19.2003 31.1423 18.4186 31.1758H18.4075Z" fill="#249EDC"/>
</svg>
