<svg width="48" height="48" viewBox="0 0 48 48" fill="none" xmlns="http://www.w3.org/2000/svg">
<path d="M36.5879 12.5337C35.3257 12.5337 34.2709 13.3031 33.4496 14.5308H17.6023C16.4957 12.9054 15.3026 12.5337 14.4553 12.5337H8.11815C6.04322 12.5337 4.32276 14.6259 3.40634 18.283C3.25936 18.8622 3.61383 19.4501 4.19308 19.5971C4.27953 19.623 4.37464 19.6317 4.46109 19.6317C4.94524 19.6317 5.38616 19.3031 5.5072 18.819C6.22478 15.9919 7.36599 14.7037 8.1268 14.7037H11.2046C10.6081 15.6288 10.1153 16.8305 9.74351 18.2916C9.59654 18.8709 9.95101 19.4588 10.5303 19.6057C10.6167 19.6317 10.7118 19.6403 10.7983 19.6403C11.2824 19.6403 11.7233 19.3118 11.8444 18.8276C12.562 16.0005 13.7032 14.7124 14.464 14.7124C14.7233 14.7124 15 14.8507 15.2853 15.1187C14.4726 15.7066 13.7896 16.7527 13.2795 18.2052C13.0807 18.7671 13.3746 19.381 13.9452 19.5798C14.0663 19.623 14.1873 19.6403 14.2997 19.6403C14.7493 19.6403 15.1643 19.3637 15.3199 18.9141C15.8559 17.4011 16.5303 16.7095 16.928 16.7095H32.3862C31.634 18.7412 31.245 21.2657 31.245 23.7297C31.245 26.1936 31.634 28.7181 32.3862 30.7498H20.8012C20.2046 30.7498 19.7205 31.234 19.7205 31.8305C19.7205 32.4271 20.2046 32.9112 20.8012 32.9112H33.4582C34.2882 34.1389 35.3343 34.9083 36.5965 34.9083H42.6484C46.1239 34.9083 48 29.1418 48 23.721C48 18.3003 46.1239 12.5337 42.6484 12.5337H36.5879ZM33.3891 23.721C33.3891 18.2138 35.2824 14.6951 36.5793 14.6951H39.3804C38.0058 16.8651 37.2795 20.3579 37.2795 23.721C37.2795 27.0841 38.0058 30.5769 39.3804 32.7469H36.5793C35.2824 32.7469 33.3891 29.2282 33.3891 23.721ZM42.6398 32.7469C41.3429 32.7469 39.4496 29.2282 39.4496 23.721C39.4496 18.2138 41.3429 14.6951 42.6398 14.6951C43.9366 14.6951 45.83 18.2138 45.83 23.721C45.83 29.2282 43.9366 32.7469 42.6398 32.7469Z" fill="white"/>
<path d="M2.93948 22.5193H22.219L21.3804 23.453C20.9827 23.8939 21.0173 24.5769 21.4582 24.9833C21.6657 25.1735 21.9251 25.2599 22.1844 25.2599C22.4784 25.2599 22.7723 25.1389 22.9885 24.9055L25.4524 22.1648C25.5043 22.113 25.5216 22.0438 25.5562 21.9919C25.5821 21.9401 25.6254 21.8968 25.6426 21.845C25.7464 21.5856 25.7464 21.3003 25.6426 21.0409C25.6167 20.989 25.5821 20.9458 25.5562 20.8939C25.5216 20.8334 25.4957 20.7729 25.4524 20.721L22.9885 17.9804C22.5908 17.5395 21.9078 17.5049 21.4582 17.9026C21.0173 18.3003 20.9827 18.9833 21.3804 19.4329L22.219 20.3666H2.93948C2.34293 20.3666 1.85878 20.8507 1.85878 21.4473C1.85878 22.0438 2.34293 22.528 2.93948 22.528V22.5193Z" fill="white"/>
<path d="M1.58212 26.3146H9.92506C10.5216 26.3146 11.0058 25.8305 11.0058 25.2339C11.0058 24.6374 10.5216 24.1532 9.92506 24.1532H1.58212C0.985579 24.1532 0.501429 24.6374 0.501429 25.2339C0.501429 25.8305 0.985579 26.3146 1.58212 26.3146Z" fill="white"/>
<path d="M14.4467 31.7873H1.08069C0.48415 31.7873 0 32.2715 0 32.868C0 33.4645 0.48415 33.9487 1.08069 33.9487H14.4467C15.0432 33.9487 15.5274 33.4645 15.5274 32.868C15.5274 32.2715 15.0432 31.7873 14.4467 31.7873Z" fill="white"/>
<path d="M20.6715 29.4618C20.6974 29.4099 20.7406 29.3667 20.7579 29.3148C20.8617 29.0555 20.8617 28.7701 20.7579 28.5108C20.732 28.4589 20.6974 28.4157 20.6715 28.3638C20.6369 28.3033 20.6109 28.2428 20.5677 28.1909L18.1037 25.4503C17.706 25.0093 17.023 24.9748 16.5735 25.3725C16.1325 25.7701 16.098 26.4531 16.4957 26.9027L17.3343 27.8364H3.76079C3.16424 27.8364 2.68009 28.3206 2.68009 28.9171C2.68009 29.5137 3.16424 29.9978 3.76079 29.9978H17.3343L16.4957 30.9315C16.098 31.3725 16.1325 32.0555 16.5735 32.4618C16.781 32.652 17.0403 32.7384 17.2997 32.7384C17.5936 32.7384 17.8876 32.6174 18.1037 32.384L20.5677 29.6433C20.6196 29.5915 20.6369 29.5223 20.6715 29.4704V29.4618Z" fill="white"/>
<path d="M13.4611 23.0984C12.8645 23.1157 12.3977 23.6085 12.4063 24.2051C12.4236 24.8621 12.4755 25.5192 12.5706 26.2022C12.6398 26.7469 13.1066 27.1446 13.6426 27.1446C13.6859 27.1446 13.7377 27.1446 13.7896 27.1359C14.3775 27.0581 14.8011 26.5134 14.7233 25.9255C14.6455 25.3117 14.5937 24.7325 14.5764 24.1532C14.5591 23.5567 14.0749 23.0725 13.4697 23.0984H13.4611Z" fill="white"/>
</svg>
