<svg width="64" height="64" viewBox="0 0 64 64" fill="none" xmlns="http://www.w3.org/2000/svg">
<path fill-rule="evenodd" clip-rule="evenodd" d="M35.783 11.2533C38.1593 11.7735 40.039 13.6414 40.5592 16.0295C40.5946 16.1832 40.8074 16.1832 40.8429 16.0295C41.3631 13.6414 43.231 11.7735 45.6191 11.2533C45.7728 11.2178 45.7728 11.005 45.6191 10.9696C43.2428 10.4494 41.3631 8.58148 40.8429 6.19339C40.8074 6.0397 40.5946 6.0397 40.5592 6.19339C40.039 8.58148 38.1711 10.4494 35.783 10.9696C35.6293 11.005 35.6293 11.2178 35.783 11.2533Z" fill="#249EDC"/>
<path fill-rule="evenodd" clip-rule="evenodd" d="M48.0545 28.8832C48.0545 27.902 47.3807 27.0744 46.4231 26.8616C37.4618 24.9109 30.404 17.8531 28.4533 8.89184C28.2405 7.93424 27.4129 7.26038 26.4435 7.26038C25.4741 7.26038 24.6347 7.93424 24.4337 8.89184C22.4831 17.8649 15.437 24.9109 6.46398 26.8616C5.50639 27.0744 4.83252 27.902 4.83252 28.8832C4.83252 29.8644 5.50639 30.692 6.46398 30.9048C15.4252 32.8555 22.4831 39.9133 24.4337 48.8746C24.6465 49.8322 25.4741 50.506 26.4435 50.506C27.4129 50.506 28.2523 49.8322 28.4533 48.8746C30.404 39.9015 37.45 32.8555 46.4231 30.9048C47.3807 30.692 48.0545 29.8644 48.0545 28.895V28.8832ZM26.4435 45.1506C23.7835 37.5489 17.7778 31.5432 10.1762 28.8832C17.766 26.2232 23.7835 20.2175 26.4435 12.6158C29.1035 20.2175 35.1092 26.2232 42.7109 28.8832C35.121 31.5432 29.1035 37.5489 26.4435 45.1506Z" fill="#249EDC"/>
<path fill-rule="evenodd" clip-rule="evenodd" d="M57.7606 46.6077C52.9962 45.5673 49.2486 41.8197 48.2082 37.0553C48.1373 36.7361 47.7117 36.7361 47.6407 37.0553C46.6004 41.8197 42.8527 45.5673 38.0884 46.6077C37.7692 46.6786 37.7692 47.116 38.0884 47.1751C42.8527 48.2155 46.6004 51.9631 47.6407 56.7275C47.7117 57.0467 48.1373 57.0467 48.2082 56.7275C49.2486 51.9631 52.9962 48.2155 57.7606 47.1751C58.0798 47.1042 58.0798 46.6668 57.7606 46.6077Z" fill="#249EDC"/>
</svg>
