<svg width="40" height="52" viewBox="0 0 40 52" fill="none" xmlns="http://www.w3.org/2000/svg">
<path fill-rule="evenodd" clip-rule="evenodd" d="M10.5012 34.8476L6.84864 45.6817L10.402 44.1893C10.5608 44.1118 10.7395 44.0731 10.9181 44.0731C11.3548 44.0731 11.7916 44.3056 12.0298 44.6933L13.9752 47.9687L17.5484 37.3284C16.8536 37.5028 16.0993 37.6578 15.3251 37.6578C14.8288 37.6578 14.3127 37.5997 13.7965 37.4447C12.2878 36.9601 11.2953 35.8166 10.5012 34.8476ZM29.6179 34.6537H29.598C28.7841 35.681 27.7519 36.9407 26.1439 37.4447C25.6278 37.5997 25.1315 37.6772 24.6352 37.6772C23.9404 37.6772 23.2854 37.5609 22.6501 37.4059L26.2035 47.9687L28.1687 44.6933C28.4069 44.3056 28.8437 44.0731 29.2804 44.0731C29.4591 44.0731 29.6179 44.1118 29.7965 44.17L33.3499 45.6817L29.6179 34.6537ZM15.3052 3.97316C15.206 3.97316 15.1067 3.97316 15.0074 4.01193C14.5509 4.1476 14.0149 4.82594 13.4789 5.4849C12.9231 6.16325 12.3077 6.91912 11.4938 7.50056C10.6799 8.082 9.7469 8.43086 8.8933 8.72158C8.09926 9.0123 7.28536 9.3224 7.00744 9.67126C6.74938 10.0201 6.70968 10.9117 6.66998 11.7063C6.63027 12.5785 6.57072 13.5669 6.27295 14.4972C5.97519 15.4081 5.41935 16.2221 4.94293 16.9199C4.4665 17.637 3.97022 18.3541 3.97022 18.8386C3.97022 19.3231 4.4665 20.0596 4.94293 20.7574C5.43921 21.4745 5.97519 22.2691 6.27295 23.18C6.57072 24.1297 6.63027 25.1182 6.66998 25.9709C6.70968 26.7656 6.74938 27.6571 7.00744 28.006C7.28536 28.3742 8.09926 28.6843 8.8933 28.9556C9.72705 29.2464 10.66 29.6146 11.4938 30.1767C12.3077 30.7581 12.9231 31.514 13.4789 32.1923C14.0149 32.8513 14.5707 33.549 15.0074 33.6653C15.0868 33.6847 15.1663 33.7041 15.2655 33.7041C15.7221 33.7041 16.4169 33.5296 17.0323 33.3552C17.9057 33.1226 18.8983 32.8707 19.9305 32.8707C20.9628 32.8707 21.9553 33.1226 22.8486 33.3552C23.464 33.5296 24.1588 33.7041 24.6154 33.7041C24.7146 33.7041 24.8139 33.7041 24.8933 33.6653C25.3499 33.5296 25.8859 32.8513 26.4218 32.1923C26.9777 31.514 27.5931 30.7581 28.4069 30.1767C29.2208 29.5952 30.1538 29.2464 31.0074 28.9556C31.8015 28.6649 32.6352 28.3742 32.9132 28.006C33.1712 27.6571 33.2109 26.7656 33.2506 25.9709C33.2903 25.0988 33.33 24.1103 33.6476 23.18C33.9454 22.2691 34.5012 21.4551 34.9777 20.7574C35.4541 20.0403 35.9504 19.3231 35.9504 18.8386C35.9504 18.3541 35.4541 17.6176 34.9777 16.9199C34.4814 16.2221 33.9454 15.4081 33.6476 14.4972C33.33 13.5669 33.2903 12.5591 33.2506 11.7063C33.2109 10.9117 33.1712 10.0201 32.9132 9.67126C32.6352 9.3224 31.8015 8.99292 31.0074 8.72158C30.1737 8.43086 29.2407 8.06262 28.4069 7.50056C27.5931 6.91912 26.9578 6.16325 26.4218 5.4849C25.8859 4.82594 25.33 4.1476 24.8734 4.01193C24.794 3.99255 24.6948 3.97316 24.5955 3.97316C24.139 3.97316 23.464 4.1476 22.8486 4.32203C21.9752 4.5546 20.9826 4.80656 19.9504 4.80656C18.9181 4.80656 17.9256 4.5546 17.0521 4.32203C16.4367 4.1476 15.7618 3.97316 15.3052 3.97316ZM15.3052 0.0387626C16.2978 0.0387626 17.2506 0.290719 18.1241 0.542676C18.8189 0.717108 19.4541 0.891539 19.9702 0.891539C20.4864 0.891539 21.1216 0.717108 21.8164 0.542676C22.6898 0.310101 23.6427 0.0387626 24.6352 0.0387626C25.1315 0.0387626 25.6476 0.0969064 26.1638 0.271338C27.7717 0.775252 28.7841 2.03504 29.598 3.04286C30.0149 3.54678 30.4318 4.05069 30.8089 4.32203C31.1861 4.59337 31.8015 4.80656 32.4566 5.05852C33.6873 5.50429 35.196 6.06634 36.1886 7.38427C37.1613 8.68282 37.2208 10.2139 37.3002 11.5512C37.3201 12.249 37.3598 12.8692 37.4988 13.3343C37.6377 13.7413 37.995 14.2452 38.3524 14.8073C39.0868 15.8733 40 17.2106 40 18.8968C40 20.5829 39.0868 21.9009 38.3524 22.9668C37.995 23.5289 37.6377 24.0328 37.4988 24.4398C37.34 24.8856 37.3201 25.5445 37.3002 26.2229C37.2407 27.5602 37.1613 29.0719 36.1886 30.3705C35.2159 31.6884 33.6873 32.2505 32.4566 32.6962C32.2184 32.7738 31.9801 32.8707 31.7618 32.9482L36.5459 47.1741C36.804 47.9493 36.3672 48.7827 35.5732 49.0347C35.4342 49.0734 35.3151 49.0928 35.1762 49.0928C34.9975 49.0928 34.8387 49.054 34.6799 48.9765L29.8362 46.9221L27.1563 51.3604C26.9975 51.6124 26.7593 51.8256 26.4615 51.9225C26.3027 51.9612 26.1439 52 25.9653 52C25.727 52 25.5087 51.9612 25.3102 51.8449C24.9529 51.6705 24.6749 51.3604 24.536 50.9922L20.0893 37.8129L15.6625 50.9922C15.5434 51.3604 15.2655 51.6705 14.8883 51.8449C14.6898 51.9419 14.4516 52 14.2333 52C14.0546 52 13.9156 51.9806 13.737 51.9225C13.4392 51.8256 13.1811 51.6318 13.0422 51.3604L10.3623 46.9221L5.51861 48.9765C5.3598 49.054 5.18114 49.0928 5.00248 49.0928C4.88337 49.0928 4.74442 49.0734 4.62531 49.0347C3.83127 48.7827 3.39454 47.9493 3.65261 47.1741L8.41687 33.0257C8.15881 32.9094 7.84119 32.7931 7.52357 32.6769C6.2928 32.2311 4.78412 31.669 3.81141 30.3511C2.83871 29.0526 2.77916 27.5214 2.69975 26.2035C2.66005 25.5058 2.6402 24.8662 2.50124 24.4204C2.36228 24.0134 2.00496 23.5095 1.64764 22.9474C0.913151 21.8621 0 20.5248 0 18.858C0 17.1912 0.913151 15.8539 1.64764 14.7685C2.00496 14.2065 2.36228 13.7026 2.50124 13.2956C2.6402 12.8498 2.6799 12.1908 2.69975 11.5125C2.75931 10.1752 2.83871 8.66344 3.81141 7.34551C4.78412 6.02758 6.31266 5.4849 7.52357 5.01975C8.17866 4.7678 8.77419 4.5546 9.17122 4.28327C9.54839 4.03131 9.94541 3.50801 10.3623 3.0041C11.1762 1.99627 12.1886 0.736489 13.7965 0.232575C14.3127 0.0581439 14.8288 0 15.3251 0L15.3052 0.0387626Z" fill="#249EDC"/>
<path fill-rule="evenodd" clip-rule="evenodd" d="M26.263 13.3343L26.1042 13.4506L17.8462 20.8155L17.727 20.893L17.3697 20.9318L17.2109 20.8155L13.4988 18.0052L13.3002 17.8889L12.9429 17.9277L12.7841 18.0827L11.5335 19.6332L11.4541 19.7883L11.4938 20.1372L11.6129 20.2728L16.536 24.2848L16.8139 24.4786L17.4094 24.6724H18.005L18.6005 24.4398L18.8387 24.246L28.3474 15.6988L28.4665 15.5438V15.1562L28.3474 15.0011L26.7792 13.4506L26.6203 13.3343H26.263Z" fill="#249EDC"/>
</svg>
