<svg width="46" height="52" viewBox="0 0 46 52" fill="none" xmlns="http://www.w3.org/2000/svg">
<path fill-rule="evenodd" clip-rule="evenodd" d="M43.4491 37.6492C43.2586 38.0278 42.895 38.3031 42.5141 38.3891C42.1332 38.4752 41.6658 38.3891 41.3022 38.1999C40.5577 37.7353 40.2634 36.8061 40.7481 36.049C41.0252 35.5844 41.5965 35.3091 42.1505 35.3091C42.7046 35.3091 42.7046 35.3091 42.895 35.4983C43.6395 35.9629 43.9338 36.8921 43.4491 37.6492ZM26.4818 46.2184C26.0143 45.2892 25.166 44.5493 24.1445 44.1707V32.4355C25.7373 32.1602 27.0531 31.317 28.0746 30.1125L38.2896 35.9801C38.0126 37.0986 38.2896 38.2171 38.8437 39.0602C35.658 42.8802 31.3469 45.3064 26.4645 46.1324V46.2184H26.4818ZM22.9325 49.4878C22.0842 49.4878 21.3397 48.7479 21.3397 47.9047C21.3397 47.0616 22.0842 46.3216 22.9325 46.3216C23.7809 46.3216 24.5254 47.0616 24.5254 47.9047C24.5254 48.7479 23.7809 49.4878 22.9325 49.4878ZM6.98677 39.1463C7.26378 38.7677 7.45423 38.4064 7.5408 37.9418C7.73125 37.2019 7.73125 36.548 7.5408 35.8941L17.6692 30.1125C18.708 31.317 20.1104 32.2634 21.7898 32.5387V44.274C20.751 44.5493 19.92 45.3064 19.4525 46.3216C14.5701 45.4785 10.259 42.9662 7.07334 39.2495L6.98677 39.1635V39.1463ZM3.33361 38.4064C2.95272 38.3203 2.58913 38.0278 2.39868 37.6664C2.20823 37.2879 2.12167 36.9265 2.20823 36.4619C2.2948 36.0834 2.58913 35.722 2.95272 35.5328C3.22973 35.3435 3.50675 35.3435 3.80108 35.3435C4.35511 35.3435 4.92646 35.6188 5.20347 36.0834C5.39392 36.4619 5.48049 36.8233 5.39392 37.2879C5.30736 37.6664 5.01303 38.0278 4.64944 38.2171C4.26854 38.4064 3.80108 38.4924 3.43749 38.4064H3.33361ZM2.39868 14.1787C2.6757 13.7141 3.24705 13.3355 3.80108 13.3355C4.35511 13.3355 4.35511 13.3355 4.64944 13.5248C5.03034 13.7141 5.30736 14.0754 5.39392 14.454C5.48049 14.8326 5.39392 15.2972 5.20347 15.6585C5.01303 16.0371 4.64944 16.3124 4.26854 16.3984C3.88765 16.4844 3.42018 16.3984 3.0566 16.2091C2.6757 16.0199 2.39868 15.6585 2.31212 15.2799C2.22555 14.9014 2.31212 14.4368 2.50256 14.0754L2.39868 14.1787ZM19.3659 5.60953C19.8334 6.64196 20.6818 7.27862 21.7033 7.65718V19.3925C20.1104 19.6678 18.7946 20.5109 17.7731 21.6294L7.55811 15.7617C7.64468 15.2111 7.64468 14.5572 7.55811 13.9034C7.47155 13.4388 7.2811 13.0602 7.00408 12.6989C10.1898 8.87889 14.5008 6.45268 19.3833 5.62674L19.3659 5.60953ZM22.9325 2.34017C23.7809 2.34017 24.5254 3.08008 24.5254 3.92323C24.5254 4.76638 23.7809 5.50629 22.9325 5.50629C22.0842 5.50629 21.3397 4.76638 21.3397 3.92323C21.3397 3.08008 22.0842 2.34017 22.9325 2.34017ZM38.861 12.6817C38.3069 13.5248 38.0126 14.54 38.2031 15.5725L27.8842 21.4401C26.9493 20.4077 25.6334 19.5817 24.1272 19.3925V7.65718C25.166 7.27862 25.997 6.62475 26.4645 5.60953C31.3469 6.45268 35.658 8.96492 38.8437 12.6817H38.861ZM43.4491 14.1787C43.9165 14.9186 43.6395 15.951 42.895 16.3296C42.5141 16.5189 42.1505 16.6049 41.6831 16.5189C41.3022 16.4328 40.9386 16.1403 40.7481 15.779C40.2807 15.039 40.5577 14.0066 41.3022 13.6281C42.0467 13.1635 42.9816 13.4388 43.4664 14.1787H43.4491ZM6.24229 33.8293C5.86139 33.4507 5.30736 33.1754 4.73601 33.0893C4.26854 33.0033 3.88765 32.9001 3.42018 33.0033C2.57182 30.7664 2.10435 28.3402 2.10435 25.9312C2.10435 23.5222 2.57182 21.0788 3.42018 18.859H3.6972C4.0781 18.859 4.35511 18.859 4.73601 18.773C5.39392 18.5837 5.94796 18.3084 6.41542 17.8438L16.6304 23.7115C16.3534 24.4514 16.2495 25.2085 16.2495 26.0344C16.2495 26.8604 16.3361 27.4282 16.6304 28.0821L6.31154 33.9497L6.22497 33.8637L6.24229 33.8293ZM22.9325 30.1985C20.5952 30.1985 18.6215 28.2369 18.6215 25.914C18.6215 23.591 20.5952 21.6294 22.9325 21.6294C25.2699 21.6294 27.2436 23.591 27.2436 25.914C27.2436 28.2369 25.2699 30.1985 22.9325 30.1985ZM39.415 34.0185L29.2 28.1509C29.477 27.497 29.5809 26.7571 29.5809 25.914C29.5809 25.0708 29.3905 24.2449 29.1135 23.4878L39.2419 17.7062C39.7093 18.1707 40.3672 18.5493 41.0252 18.7386C41.4061 18.8246 41.6831 18.8246 42.064 18.8246C42.4449 18.8246 42.2544 18.8246 42.341 18.8246C43.1893 21.0616 43.6568 23.4878 43.6568 25.8968C43.6568 28.3058 43.1893 30.7492 42.341 32.9689C41.8735 32.9689 41.4061 32.9689 41.0252 33.0549C40.3672 33.2442 39.8998 33.5195 39.4323 33.8981V33.9841L39.415 34.0185ZM44.5744 33.8293C45.5094 31.317 45.9768 28.6155 45.9768 25.914C45.9768 23.2124 45.5094 20.5109 44.5744 17.8954C45.9768 16.6909 46.4443 14.6433 45.5094 12.957C44.5744 11.2879 42.5141 10.634 40.7308 11.2879C37.1642 7.00331 32.2991 4.21575 26.8627 3.26936C26.5857 1.41099 24.9928 0 23.0191 0C21.0454 0 19.4525 1.39378 19.1755 3.26936C13.739 4.19854 8.85663 7.00331 5.30736 11.2879C3.52406 10.634 1.46375 11.2879 0.528822 12.957C-0.0252104 13.8862 -0.129092 14.9186 0.147925 15.9338C0.338374 16.777 0.805839 17.4308 1.46375 17.8954C0.528822 20.4249 0.0440437 23.1264 0.0440437 25.914C0.0440437 28.7015 0.511509 31.317 1.44644 33.9325C0.788525 34.3971 0.32106 35.137 0.130611 35.9801C-0.146405 37.0126 0.0440437 38.0278 0.511509 38.957C0.978974 39.8862 1.9139 40.54 2.84883 40.8154C3.22973 40.8154 3.50675 41.0046 3.88765 41.0046C4.26854 41.0046 4.82258 41.0046 5.29004 40.7293C8.85663 45.0139 13.7217 47.8015 19.1582 48.7479C19.4352 50.6062 21.028 52 23.0018 52C24.9755 52 26.5684 50.6062 26.8454 48.7479C32.2818 47.8187 37.1642 45.0139 40.7135 40.7293C41.181 40.9186 41.6484 41.0046 42.1159 41.0046C42.5834 41.0046 42.7738 41.0046 43.1547 40.8154C44.1935 40.54 45.0246 39.8862 45.4921 38.957C46.427 37.2879 46.0461 35.137 44.5571 34.0185V33.8293H44.5744Z" fill="#249EDC"/>
<path fill-rule="evenodd" clip-rule="evenodd" d="M36.2293 21.2508C35.1039 21.2508 34.2556 22.18 34.2556 23.2124C34.2556 24.2449 35.1905 25.1741 36.2293 25.1741C37.2681 25.1741 38.2031 24.2449 38.2031 23.2124C38.2031 22.18 37.2681 21.2508 36.2293 21.2508Z" fill="#249EDC"/>
<path fill-rule="evenodd" clip-rule="evenodd" d="M36.2293 26.3786C35.1039 26.3786 34.2556 27.3077 34.2556 28.3402C34.2556 29.3726 35.1905 30.3018 36.2293 30.3018C37.2681 30.3018 38.2031 29.3726 38.2031 28.3402C38.2031 27.3077 37.2681 26.3786 36.2293 26.3786Z" fill="#249EDC"/>
<path fill-rule="evenodd" clip-rule="evenodd" d="M9.61842 26.3786C8.49304 26.3786 7.64468 27.3077 7.64468 28.3402C7.64468 29.3726 8.57961 30.3018 9.61842 30.3018C10.6572 30.3018 11.5922 29.3726 11.5922 28.3402C11.5922 27.3077 10.6572 26.3786 9.61842 26.3786Z" fill="#249EDC"/>
<path fill-rule="evenodd" clip-rule="evenodd" d="M9.61842 21.2508C8.49304 21.2508 7.64468 22.18 7.64468 23.2124C7.64468 24.2449 8.57961 25.1741 9.61842 25.1741C10.6572 25.1741 11.5922 24.2449 11.5922 23.2124C11.5922 22.18 10.6572 21.2508 9.61842 21.2508Z" fill="#249EDC"/>
<path fill-rule="evenodd" clip-rule="evenodd" d="M25.6507 12.0278C25.0967 12.957 25.4603 14.1787 26.3952 14.7293C27.3302 15.2799 28.5594 14.9186 29.1135 13.9894C29.6675 13.0602 29.3039 11.8385 28.369 11.2879C27.434 10.7373 26.2048 11.0986 25.6507 12.0278Z" fill="#249EDC"/>
<path fill-rule="evenodd" clip-rule="evenodd" d="M30.8967 17.2588C31.8317 17.8094 33.0609 17.448 33.615 16.5189C34.169 15.5897 33.8054 14.368 32.8705 13.8173C31.9356 13.2667 30.7063 13.6281 30.1523 14.5572C29.5982 15.4864 29.9618 16.7081 30.8967 17.2588Z" fill="#249EDC"/>
<path fill-rule="evenodd" clip-rule="evenodd" d="M20.2143 39.5248C20.7683 38.5956 20.4048 37.3739 19.4698 36.8233C18.5349 36.2727 17.3056 36.634 16.7516 37.5632C16.1976 38.4924 16.5611 39.7141 17.4961 40.2647C18.431 40.8154 19.6603 40.454 20.2143 39.5248Z" fill="#249EDC"/>
<path fill-rule="evenodd" clip-rule="evenodd" d="M14.951 34.2938C14.0161 33.7432 12.7868 34.1046 12.2328 35.0338C11.6787 35.9629 12.0423 37.1846 12.9772 37.7353C13.9122 38.2859 15.1414 37.9246 15.6955 36.9954C16.2495 36.0662 15.8859 34.8445 14.951 34.2938Z" fill="#249EDC"/>
<path fill-rule="evenodd" clip-rule="evenodd" d="M14.951 17.2588C15.8859 16.7081 16.2668 15.4864 15.6955 14.5572C15.1414 13.6281 13.9122 13.2495 12.9772 13.8173C12.0423 14.368 11.6614 15.5897 12.2328 16.5189C12.7868 17.448 14.0161 17.8266 14.951 17.2588Z" fill="#249EDC"/>
<path fill-rule="evenodd" clip-rule="evenodd" d="M19.4525 14.7293C20.3874 14.1787 20.7683 12.957 20.197 12.0278C19.643 11.0986 18.4137 10.7201 17.4788 11.2879C16.5438 11.8385 16.1629 13.0602 16.7343 13.9894C17.2883 14.9186 18.5176 15.2972 19.4525 14.7293Z" fill="#249EDC"/>
<path fill-rule="evenodd" clip-rule="evenodd" d="M30.8967 34.2938C29.9618 34.8445 29.5809 36.0662 30.1523 36.9954C30.7063 37.9246 31.9356 38.3031 32.8705 37.7353C33.8054 37.1846 34.1863 35.9629 33.615 35.0338C33.0609 34.1046 31.8317 33.726 30.8967 34.2938Z" fill="#249EDC"/>
<path fill-rule="evenodd" clip-rule="evenodd" d="M26.3952 36.8233C25.4603 37.3739 25.0794 38.5956 25.6507 39.5248C26.2048 40.454 27.434 40.8326 28.369 40.2647C29.3039 39.7141 29.6848 38.4924 29.1135 37.5632C28.5594 36.634 27.3302 36.2555 26.3952 36.8233Z" fill="#249EDC"/>
</svg>
