<svg width="160" height="80" viewBox="0 0 160 80" fill="none" xmlns="http://www.w3.org/2000/svg">
<path d="M72.2222 49.4102H69.3086V63.8342H72.2222V49.4102Z" fill="#231815"/>
<path d="M82.2677 51.1929C83.7149 51.1929 84.6254 51.5379 85.143 51.835L85.3442 51.95L86.0343 49.6115L85.9001 49.5444C85.2101 49.1994 83.8491 48.7969 82.2773 48.7969C79.9963 48.7969 78.0603 49.5444 76.6515 50.9629C75.2905 52.3334 74.543 54.279 74.543 56.445C74.543 58.611 75.2234 60.4607 76.5077 61.7833C77.8016 63.1251 79.6034 63.8247 81.731 63.8247C83.552 63.8247 85.095 63.3551 85.8522 62.9622L85.9768 62.8951L85.4592 60.6332L85.258 60.7195C84.5104 61.0453 83.5903 61.3999 82.1911 61.3999C79.3829 61.3999 77.4949 59.3585 77.4949 56.3204C77.4949 54.8828 77.9357 53.5889 78.7216 52.6784C79.565 51.7104 80.7918 51.1929 82.2677 51.1929Z" fill="#231815"/>
<path d="M93.5669 50.9623C94.5253 50.9623 95.3016 51.2594 95.8766 51.8345C96.7871 52.7546 96.9213 54.1443 96.9309 54.748H89.8578C90.0783 53.2529 91.0846 50.9623 93.5669 50.9623ZM98.541 51.1924C97.4963 49.611 95.8479 48.7676 93.7681 48.7676C91.7459 48.7676 90.0303 49.5535 88.794 51.0294C87.6343 52.4287 86.9922 54.3743 86.9922 56.5307C86.9922 58.6871 87.6439 60.5081 88.8803 61.8019C90.1358 63.1245 91.9376 63.8242 94.094 63.8242C96.3463 63.8242 97.918 63.3258 98.8477 62.9041L98.9819 62.8466L98.4643 60.6614L98.2631 60.7477C97.3909 61.1215 96.3271 61.4569 94.439 61.4569C93.126 61.4569 92.0142 61.0735 91.2092 60.3643C90.337 59.5784 89.8578 58.4283 89.8003 56.9428H99.6528L99.6815 56.6649C99.7103 56.3965 99.7582 56.0323 99.7582 55.5723C99.7582 54.8056 99.6432 52.8504 98.541 51.1924Z" fill="#231815"/>
<path d="M52.0098 16.0098V63.9302H61.5076V59.8186H56.1213V20.1309H95.9145V41.9155H99.9302V16.0098H52.0098Z" fill="#7ACDF3"/>
<path d="M103.506 49.4199C104.282 49.4199 104.943 50.0237 104.943 50.8384C104.943 51.6626 104.282 52.2664 103.506 52.2664C102.72 52.2664 102.059 51.6626 102.059 50.8384C102.059 50.0237 102.729 49.4199 103.506 49.4199ZM103.506 49.6595C102.844 49.6595 102.337 50.1675 102.337 50.8479C102.337 51.5476 102.844 52.046 103.506 52.046C104.158 52.046 104.665 51.5476 104.665 50.8479C104.675 50.1675 104.158 49.6595 103.506 49.6595ZM103.209 51.6722H102.96V50.0237H103.592C103.985 50.0237 104.177 50.1675 104.177 50.4933C104.177 50.7904 103.995 50.915 103.745 50.9438L104.215 51.6626H103.937L103.496 50.9438H103.209V51.6722ZM103.209 50.7521H103.506C103.812 50.7521 103.908 50.6658 103.908 50.4838C103.908 50.3304 103.832 50.2346 103.544 50.2346H103.199V50.7521H103.209Z" fill="#231815"/>
</svg>
