<svg width="160" height="80" viewBox="0 0 160 80" fill="none" xmlns="http://www.w3.org/2000/svg">
<g clip-path="url(#clip0_18899_124)">
<path d="M120.045 47.7567C119.796 47.7567 119.625 47.5843 119.625 47.3362V35.0143H115.439C115.19 35.0143 115.018 34.8425 115.018 34.5942V32.8945C115.018 32.6456 115.19 32.4734 115.439 32.4734H126.581C126.829 32.4734 127.001 32.6458 127.001 32.8945V34.5941C127.001 34.8423 126.829 35.0143 126.581 35.0143H122.395V47.336C122.395 47.5843 122.223 47.7567 121.975 47.7567H120.045ZM87.9807 41.6049L85.7834 35.3012L83.5664 41.6049H87.9807ZM92.8541 47.2588C92.9501 47.5078 92.7969 47.7567 92.5293 47.7567H90.5421C90.2553 47.7567 90.0831 47.6234 89.9873 47.3547L88.8602 44.1082H82.688L81.5589 47.3547C81.4641 47.6235 81.2915 47.7567 81.0054 47.7567H79.1331C78.8843 47.7567 78.712 47.5077 78.8077 47.2588L83.9866 32.8563C84.0825 32.588 84.2544 32.4741 84.5405 32.4741H87.1014C87.3883 32.4741 87.5795 32.5881 87.675 32.8563L92.8541 47.2588ZM107.699 45.6931C108.921 45.6931 109.744 45.1019 110.413 44.0889L107.317 40.7645C106.132 41.4337 105.367 42.1014 105.367 43.439C105.367 44.7574 106.437 45.6931 107.699 45.6931ZM108.559 34.4983C107.565 34.4983 106.992 35.1294 106.992 35.9698C106.992 36.6192 107.335 37.1924 108.119 38.0332C109.476 37.2494 110.049 36.7721 110.049 35.9317C110.049 35.1479 109.553 34.4983 108.559 34.4983ZM117.026 47.2217C117.274 47.4894 117.121 47.7567 116.814 47.7567H114.387C114.063 47.7567 113.891 47.6799 113.681 47.4313L112.228 45.8273C111.254 47.1264 109.896 48.1005 107.641 48.1005C104.851 48.1005 102.653 46.4195 102.653 43.5354C102.653 41.3186 103.838 40.1339 105.635 39.1408C104.755 38.1284 104.355 37.0585 104.355 36.1229C104.355 33.7534 106.017 32.1299 108.52 32.1299C111.081 32.1299 112.648 33.6396 112.648 35.8743C112.648 37.7846 111.273 38.8535 109.82 39.6564L111.961 41.9687L113.164 39.8665C113.317 39.6186 113.489 39.5227 113.795 39.5227H115.648C115.954 39.5227 116.126 39.7334 115.936 40.058L113.795 43.7253L117.026 47.2217ZM97.9534 47.7567C98.2018 47.7567 98.3747 47.5843 98.3747 47.3362V35.0143H102.559C102.808 35.0143 102.98 34.8425 102.98 34.5942V32.8945C102.98 32.6456 102.808 32.4734 102.559 32.4734H91.4173C91.1685 32.4734 90.9969 32.6458 90.9969 32.8945V34.5941C90.9969 34.8423 91.1686 35.0143 91.4173 35.0143H95.6019V47.336C95.6019 47.5843 95.7745 47.7567 96.0227 47.7567H97.9534Z" fill="black"/>
<path d="M41.394 55.1882C44.6351 57.6971 48.7031 59.2045 53.1168 59.2045C57.9467 59.2045 62.3499 57.4113 65.7104 54.4677C65.7512 54.4317 65.7311 54.4079 65.6909 54.4317C64.183 55.4388 59.8851 57.6372 53.1169 57.6372C47.2351 57.6372 43.5181 56.3249 41.419 55.1532C41.3788 55.1334 41.3639 55.1635 41.394 55.1882ZM54.4144 56.165C59.1188 56.165 64.2883 54.8826 67.3801 52.3441C68.2262 51.6525 69.0321 50.7319 69.7539 49.4948C70.1694 48.783 70.5758 47.9373 70.9067 47.106C70.9214 47.0655 70.8964 47.0457 70.8659 47.0913C67.9908 51.3224 59.6649 53.9615 51.068 53.9615C44.9915 53.9615 38.4531 52.0183 35.8933 48.308C35.8682 48.2737 35.843 48.2884 35.8583 48.3278C38.2429 53.3962 45.4773 56.165 54.4144 56.165ZM49.2745 47.7567C39.4903 47.7567 34.8769 43.1998 34.04 40.0901C34.0297 40.0451 34 40.0549 34 40.0954C34 41.1423 34.1048 42.4933 34.2851 43.39C34.3711 43.8266 34.7263 44.5116 35.2472 45.0576C37.6164 47.5272 43.5231 50.9875 53.7526 50.9875C67.6899 50.9875 70.8766 46.3449 71.5274 44.8181C71.9927 43.7262 72.2338 41.753 72.2338 40.0955C72.2338 39.6944 72.2237 39.374 72.2086 39.0594C72.2086 39.0084 72.179 39.0042 72.1688 39.054C71.4723 42.7898 59.5645 47.7567 49.2745 47.7567ZM35.843 31.8975C35.2823 33.0102 34.6609 34.8873 34.4761 35.8588C34.3951 36.275 34.4296 36.4749 34.5756 36.7855C35.7483 39.2737 41.68 43.2547 55.5164 43.2547C63.9577 43.2547 70.515 41.1809 71.5774 37.3965C71.773 36.6998 71.7835 35.9643 71.5322 34.9732C71.2514 33.8656 70.7255 32.5741 70.2805 31.6672C70.2658 31.6377 70.2398 31.642 70.2451 31.677C70.4104 36.6406 56.5686 39.8396 49.5845 39.8396C42.0196 39.8396 35.7083 36.8255 35.7083 33.0197C35.7083 32.654 35.784 32.2882 35.8785 31.9076C35.888 31.8728 35.8582 31.867 35.843 31.8975ZM65.7414 25.8033C65.8217 25.9292 65.8618 26.0635 65.8618 26.2444C65.8618 28.3675 59.3637 32.1236 49.0195 32.1236C41.419 32.1236 39.996 29.304 39.996 27.5109C39.996 26.8699 40.2418 26.2141 40.7832 25.548C40.8128 25.5084 40.7877 25.4931 40.7535 25.5226C39.7661 26.3594 38.8589 27.3009 38.063 28.3173C37.6828 28.798 37.4467 29.2239 37.4467 29.479C37.4467 33.1949 46.7643 35.8892 55.4766 35.8892C64.7596 35.8892 68.9026 32.8587 68.9026 30.1955C68.9026 29.2437 68.5321 28.6881 67.5843 27.6109C66.9691 26.9102 66.3871 26.3396 65.7712 25.7779C65.7414 25.7534 65.7207 25.7734 65.7414 25.8033ZM62.8955 23.6806C60.0306 21.9633 56.7036 20.9863 53.1169 20.9863C49.5052 20.9863 46.0781 21.9974 43.2028 23.7602C42.3404 24.291 41.8549 24.7163 41.8549 25.2631C41.8549 26.8749 45.6218 28.608 52.3048 28.608C58.9184 28.608 64.048 26.7097 64.048 24.8825C64.048 24.4463 63.6668 24.1412 62.8955 23.6806Z" fill="#00A8E0"/>
</g>
<defs>
<clipPath id="clip0_18899_124">
<rect width="93" height="38.2203" fill="white" transform="translate(34 20.9863)"/>
</clipPath>
</defs>
</svg>
