<svg width="160" height="80" viewBox="0 0 160 80" fill="none" xmlns="http://www.w3.org/2000/svg">
<g clip-path="url(#clip0_18899_144)">
<path d="M38.6872 29.5445C37.4352 28.9813 36.6702 28.6127 36.3922 28.4387C36.0578 28.2234 35.8907 27.9453 35.8907 27.6045C35.8907 26.6934 36.7191 26.2378 38.3758 26.2378C39.5527 26.2378 40.827 26.5117 42.1986 27.0594V24.2532C40.3543 23.8943 38.9449 23.7148 37.9704 23.7148C36.203 23.7148 34.7694 24.0938 33.6694 24.8517C32.5565 25.6167 32 26.7296 32 28.1904C32 29.3247 32.3822 30.2636 33.1465 31.0073C33.7363 31.5712 35.0034 32.2528 36.948 33.0521C38.0311 33.4976 38.7046 33.8455 38.9685 34.0958C39.0923 34.2052 39.191 34.3401 39.2576 34.4914C39.3243 34.6426 39.3574 34.8065 39.3545 34.9717C39.3545 35.9042 38.4722 36.3704 36.7074 36.3704C35.4289 36.3704 33.9597 36.1092 32.2997 35.5867V38.5035C33.8012 38.8577 35.3384 39.038 36.881 39.0408C38.6762 39.0408 40.1377 38.7004 41.2654 38.0194C42.6571 37.1781 43.3529 35.9572 43.3529 34.3567C43.3529 33.2432 42.9979 32.3352 42.2878 31.633C41.6903 31.0413 40.4901 30.3451 38.6872 29.5445ZM45.6828 38.7421H49.8092V23.9719H45.6828V38.7421ZM57.5711 32.4157H63.3213V29.9781H57.5711V26.6433H64.1768V23.9719H53.5941V38.7421H64.3476V35.9204H57.5711V32.4157ZM76.1078 33.409L72.3908 23.9719H67.0413V38.7421H69.9483V28.2845L74.1969 38.8924H76.7548L81.0878 28.2845V38.7421H84.9998V23.9719H79.918L76.1078 33.409ZM92.7627 32.4157H98.5129V29.9781H92.7627V26.6433H99.3684V23.9719H88.7857V38.7421H99.5382V35.9204H92.7627V32.4157ZM112.11 33.8591L107.037 23.9719H102.254V38.7421H105.162V28.721L110.37 38.7421H115.017V23.9719H112.11V33.8591ZM124.334 29.5445C123.083 28.9813 122.318 28.6127 122.039 28.4387C121.705 28.2234 121.538 27.9453 121.538 27.6045C121.538 26.6934 122.366 26.2378 124.023 26.2378C125.2 26.2378 126.474 26.5117 127.846 27.0594V24.2532C126.001 23.8943 124.592 23.7148 123.617 23.7148C121.85 23.7148 120.416 24.0938 119.316 24.8517C118.204 25.6167 117.647 26.7296 117.647 28.1904C117.647 29.3247 118.029 30.2636 118.794 31.0073C119.383 31.5712 120.651 32.2528 122.595 33.0521C123.679 33.4976 124.352 33.8455 124.616 34.0958C124.739 34.2052 124.838 34.3401 124.905 34.4914C124.971 34.6426 125.004 34.8065 125.002 34.9717C125.002 35.9042 124.119 36.3704 122.355 36.3704C121.076 36.3704 119.607 36.1092 117.947 35.5867V38.5035C119.448 38.8577 120.986 39.038 122.528 39.0408C124.323 39.0408 125.785 38.7004 126.913 38.0194C128.304 37.1781 129 35.9572 129 34.3567C129 33.2432 128.645 32.3352 127.935 31.633C127.337 31.0413 126.137 30.3451 124.334 29.5445Z" fill="#009999"/>
<path d="M44.0183 42.0724C42.7282 41.9997 41.4187 41.9512 40.0995 41.9512C38.7803 41.9512 37.4708 41.9997 36.1807 42.0724C35.0552 42.1319 33.995 42.6197 33.2176 43.4358C32.4403 44.252 32.0046 45.3346 32 46.4617V52.4757C32.0046 53.6028 32.4403 54.6854 33.2176 55.5015C33.995 56.3177 35.0552 56.8055 36.1807 56.8649C37.4708 56.9377 38.7803 56.9862 40.0995 56.9862C41.4187 56.9862 42.7282 56.9377 44.0183 56.8649C45.1438 56.8055 46.204 56.3177 46.9814 55.5015C47.7587 54.6854 48.1944 53.6028 48.199 52.4757V52.1362H46.3075V52.4757C46.3036 53.1142 46.0568 53.7272 45.6172 54.1903C45.1776 54.6533 44.5781 54.9316 43.9407 54.9686C42.67 55.0462 41.3896 55.0947 40.0995 55.0947C38.8094 55.0947 37.529 55.0462 36.2583 54.9686C35.6209 54.9316 35.0214 54.6533 34.5818 54.1903C34.1422 53.7272 33.8954 53.1142 33.8915 52.4757V46.4617C33.8954 45.8232 34.1422 45.2101 34.5818 44.7471C35.0214 44.284 35.6209 44.0057 36.2583 43.9688C37.529 43.8912 38.8094 43.8427 40.0995 43.8427C41.3896 43.8427 42.67 43.8912 43.9407 43.9688C44.5781 44.0057 45.1776 44.284 45.6172 44.7471C46.0568 45.2101 46.3036 45.8232 46.3075 46.4617V48.4987H38.499V50.4387H48.199V46.4617C48.1944 45.3346 47.7587 44.252 46.9814 43.4358C46.204 42.6197 45.1438 42.1319 44.0183 42.0724ZM61.0078 42.0967C59.9651 42.0094 58.8981 41.9512 57.836 41.9512C56.7738 41.9512 55.7068 42.0094 54.665 42.0967C53.5746 42.1975 52.5606 42.7001 51.8201 43.5068C51.0795 44.3135 50.6653 45.3666 50.658 46.4617V56.8407H52.5495V46.4617C52.5534 45.8244 52.7985 45.2123 53.2355 44.7484C53.6724 44.2845 54.2687 44.0032 54.9046 43.961C55.8688 43.8941 56.8466 43.8427 57.836 43.8427C58.8254 43.8427 59.8041 43.8912 60.7683 43.961C61.404 44.0034 62.0001 44.2848 62.4368 44.7487C62.8735 45.2126 63.1185 45.8246 63.1225 46.4617V56.8407H65.014V46.4617C65.0066 45.3668 64.5925 44.3137 63.8522 43.5071C63.1118 42.7004 62.0981 42.1977 61.0078 42.0967ZM79.433 42.0724C78.1429 41.9997 76.8334 41.9512 75.5142 41.9512C74.195 41.9512 72.8855 41.9997 71.5954 42.0724C70.4699 42.1319 69.4097 42.6197 68.6323 43.4358C67.855 44.252 67.4193 45.3346 67.4147 46.4617V52.4757C67.4193 53.6028 67.855 54.6854 68.6323 55.5015C69.4097 56.3177 70.4699 56.8055 71.5954 56.8649C72.8855 56.9377 74.195 56.9862 75.5142 56.9862C76.8334 56.9862 78.1429 56.9377 79.433 56.8649C80.5585 56.8055 81.6187 56.3177 82.3961 55.5015C83.1734 54.6854 83.6091 53.6028 83.6137 52.4757V52.1362H81.7222V52.4757C81.7183 53.1142 81.4715 53.7272 81.0319 54.1903C80.5923 54.6533 79.9928 54.9316 79.3554 54.9686C78.0847 55.0462 76.8043 55.0947 75.5142 55.0947C74.2241 55.0947 72.9437 55.0462 71.673 54.9686C71.0356 54.9316 70.4361 54.6533 69.9965 54.1903C69.5569 53.7272 69.3101 53.1142 69.3062 52.4757V46.4617C69.3101 45.8232 69.5569 45.2101 69.9965 44.7471C70.4361 44.284 71.0356 44.0057 71.673 43.9688C72.9437 43.8912 74.2241 43.8427 75.5142 43.8427C76.8043 43.8427 78.0847 43.8912 79.3554 43.9688C79.9928 44.0057 80.5923 44.284 81.0319 44.7471C81.4715 45.2101 81.7183 45.8232 81.7222 46.4617V48.4987H73.9137V50.4387H83.6137V46.4617C83.6091 45.3346 83.1734 44.252 82.3961 43.4358C81.6187 42.6197 80.5585 42.1319 79.433 42.0724ZM86.2802 46.4607V56.8397H88.1717V46.4607C88.1717 45.1347 89.2601 43.9872 90.5744 43.9872H94.4282V42.0947H90.5085C88.4482 42.0967 86.2802 43.8834 86.2802 46.4607ZM107.806 42.0724C106.515 41.9997 105.206 41.9512 103.887 41.9512C102.567 41.9512 101.258 41.9997 99.9679 42.0724C98.8424 42.1319 97.7822 42.6197 97.0049 43.4358C96.2275 44.252 95.7918 45.3346 95.7872 46.4617V52.4757C95.7918 53.6028 96.2275 54.6854 97.0049 55.5015C97.7822 56.3177 98.8424 56.8055 99.9679 56.8649C101.258 56.9377 102.567 56.9862 103.887 56.9862C105.206 56.9862 106.515 56.9377 107.806 56.8649C108.931 56.8055 109.991 56.3177 110.769 55.5015C111.546 54.6854 111.982 53.6028 111.986 52.4757V48.4987H102.286V50.4387H110.095V52.4757C110.091 53.1142 109.844 53.7272 109.404 54.1903C108.965 54.6533 108.365 54.9316 107.728 54.9686C106.457 55.0462 105.177 55.0947 103.887 55.0947C102.597 55.0947 101.316 55.0462 100.046 54.9686C99.4081 54.9316 98.8086 54.6533 98.369 54.1903C97.9294 53.7272 97.6826 53.1142 97.6787 52.4757V46.4617C97.6826 45.8232 97.9294 45.2101 98.369 44.7471C98.8086 44.284 99.4081 44.0057 100.046 43.9688C101.316 43.8912 102.597 43.8427 103.887 43.8427C105.177 43.8427 106.457 43.8912 107.728 43.9688C108.365 44.0057 108.965 44.284 109.404 44.7471C109.844 45.2101 110.091 45.8232 110.095 46.4617V46.8012H111.986V46.4617C111.982 45.3346 111.546 44.252 110.769 43.4358C109.991 42.6197 108.931 42.1319 107.806 42.0724ZM129 42.0967H126.631L120.205 50.623C119.633 51.3798 119.324 52.303 119.326 53.2517V56.8407H121.218V53.2517C121.217 52.7135 121.392 52.1898 121.717 51.7608L129 42.0967ZM114.67 42.0967H112.201L118.938 50.1254L120.106 48.5743L114.67 42.0967Z" fill="#641E8C"/>
</g>
<defs>
<clipPath id="clip0_18899_144">
<rect width="97" height="33.271" fill="white" transform="translate(32 23.7148)"/>
</clipPath>
</defs>
</svg>
