<svg width="160" height="80" viewBox="0 0 160 80" fill="none" xmlns="http://www.w3.org/2000/svg">
<g clip-path="url(#clip0_18899_153)">
<path d="M30.046 36.1387C31.2849 31.6092 36.4449 30.5312 41.1957 30.398C45.1011 30.2886 49.4556 30.805 49.4556 30.805L47.4096 38.2855C47.4096 38.2855 43.055 37.7691 39.1496 37.8786C34.3989 38.0118 29.2389 39.0898 28 43.6193L30.046 36.1387Z" fill="#0190FF"/>
<path d="M95.7856 28.1748C89.5313 28.1748 87.9291 34.2278 87.0325 37.5061L80.3516 61.9274H84.2493L90.1726 40.2732H94.2209L91.5259 50.1266H95.4237L98.6557 38.31H90.7099C91.117 36.8206 91.5512 35.2339 91.9051 33.9402C92.5586 31.5509 93.6261 29.8157 95.1786 29.8741C96.8944 29.9386 96.0212 31.0652 95.7862 31.9243C95.4612 33.1127 96.3388 34.3077 97.8764 34.3077C101.216 34.3077 102.04 28.1748 95.7856 28.1748ZM73.6753 32.448V32.4482L68.84 50.1266H72.9034L74.6939 43.5801H78.2235C82.1182 43.5801 84.7028 41.4306 85.4017 38.4427C86.0542 35.6529 84.4248 32.448 80.0606 32.448C77.9321 32.4481 75.804 32.448 73.6753 32.448ZM77.1698 34.5283H78.7321C80.3678 34.5283 81.6656 35.8377 81.3522 38.1164C81.0617 40.2287 78.768 41.4948 76.7681 41.4948H75.2642L77.1698 34.5283ZM115.702 37.9521C112.286 37.9521 109.821 40.8914 109.23 43.8288C108.661 46.6515 110.28 50.4026 114.737 50.4026C117.904 50.4026 119.497 49.0079 119.497 49.0079L118.768 47.2083C118.768 47.2083 117.437 48.2922 115.581 48.2922C113.726 48.2922 112.562 46.8275 112.819 44.4935H120.396C120.938 43.119 121.234 37.9521 115.702 37.9521ZM130.806 38.1111C128.264 38.1111 126.766 40.7352 126.766 40.7352L127.429 38.3102H123.532L120.3 50.1266H124.197C124.197 50.1266 125.136 46.6742 125.614 44.9506C126.351 42.2564 127.855 40.5693 128.578 40.5002C129.414 40.4204 129.334 42.4339 130.963 42.4339C133.435 42.4339 133.969 38.1111 130.806 38.1111H130.806ZM100.124 38.3102L99.5872 40.2736H104.528L96.7608 50.1266H107.729L108.266 48.1632H102.692L110.459 38.3102H100.124ZM115.688 39.9032V39.9034C117.807 39.9034 117.325 42.7015 117.325 42.7015L113.079 42.6917C113.079 42.6917 113.784 39.9032 115.688 39.9032Z" fill="#2B01BE"/>
<path d="M59.6934 50.1538C45.7159 49.2822 29.4727 42.0724 30.0461 36.1387L28.1176 43.1895C27.5326 49.2435 42.6004 56.4313 57.6474 57.6344L59.6934 50.1538Z" fill="#2B01BE"/>
<path d="M64.773 40.4327C63.5341 44.9622 58.3741 46.0402 53.6234 46.1734C49.718 46.2829 45.3635 45.7665 45.3635 45.7665L47.4096 38.2859C47.4096 38.2859 51.764 38.8023 55.6695 38.6928C60.4202 38.5597 65.5802 37.4817 66.819 32.9521L64.773 40.4327Z" fill="#2B01BE"/>
<path d="M35.1256 26.4171C49.1032 27.2887 65.3464 34.4985 64.773 40.4322L66.7015 33.3814C67.2865 27.3273 52.2187 20.1396 37.1716 18.9365L35.1256 26.4171Z" fill="#0190FF"/>
</g>
<defs>
<clipPath id="clip0_18899_153">
<rect width="105" height="42.9906" fill="white" transform="translate(28 18.9365)"/>
</clipPath>
</defs>
</svg>
