<svg width="160" height="80" viewBox="0 0 160 80" fill="none" xmlns="http://www.w3.org/2000/svg">
<path d="M22.9289 39.6016H13.8516L22.9509 48.701V39.6016H22.9289Z" fill="#F23A1D"/>
<path d="M44.0673 48.7246H40.5556V38.8743L35.2771 44.1528L29.9986 38.8743V48.7246H26.4648V32.1602H28.3201L35.2992 39.1393L42.19 32.1602H44.0673V48.7246V48.7246ZM64.7839 48.6804H48.7053V32.1602H64.0992V35.5614H52.2391V38.2779H60.0354V41.5908H52.2391V45.3675H64.7839V48.6804ZM86.5164 48.6804H82.5851L78.2342 41.9442H72.4918V48.6804H69.0023V32.2485H80.0452C81.6796 32.2485 82.9385 32.646 83.9323 33.4191C85.0145 34.2804 85.5667 35.4951 85.5667 37.0853C85.5667 38.1675 85.2575 39.1172 84.6612 39.9786C84.0207 40.8399 83.2035 41.4141 82.1655 41.7896L86.5164 48.6804ZM81.9888 37.0853C81.9888 36.6436 81.8563 36.2681 81.547 36.0031C81.2378 35.7822 80.6857 35.6497 80.001 35.6497H72.4918V38.6755H80.001C80.7299 38.6755 81.2158 38.543 81.547 38.2779C81.8563 37.8362 81.9888 37.4829 81.9888 37.0853ZM107.542 48.6804H103.412L97.2943 40.4645L94.7986 42.5847V48.6804H91.2648V32.2485H94.7986V38.3884L102.087 32.2485H106.99L99.8342 38.3L107.542 48.6804ZM126.47 48.6804H111.628V32.1602H115.162V45.3675H126.47V48.6804ZM146.369 48.6804H130.291V32.1602H145.684V35.5614H133.78V38.2779H141.576V41.5908H133.78V45.3675H146.369V48.6804V48.6804Z" fill="#12295D"/>
</svg>
