<svg width="64" height="64" viewBox="0 0 64 64" fill="none" xmlns="http://www.w3.org/2000/svg">
<path d="M11.1611 35.9649C10.3847 35.9649 9.7546 36.595 9.7546 37.3714C9.7546 38.1478 10.3847 38.7779 11.1611 38.7779H51.9506C52.727 38.7779 53.3571 38.1478 53.3571 37.3714C53.3571 36.595 52.727 35.9649 51.9506 35.9649H11.1611Z" fill="#29B5E8"/>
<path d="M11.1611 40.6454C10.3847 40.6454 9.7546 41.2756 9.7546 42.052C9.7546 42.8284 10.3847 43.4585 11.1611 43.4585H51.9506C52.727 43.4585 53.3571 42.8284 53.3571 42.052C53.3571 41.2756 52.727 40.6454 51.9506 40.6454H11.1611Z" fill="#29B5E8"/>
<path d="M11.1611 45.3376C10.3847 45.3376 9.7546 45.9677 9.7546 46.7441C9.7546 47.5205 10.3847 48.1506 11.1611 48.1506H51.9506C52.727 48.1506 53.3571 47.5205 53.3571 46.7441C53.3571 45.9677 52.727 45.3376 51.9506 45.3376H11.1611Z" fill="#29B5E8"/>
<path d="M51.9392 31.2722H33.5305C32.7541 31.2722 32.124 31.9023 32.124 32.6788C32.124 33.4552 32.7541 34.0853 33.5305 34.0853H51.9392C52.7156 34.0853 53.3458 33.4552 53.3458 32.6788C53.3458 31.9023 52.7156 31.2722 51.9392 31.2722Z" fill="#29B5E8"/>
<path d="M9.34938 15.4855C10.1386 15.4855 10.7784 14.8457 10.7784 14.0564C10.7784 13.2672 10.1386 12.6274 9.34938 12.6274C8.56014 12.6274 7.92034 13.2672 7.92034 14.0564C7.92034 14.8457 8.56014 15.4855 9.34938 15.4855Z" fill="#29B5E8"/>
<path d="M15.0656 15.4855C15.8533 15.4855 16.4947 14.8441 16.4947 14.0564C16.4947 13.2688 15.8533 12.6274 15.0656 12.6274C14.278 12.6274 13.6366 13.2688 13.6366 14.0564C13.6366 14.8441 14.278 15.4855 15.0656 15.4855Z" fill="#29B5E8"/>
<path d="M20.7816 15.4855C21.5692 15.4855 22.2106 14.8441 22.2106 14.0564C22.2106 13.2688 21.5692 12.6274 20.7816 12.6274C19.9939 12.6274 19.3525 13.2688 19.3525 14.0564C19.3525 14.8441 19.9939 15.4855 20.7816 15.4855Z" fill="#29B5E8"/>
<path d="M60.2996 6.1123H2.8005C1.56275 6.1123 0.550049 7.12501 0.550049 8.36276V55.7573C0.550049 56.9951 1.56275 58.0078 2.8005 58.0078H60.2996C61.5373 58.0078 62.5501 56.9951 62.5501 55.7573V8.36276C62.5501 7.12501 61.5373 6.1123 60.2996 6.1123ZM58.0491 10.6132V17.5784H5.05096V10.6132H58.0491ZM5.05096 53.5069V20.3914H58.0491V53.5069H5.05096Z" fill="#29B5E8"/>
<path d="M10.9133 34.0177H29.0295C29.8059 34.0177 30.436 33.3876 30.436 32.6112V24.4758C30.436 23.6994 29.8059 23.0693 29.0295 23.0693H10.9133C10.1369 23.0693 9.50681 23.6994 9.50681 24.4758V32.6112C9.50681 33.3876 10.1369 34.0177 10.9133 34.0177ZM12.3199 25.8711H27.623V31.1934H12.3199V25.8711Z" fill="#29B5E8"/>
</svg>
