<svg width="64" height="64" viewBox="0 0 64 64" fill="none" xmlns="http://www.w3.org/2000/svg">
<path d="M55.1648 50.0823H13.405V8.41429C13.405 7.40494 12.5792 6.5791 11.5698 6.5791C10.5605 6.5791 9.73465 7.40494 9.73465 8.41429V50.0823H8.41332C7.40396 50.0823 6.57812 50.9081 6.57812 51.9175C6.57812 52.9269 7.40396 53.7527 8.41332 53.7527H9.73465V55.074C9.73465 56.0834 10.5605 56.9092 11.5698 56.9092C12.5792 56.9092 13.405 56.0834 13.405 55.074V53.7527H55.1648C56.1742 53.7527 57 52.9269 57 51.9175C57 50.9081 56.1742 50.0823 55.1648 50.0823Z" fill="#FEFEFE"/>
<path d="M31.7394 28.6383H27.9038C27.3717 28.6383 26.9404 29.0696 26.9404 29.6018V45.7606C26.9404 46.2927 27.3717 46.7241 27.9038 46.7241H31.7394C32.2715 46.7241 32.7029 46.2927 32.7029 45.7606V29.6018C32.7029 29.0696 32.2715 28.6383 31.7394 28.6383Z" fill="#FEFEFE"/>
<path d="M22.3698 34.4008H18.5343C18.0022 34.4008 17.5708 34.8321 17.5708 35.3643V45.7514C17.5708 46.2836 18.0022 46.7149 18.5343 46.7149H22.3698C22.9019 46.7149 23.3333 46.2836 23.3333 45.7514V35.3643C23.3333 34.8321 22.9019 34.4008 22.3698 34.4008Z" fill="#FEFEFE"/>
<path d="M41.1089 34.4008H37.2734C36.7413 34.4008 36.3099 34.8321 36.3099 35.3643V45.7514C36.3099 46.2836 36.7413 46.7149 37.2734 46.7149H41.1089C41.6411 46.7149 42.0724 46.2836 42.0724 45.7514V35.3643C42.0724 34.8321 41.6411 34.4008 41.1089 34.4008Z" fill="#FEFEFE"/>
<path d="M50.4678 26.7115H46.6322C46.1001 26.7115 45.6688 27.1429 45.6688 27.675V45.7516C45.6688 46.2837 46.1001 46.7151 46.6322 46.7151H50.4678C50.9999 46.7151 51.4313 46.2837 51.4313 45.7516V27.675C51.4313 27.1429 50.9999 26.7115 50.4678 26.7115Z" fill="#FEFEFE"/>
<path d="M19.71 28.4544C19.9669 28.4544 20.2146 28.3718 20.4257 28.1974L30.3908 20.1501L38.0252 27.8029C38.4656 28.2433 39.1813 28.2525 39.631 27.8212L49.1831 18.6361C49.6419 18.1956 49.6511 17.4707 49.2198 17.0119C48.7794 16.5531 48.0545 16.544 47.5957 16.9752L38.851 25.3804L31.2808 17.7919C30.8679 17.379 30.2073 17.3423 29.7485 17.7093L18.9759 26.3989C18.4804 26.7935 18.407 27.5184 18.8015 28.0139C19.0309 28.2984 19.3613 28.436 19.6916 28.436L19.71 28.4544Z" fill="#FEFEFE"/>
</svg>
