<svg width="208" height="117" viewBox="0 0 208 117" fill="none" xmlns="http://www.w3.org/2000/svg">
<rect width="208" height="117" rx="8" fill="white"/>
<g clip-path="url(#clip0_16692_2039)">
<path d="M64.2493 68.336L53.1555 53.0195H49V75.8155H53.4381V60.4875L64.5319 75.8155H68.6874V53.0195H64.2493V68.336Z" fill="black"/>
<path d="M94.4011 53.0195H89.0189L83.1762 62.4395L77.1674 53.0195H71.5024L80.4719 66.5685V75.8155H85.2889V66.629L94.4011 53.0195Z" fill="black"/>
<path d="M107.019 62.4714L104.323 61.863C101.162 61.1624 100.491 60.6001 100.491 59.242C100.491 57.9301 101.861 56.7133 104.463 56.7133C106.768 56.6796 109.006 57.4793 110.758 58.9624L113.549 55.3091C110.947 53.2043 107.634 52.4546 104.653 52.4546C99.2588 52.4546 95.4734 55.5917 95.4734 59.7582C95.4734 63.0337 97.6998 65.1414 102.24 66.0295L104.892 66.5456C107.966 67.154 109.1 68.2756 109.1 69.5876C109.1 71.4128 107.541 72.2576 104.938 72.3037C102.429 72.3499 100.016 71.4618 97.8396 69.2618L94.9547 72.7218C97.1781 75.2505 101.106 76.375 104.795 76.375C110.425 76.375 113.928 73.6589 113.928 69.2589C113.928 65.4701 111.515 63.5037 107.019 62.4714Z" fill="black"/>
<path d="M121.723 66.4274C122.469 69.8586 125.136 72.1249 128.644 72.1249C131.194 72.1249 133.225 70.9571 134.688 68.9532L138.039 71.7587C136.963 73.2178 135.547 74.3989 133.912 75.2019C132.276 76.0049 130.47 76.4063 128.644 76.3721C121.327 76.3721 116.606 71.182 116.606 64.4119C116.606 57.6417 121.289 52.4517 127.994 52.4517C133.015 52.4517 139.884 55.9117 138.747 66.4216L121.723 66.4274ZM134.193 62.7366C133.68 58.0685 130.629 56.6614 128.554 56.6614C125.025 56.6614 122.469 58.8556 121.65 62.7366H134.193Z" fill="black"/>
<path d="M136.314 40.1683H152.047V55.7357H159V33.2915H136.314V40.1683Z" fill="#71C5E8"/>
</g>
<defs>
<clipPath id="clip0_16692_2039">
<rect width="110" height="50.4167" fill="white" transform="translate(49 33.2915)"/>
</clipPath>
</defs>
</svg>
