<svg width="64" height="64" viewBox="0 0 64 64" fill="none" xmlns="http://www.w3.org/2000/svg">
<path d="M38.9994 16.739C38.9994 16.1489 38.9994 16.0675 37.154 15.1924L36.1358 14.7041C34.2692 13.8087 32.6359 13.0353 32.6359 10.6137C32.6359 8.70082 33.9298 7.27634 35.8813 6.80829V5.42445C35.8813 4.65116 36.5388 4 37.3661 4C38.1933 4 38.8509 4.63081 38.8509 5.42445V6.8286C40.7175 7.33735 41.9266 8.7415 41.9266 10.5933C41.9478 11.3666 41.3114 12.0178 40.4842 12.0585C39.6781 12.0789 38.9994 11.4684 38.9569 10.6748C38.9569 10.6544 38.9569 10.6137 38.9569 10.5933C38.9569 9.63689 38.0448 9.43338 37.3024 9.43338C36.6661 9.43338 35.5843 9.57584 35.5843 10.5933C35.5843 11.1835 35.5843 11.2649 37.4297 12.1399L38.4479 12.6283C40.3145 13.5237 41.9478 14.2767 41.9478 16.7187C41.9478 18.5095 40.8024 19.8933 39.0418 20.4224V21.1346C39.063 21.9078 38.4267 22.559 37.5994 22.5997C36.7934 22.6201 36.1146 22.0096 36.0722 21.216C36.0722 21.1956 36.0722 21.1549 36.0722 21.1346V20.5445C33.9934 20.1375 32.6146 18.6722 32.6146 16.6983C32.5934 15.925 33.2298 15.2738 34.057 15.2331C34.8631 15.2128 35.5419 15.8232 35.5843 16.6169C35.5843 16.6372 35.5843 16.6779 35.5843 16.6983C35.5843 17.6751 36.6661 17.8379 37.3024 17.8379C37.9388 17.8379 38.9994 17.6955 38.9994 16.7187V16.739ZM60.6142 24.879C60.19 24.2685 59.4687 23.9225 58.7051 23.9225H21.3724C20.0997 23.9225 19.0603 24.9197 19.0603 26.1407C19.0603 27.3617 20.0997 28.3588 21.3724 28.3588H55.3324L49.075 44.0282H25.2118L15.2846 19.527C14.9452 18.6723 14.0756 18.1228 13.1423 18.1228H6.31207C5.03937 18.1228 4 19.1199 4 20.3409V23.8818C4 25.1028 5.03937 26.0999 6.31207 26.0999C7.58478 26.0999 8.62415 25.1028 8.62415 23.8818V22.5591H11.5725L21.4997 47.0806C21.8391 47.9353 22.6875 48.4848 23.642 48.4848H50.6659C51.6204 48.4848 52.4688 47.915 52.8082 47.0603L60.8475 26.975C61.1232 26.3035 61.0172 25.5302 60.593 24.9197L60.6142 24.879ZM36.0297 55.2816C36.0297 58.4359 33.357 60.9796 30.0904 60.9796C26.8238 60.9796 24.1512 58.4155 24.1512 55.2816C24.1512 52.1477 26.8238 49.5837 30.0904 49.5837C33.3783 49.5837 36.0297 52.1477 36.0297 55.2816ZM33.0813 55.2816C33.0813 53.6943 31.7449 52.4124 30.0692 52.4124C28.4147 52.4124 27.0784 53.6944 27.0784 55.302C27.0784 56.8893 28.4147 58.1713 30.0904 58.1713C31.745 58.1713 33.0813 56.8689 33.0813 55.2816ZM50.2416 55.2816C50.2416 58.4359 47.5902 61 44.3023 61C41.0145 61 38.3418 58.4562 38.3418 55.302C38.3418 52.1478 40.9933 49.5837 44.2811 49.5837C47.5689 49.5837 50.2204 52.1274 50.2416 55.2816ZM47.2932 55.2816C47.2932 53.6943 45.9568 52.392 44.2811 52.392C42.6266 52.392 41.269 53.674 41.269 55.2816C41.269 56.8689 42.6054 58.1713 44.2811 58.1713C45.9356 58.1713 47.272 56.8689 47.272 55.2816H47.2932ZM27.4602 39.5309C26.9511 39.5309 26.5269 39.9175 26.5269 40.4263C26.5269 40.935 26.9299 41.3216 27.4602 41.3216H46.4872C46.9962 41.3216 47.4205 40.935 47.4205 40.4263C47.4205 39.9175 47.0174 39.5309 46.4872 39.5309H27.4602ZM49.075 35.9696C49.075 35.4812 48.672 35.0742 48.1417 35.0742H25.6572C25.1481 35.0742 24.7239 35.4609 24.7239 35.9696C24.7239 36.4784 25.1269 36.865 25.6572 36.865H48.1628C48.6719 36.865 49.0749 36.4784 49.0962 35.99L49.075 35.9696ZM50.9416 31.5334C50.9416 31.045 50.5386 30.638 50.0083 30.638H23.8542C23.3451 30.638 22.9421 31.045 22.9421 31.5334C22.9421 32.0218 23.3451 32.4084 23.8542 32.4084H50.0083C50.5174 32.4084 50.9416 32.0217 50.9416 31.513V31.5334Z" fill="#29B5E8"/>
</svg>
