<?xml version="1.0" encoding="UTF-8" standalone="no"?>
<svg
   version="1.1"
   id="Layer_1"
   x="0px"
   y="0px"
   width="601"
   height="160"
   viewBox="0 0 601.00002 160.00001"
   enable-background="new 0 0 620.787 793.701"
   xml:space="preserve"
   sodipodi:docname="customerlogo-nec-clr.svg"
   inkscape:version="1.1.1 (3bf5ae0d25, 2021-09-20)"
   xmlns:inkscape="http://www.inkscape.org/namespaces/inkscape"
   xmlns:sodipodi="http://sodipodi.sourceforge.net/DTD/sodipodi-0.dtd"
   xmlns="http://www.w3.org/2000/svg"
   xmlns:svg="http://www.w3.org/2000/svg"><defs
   id="defs838" /><sodipodi:namedview
   id="namedview836"
   pagecolor="#ffffff"
   bordercolor="#666666"
   borderopacity="1.0"
   inkscape:pageshadow="2"
   inkscape:pageopacity="0.0"
   inkscape:pagecheckerboard="0"
   showgrid="false"
   inkscape:zoom="0.89655803"
   inkscape:cx="397.07413"
   inkscape:cy="105.96079"
   inkscape:window-width="1920"
   inkscape:window-height="986"
   inkscape:window-x="-11"
   inkscape:window-y="1609"
   inkscape:window-maximized="1"
   inkscape:current-layer="Layer_1" />
<path
   style="fill:#1613a1;stroke-width:7.80553;fill-opacity:1"
   id="path547"
   d="M -4.9127999e-5,4.8707604 H 48.222485 c 11.060429,0 24.056629,10.2876816 29.934189,16.0013266 L 162.86223,114.80378 V 4.8707604 h 28.75556 V 154.86954 h -50.38467 c -8.94513,-0.20295 -17.81221,-2.14652 -28.1155,-12.21565 L 28.638423,48.519257 V 154.88515 H 0.0077564 V 4.8707604 Z"
   clip-path="url(#SVGID_92_)" /><path
   style="fill:#1613a1;stroke-width:7.80553;fill-opacity:1"
   id="path549"
   d="m 600.03408,155.89987 c -34.49261,4.75356 -69.28964,5.19067 -104.30523,2.25579 -20.4817,-1.71721 -40.47165,-6.01025 -58.90049,-15.57202 -23.12777,-12.0127 -30.47277,-39.02762 -30.19958,-63.560391 0.24978,-22.628217 7.00156,-46.669235 27.1164,-59.821545 13.21475,-8.625105 27.31153,-11.5833988 42.39961,-14.2450828 40.94778,-7.2044997 81.87996,-5.5965615 121.89108,-1.2410785 V 25.08707 c -47.15318,-9.101242 -96.87437,-6.83764 -113.81236,14.807082 -10.54527,13.433308 -11.99709,26.8432 -11.99709,38.12999 0,20.356809 6.91569,51.149608 48.1757,57.191088 27.02272,3.9652 53.62395,0.86641 79.63977,-3.75446 v 24.4391 z"
   clip-path="url(#SVGID_92_)" /><path
   style="fill:#1613a1;stroke-width:7.80553;fill-opacity:1"
   id="path551"
   d="m 304.96962,132.52232 c 4.0901,0.20294 69.09451,0.41369 91.37929,0 v 22.48772 c -44.94422,1.75624 -88.13219,2.46654 -133.43546,0.59322 -38.46562,-1.59233 -45.09251,-20.95003 -45.86526,-39.52718 V 4.8707604 H 394.15555 V 26.250094 H 279.6485 V 64.442528 H 383.99276 V 85.275475 H 279.6485 c -0.0546,11.286789 0.29661,24.048825 0.39028,26.351455 0.63224,14.57291 7.37622,19.99775 24.93084,20.89539"
   clip-path="url(#SVGID_92_)" />
</svg>
