<?xml version="1.0" encoding="UTF-8" standalone="no"?>
<!-- Created with Inkscape (http://www.inkscape.org/) -->

<svg
   width="403"
   height="160"
   viewBox="0 0 106.62708 42.333335"
   version="1.1"
   id="svg5"
   inkscape:version="1.1.1 (3bf5ae0d25, 2021-09-20)"
   sodipodi:docname="customerlogo-att-clr.svg"
   xmlns:inkscape="http://www.inkscape.org/namespaces/inkscape"
   xmlns:sodipodi="http://sodipodi.sourceforge.net/DTD/sodipodi-0.dtd"
   xmlns:xlink="http://www.w3.org/1999/xlink"
   xmlns="http://www.w3.org/2000/svg"
   xmlns:svg="http://www.w3.org/2000/svg">
  <sodipodi:namedview
     id="namedview7"
     pagecolor="#ffffff"
     bordercolor="#666666"
     borderopacity="1.0"
     inkscape:pageshadow="2"
     inkscape:pageopacity="0.0"
     inkscape:pagecheckerboard="0"
     inkscape:document-units="mm"
     showgrid="false"
     units="px"
     inkscape:zoom="0.98520767"
     inkscape:cx="217.21309"
     inkscape:cy="518.67237"
     inkscape:window-width="2880"
     inkscape:window-height="1526"
     inkscape:window-x="3"
     inkscape:window-y="-11"
     inkscape:window-maximized="1"
     inkscape:current-layer="g1048" />
  <defs
     id="defs2">
    <linearGradient
       inkscape:collect="always"
       id="linearGradient3170">
      <stop
         style="stop-color:#00a8e0;stop-opacity:1"
         offset="0"
         id="stop3172" />
      <stop
         style="stop-color:#1696d4;stop-opacity:1"
         offset="1"
         id="stop3174" />
    </linearGradient>
    <linearGradient
       inkscape:collect="always"
       id="linearGradient3160">
      <stop
         style="stop-color:white;stop-opacity:1"
         offset="0"
         id="stop3162" />
      <stop
         style="stop-color:#e6e6e6;stop-opacity:1"
         offset="1"
         id="stop3164" />
    </linearGradient>
    <radialGradient
       r="43.452892"
       fy="90.500206"
       fx="64.85778"
       cy="90.500206"
       cx="64.85778"
       gradientTransform="matrix(1.6122245e-5,2.3792062,-3.7830221,0,386.63937,-52.298135)"
       gradientUnits="userSpaceOnUse"
       id="radialGradient8019"
       xlink:href="#linearGradient8021"
       inkscape:collect="always" />
    <radialGradient
       r="43.452892"
       fy="90.500206"
       fx="64.85778"
       cy="90.500206"
       cx="64.85778"
       gradientTransform="matrix(1.6122245e-5,2.3792062,-3.7830221,0,386.63937,-52.298135)"
       gradientUnits="userSpaceOnUse"
       id="radialGradient8016"
       xlink:href="#linearGradient8021"
       inkscape:collect="always" />
    <radialGradient
       r="43.452892"
       fy="90.500206"
       fx="64.85778"
       cy="90.500206"
       cx="64.85778"
       gradientTransform="matrix(1.6122245e-5,2.3792062,-3.7830221,0,386.63937,-52.298135)"
       gradientUnits="userSpaceOnUse"
       id="radialGradient8013"
       xlink:href="#linearGradient8021"
       inkscape:collect="always" />
    <radialGradient
       r="43.452892"
       fy="90.500206"
       fx="64.85778"
       cy="90.500206"
       cx="64.85778"
       gradientTransform="matrix(1.6122245e-5,2.3792062,-3.7830221,0,386.63937,-52.298135)"
       gradientUnits="userSpaceOnUse"
       id="radialGradient8010"
       xlink:href="#linearGradient8021"
       inkscape:collect="always" />
    <radialGradient
       r="43.452892"
       fy="90.500206"
       fx="64.85778"
       cy="90.500206"
       cx="64.85778"
       gradientTransform="matrix(1.6122245e-5,2.3792062,-3.7830221,0,386.63937,-52.298135)"
       gradientUnits="userSpaceOnUse"
       id="radialGradient8007"
       xlink:href="#linearGradient8021"
       inkscape:collect="always" />
    <radialGradient
       r="43.452892"
       fy="90.500206"
       fx="64.85778"
       cy="90.500206"
       cx="64.85778"
       gradientTransform="matrix(1.6122245e-5,2.3792062,-3.7830221,0,386.63937,-52.298135)"
       gradientUnits="userSpaceOnUse"
       id="radialGradient8004"
       xlink:href="#linearGradient8021"
       inkscape:collect="always" />
    <radialGradient
       r="43.452892"
       fy="90.500206"
       fx="64.85778"
       cy="90.500206"
       cx="64.85778"
       gradientTransform="matrix(7.0055819e-6,1.0277524,-1.6438325,0,213.62451,23.838182)"
       gradientUnits="userSpaceOnUse"
       id="radialGradient8001"
       xlink:href="#linearGradient7907"
       inkscape:collect="always" />
    <radialGradient
       r="43.452892"
       fy="90.500206"
       fx="64.85778"
       cy="90.500206"
       cx="64.85778"
       gradientTransform="matrix(7.0055819e-6,1.0277524,-1.6438325,0,213.62451,23.838182)"
       gradientUnits="userSpaceOnUse"
       id="radialGradient7999"
       xlink:href="#linearGradient7843"
       inkscape:collect="always" />
    <radialGradient
       r="43.452892"
       fy="90.500206"
       fx="64.85778"
       cy="90.500206"
       cx="64.85778"
       gradientTransform="matrix(7.0055819e-6,1.0277524,-1.6438325,0,213.62451,23.838182)"
       gradientUnits="userSpaceOnUse"
       id="radialGradient7997"
       xlink:href="#linearGradient7843"
       inkscape:collect="always" />
    <radialGradient
       r="43.452892"
       fy="90.500206"
       fx="64.85778"
       cy="90.500206"
       cx="64.85778"
       gradientTransform="matrix(7.0055819e-6,1.0277524,-1.6438325,0,213.62451,23.838182)"
       gradientUnits="userSpaceOnUse"
       id="radialGradient7995"
       xlink:href="#linearGradient7843"
       inkscape:collect="always" />
    <radialGradient
       r="43.452892"
       fy="90.500206"
       fx="64.85778"
       cy="90.500206"
       cx="64.85778"
       gradientTransform="matrix(7.0055819e-6,1.0277524,-1.6438325,0,213.62451,23.838182)"
       gradientUnits="userSpaceOnUse"
       id="radialGradient7993"
       xlink:href="#linearGradient7843"
       inkscape:collect="always" />
    <radialGradient
       r="43.452892"
       fy="90.500206"
       fx="64.85778"
       cy="90.500206"
       cx="64.85778"
       gradientTransform="matrix(7.0055819e-6,1.0277524,-1.6438325,0,213.62451,23.838182)"
       gradientUnits="userSpaceOnUse"
       id="radialGradient7991"
       xlink:href="#linearGradient7843"
       inkscape:collect="always" />
    <radialGradient
       r="43.452892"
       fy="90.500206"
       fx="64.85778"
       cy="90.500206"
       cx="64.85778"
       gradientTransform="matrix(7.0055819e-6,1.0277524,-1.6438325,0,213.62451,23.838182)"
       gradientUnits="userSpaceOnUse"
       id="radialGradient7989"
       xlink:href="#linearGradient7843"
       inkscape:collect="always" />
    <radialGradient
       r="43.452892"
       fy="90.500206"
       fx="64.85778"
       cy="90.500206"
       cx="64.85778"
       gradientTransform="matrix(1.3481092e-5,2.4368839,-3.1632858,0,354.85678,-54.180142)"
       gradientUnits="userSpaceOnUse"
       id="radialGradient7875"
       xlink:href="#linearGradient7947"
       inkscape:collect="always" />
    <radialGradient
       r="43.452892"
       fy="90.500206"
       fx="64.85778"
       cy="90.500206"
       cx="64.85778"
       gradientTransform="matrix(7.0055819e-6,1.0277524,-1.6438325,0,213.62451,23.838182)"
       gradientUnits="userSpaceOnUse"
       id="radialGradient7865"
       xlink:href="#linearGradient7907"
       inkscape:collect="always" />
    <radialGradient
       r="43.452892"
       fy="90.500206"
       fx="64.85778"
       cy="90.500206"
       cx="64.85778"
       gradientTransform="matrix(7.0055819e-6,1.0277524,-1.6438325,0,213.62451,23.838182)"
       gradientUnits="userSpaceOnUse"
       id="radialGradient7863"
       xlink:href="#linearGradient7843"
       inkscape:collect="always" />
    <radialGradient
       r="43.452892"
       fy="90.500206"
       fx="64.85778"
       cy="90.500206"
       cx="64.85778"
       gradientTransform="matrix(7.0055819e-6,1.0277524,-1.6438325,0,213.62451,23.838182)"
       gradientUnits="userSpaceOnUse"
       id="radialGradient7861"
       xlink:href="#linearGradient7843"
       inkscape:collect="always" />
    <radialGradient
       r="43.452892"
       fy="90.500206"
       fx="64.85778"
       cy="90.500206"
       cx="64.85778"
       gradientTransform="matrix(7.0055819e-6,1.0277524,-1.6438325,0,213.62451,23.838182)"
       gradientUnits="userSpaceOnUse"
       id="radialGradient7859"
       xlink:href="#linearGradient7843"
       inkscape:collect="always" />
    <radialGradient
       r="43.452892"
       fy="90.500206"
       fx="64.85778"
       cy="90.500206"
       cx="64.85778"
       gradientTransform="matrix(7.0055819e-6,1.0277524,-1.6438325,0,213.62451,23.838182)"
       gradientUnits="userSpaceOnUse"
       id="radialGradient7857"
       xlink:href="#linearGradient7843"
       inkscape:collect="always" />
    <radialGradient
       r="43.452892"
       fy="90.500206"
       fx="64.85778"
       cy="90.500206"
       cx="64.85778"
       gradientTransform="matrix(7.0055819e-6,1.0277524,-1.6438325,0,213.62451,23.838182)"
       gradientUnits="userSpaceOnUse"
       id="radialGradient7855"
       xlink:href="#linearGradient7843"
       inkscape:collect="always" />
    <radialGradient
       r="43.452892"
       fy="90.500206"
       fx="64.85778"
       cy="90.500206"
       cx="64.85778"
       gradientTransform="matrix(7.0055819e-6,1.0277524,-1.6438325,0,213.62451,23.838182)"
       gradientUnits="userSpaceOnUse"
       id="radialGradient7853"
       xlink:href="#linearGradient7843"
       inkscape:collect="always" />
    <radialGradient
       r="43.452892"
       fy="90.500206"
       fx="64.85778"
       cy="90.500206"
       cx="64.85778"
       gradientTransform="matrix(7.0055819e-6,1.0277524,-1.6438325,0,213.62451,23.838182)"
       gradientUnits="userSpaceOnUse"
       id="radialGradient7851"
       xlink:href="#linearGradient7843"
       inkscape:collect="always" />
    <radialGradient
       gradientUnits="userSpaceOnUse"
       gradientTransform="matrix(7.0055819e-6,1.0277524,-1.6438325,0,213.62451,23.838182)"
       r="43.452892"
       fy="90.500206"
       fx="64.85778"
       cy="90.500206"
       cx="64.85778"
       id="radialGradient7849"
       xlink:href="#linearGradient7843"
       inkscape:collect="always" />
    <linearGradient
       y2="0.63824469"
       x2="91.510223"
       y1="180"
       x1="91.510223"
       gradientUnits="userSpaceOnUse"
       id="linearGradient3159"
       xlink:href="#linearGradient3275"
       inkscape:collect="always" />
    <linearGradient
       id="linearGradient3275"
       inkscape:collect="always">
      <stop
         id="stop3277"
         offset="0"
         style="stop-color:#ef7122;stop-opacity:1;" />
      <stop
         id="stop3279"
         offset="1"
         style="stop-color:#fbb215;stop-opacity:1" />
    </linearGradient>
    <linearGradient
       id="linearGradient7843"
       inkscape:collect="always">
      <stop
         id="stop7845"
         offset="0"
         style="stop-color:#32a4da;stop-opacity:1;" />
      <stop
         id="stop7847"
         offset="1"
         style="stop-color:#32a4da;stop-opacity:0;" />
    </linearGradient>
    <linearGradient
       inkscape:collect="always"
       id="linearGradient7907">
      <stop
         style="stop-color:black;stop-opacity:1"
         offset="0"
         id="stop7909" />
      <stop
         style="stop-color:black;stop-opacity:1"
         offset="1"
         id="stop7911" />
    </linearGradient>
    <linearGradient
       inkscape:collect="always"
       id="linearGradient7947">
      <stop
         style="stop-color:white;stop-opacity:1"
         offset="0"
         id="stop7949" />
      <stop
         style="stop-color:#dbdee2;stop-opacity:1"
         offset="1"
         id="stop7951" />
    </linearGradient>
    <linearGradient
       inkscape:collect="always"
       id="linearGradient8021">
      <stop
         style="stop-color:#32a4da;stop-opacity:1"
         offset="0"
         id="stop8023" />
      <stop
         style="stop-color:#1596d4;stop-opacity:1"
         offset="1"
         id="stop8025" />
    </linearGradient>
    <radialGradient
       inkscape:collect="always"
       xlink:href="#linearGradient3160"
       id="radialGradient3166"
       cx="389.6778"
       cy="80.250427"
       fx="389.6778"
       fy="80.250427"
       r="400.10751"
       gradientTransform="matrix(1.5550879e-8,1.0680722,-1.2114537,3.4232194e-7,514.08426,-246.10137)"
       gradientUnits="userSpaceOnUse" />
    <radialGradient
       inkscape:collect="always"
       xlink:href="#linearGradient3170"
       id="radialGradient3176"
       cx="309.19046"
       cy="132.24107"
       fx="309.19046"
       fy="132.24107"
       r="400.112"
       gradientTransform="matrix(3.680679e-6,1.2026027,-1.4478872,0,551.76539,-203.01775)"
       gradientUnits="userSpaceOnUse" />
    <radialGradient
       inkscape:collect="always"
       xlink:href="#linearGradient3170"
       id="radialGradient3997"
       gradientUnits="userSpaceOnUse"
       gradientTransform="matrix(1.947961e-7,0.06364648,-0.07662794,0,23.912551,1.77894)"
       cx="309.19046"
       cy="132.24107"
       fx="309.19046"
       fy="132.24107"
       r="400.112" />
  </defs>
  <g
     inkscape:label="Layer 1"
     inkscape:groupmode="layer"
     id="layer1">
    <path
       d="m 8.190414,37.8845 c 3.590091,2.77913 8.096251,4.44883 12.985099,4.44883 5.350191,0 10.227452,-1.9863 13.949912,-5.24695 0.04519,-0.0399 0.02302,-0.066 -0.02174,-0.0399 -1.670333,1.1156 -6.431106,3.55066 -13.928102,3.55066 -6.515154,0 -10.632534,-1.4537 -12.957743,-2.75143 -0.0445,-0.023 -0.06094,0.0102 -0.02757,0.0386 m 14.422468,1.08192 c 5.210943,0 10.937154,-1.42049 14.361917,-4.2323 0.937183,-0.76621 1.829849,-1.78583 2.62942,-3.15622 0.460232,-0.78853 0.910402,-1.72527 1.277111,-2.64612 0.01637,-0.045 -0.01151,-0.0668 -0.04519,-0.0179 -3.184799,4.68679 -12.407285,7.61011 -21.929887,7.61011 -6.73108,0 -13.97335,-2.1525 -16.808862,-6.26236 -0.02795,-0.0378 -0.05585,-0.023 -0.03882,0.023 2.641432,5.61442 10.654858,8.68131 20.55429,8.68131 M 16.919339,29.65223 C 6.081464,29.65223 0.971184,24.60467 0.04427,21.15996 0.03276,21.11006 0,21.12106 0,21.16796 c 0,1.15961 0.116027,2.65615 0.315849,3.64943 0.09519,0.48362 0.488701,1.24234 1.065623,1.84716 2.624389,2.7354 9.167117,6.56844 20.498296,6.56844 15.438179,0 18.967991,-5.14251 19.688826,-6.83382 0.515428,-1.2095 0.782423,-3.39512 0.782423,-5.23126 0,-0.44436 -0.011,-0.79917 -0.02795,-1.14753 0,-0.0565 -0.03276,-0.0611 -0.04401,-0.008 -0.771365,4.13829 -13.96145,9.64009 -25.359673,9.64009 M 2.041433,12.08585 c -0.620904,1.23244 -1.309342,3.31165 -1.513997,4.38781 -0.08969,0.46104 -0.05151,0.68251 0.110171,1.02652 1.29902,2.75604 7.869528,7.1658 23.195989,7.1658 9.350285,0 16.613781,-2.2971 17.790496,-6.48902 0.216787,-0.77168 0.228244,-1.58646 -0.05005,-2.6843 -0.310977,-1.2269 -0.893518,-2.65733 -1.386497,-3.66189 -0.01637,-0.033 -0.04496,-0.0279 -0.0391,0.0102 0.183081,5.49812 -15.149377,9.04157 -22.885539,9.04157 -8.379558,0 -15.370496,-3.33863 -15.370496,-7.55426 0,-0.40496 0.08391,-0.81019 0.188503,-1.23183 0.01023,-0.0386 -0.02276,-0.045 -0.03948,-0.0102 M 35.159655,5.33577 c 0.089,0.13938 0.133366,0.28819 0.133366,0.48854 -4.8e-5,2.35185 -7.19792,6.51241 -18.656115,6.51241 -8.419039,0 -9.995215,-3.12325 -9.995215,-5.1095 0,-0.70997 0.272292,-1.43652 0.872023,-2.17429 0.03276,-0.044 0.0049,-0.0606 -0.03291,-0.0284 C 6.387073,5.95142 5.382154,6.99439 4.500553,8.12019 4.079379,8.65266 3.817935,9.12436 3.817935,9.40695 c 0,4.11602 10.321018,7.10048 19.971442,7.10048 10.282647,0 14.871839,-3.35676 14.871839,-6.3068 0,-1.0543 -0.410423,-1.66978 -1.460221,-2.86294 C 36.519487,6.5614 35.874931,5.92943 35.19263,5.3073 35.15967,5.2799 35.13668,5.3023 35.15967,5.3357 M 32.00726,2.98433 C 28.833729,1.0822 25.148625,0 21.17563,0 17.174999,0 13.378764,1.12005 10.193904,3.07256 9.238472,3.6605 8.700865,4.13157 8.700865,4.73735 c 0,1.78537 4.172527,3.705 11.575161,3.705 7.325788,0 13.007814,-2.10263 13.007814,-4.12671 9.9e-5,-0.48305 -0.422128,-0.82106 -1.27658,-1.33131"
       id="path3008"
       inkscape:connector-curvature="0"
       style="fill:url(#radialGradient3997);fill-opacity:1;stroke-width:0.0529238" />
    <g
       id="g1048"
       transform="matrix(0.8766518,0,0,0.8766518,34.463368,-4.26473)">
      <g
         id="g994">
        <path
           d="m 26.33,18.9 h 3.31 l 7.54,19.99 h -3.51 l -1.66,-4.77 h -8.17 l -1.63,4.77 h -3.43 z m -1.49,12.36 h 6.2 l -3.11,-8.99 z"
           id="path958" />
        <path
           d="m 40.83,21.89 h -6.31 v -3 h 15.9 v 3 h -6.31 v 16.99 h -3.28 z"
           id="path960" />
        <path
           d="M 56.17,39.2 C 54.3,39.2 52.81,38.71 51.69,37.74 50.56,36.77 50,35.49 50,33.89 c 0,-1.14 0.37,-2.2 1.11,-3.18 0.74,-0.98 1.85,-1.85 3.31,-2.61 -0.93,-0.99 -1.58,-1.83 -1.93,-2.51 -0.35,-0.69 -0.53,-1.43 -0.53,-2.23 0,-1.41 0.52,-2.56 1.56,-3.44 1.04,-0.89 2.37,-1.33 4.01,-1.33 1.64,0 2.95,0.41 3.93,1.23 0.98,0.82 1.47,1.9 1.47,3.26 0,1.92 -1.48,3.68 -4.45,5.28 l 3.71,3.91 c 0.38,-0.55 0.76,-1.18 1.14,-1.88 l 1.17,-2.2 h 2.97 l -1.68,3.08 c -0.44,0.82 -1.01,1.75 -1.71,2.8 l 4.71,4.83 h -3.83 l -2.6,-2.66 c -0.86,1.01 -1.79,1.76 -2.8,2.24 -1,0.48 -2.14,0.72 -3.39,0.72 z m 0.37,-2.57 c 1.54,0 2.87,-0.7 4,-2.11 L 56,29.78 c -0.99,0.61 -1.72,1.22 -2.18,1.84 -0.47,0.62 -0.7,1.29 -0.7,2.01 0,0.89 0.31,1.62 0.93,2.17 0.61,0.55 1.44,0.83 2.49,0.83 z M 54.88,23.27 c 0,0.51 0.13,0.99 0.39,1.44 0.26,0.45 0.8,1.12 1.64,2.01 1.1,-0.65 1.9,-1.25 2.38,-1.8 0.49,-0.55 0.73,-1.12 0.73,-1.71 0,-0.65 -0.22,-1.17 -0.67,-1.57 -0.45,-0.4 -1.04,-0.6 -1.78,-0.6 -0.8,0 -1.45,0.2 -1.94,0.61 -0.5,0.41 -0.75,0.95 -0.75,1.62 z"
           id="path962" />
        <path
           d="m 72.7,21.89 h -6.31 v -3 H 82.3 v 3 H 75.99 V 38.88 H 72.7 Z"
           id="path964" />
        <g
           class="st0"
           id="g992">
          <path
             class="st1"
             d="m 99.17,39.17 c -1.87,0 -3.51,-0.45 -4.93,-1.36 -1.42,-0.9 -2.51,-2.13 -3.27,-3.68 -0.76,-1.55 -1.14,-3.3 -1.14,-5.24 0,-2.02 0.41,-3.81 1.24,-5.38 0.83,-1.57 1.95,-2.78 3.36,-3.63 1.41,-0.85 2.99,-1.27 4.74,-1.27 1.01,0 2.01,0.14 3,0.41 0.99,0.28 1.88,0.66 2.66,1.16 l -0.49,1.2 c -1.66,-0.91 -3.35,-1.37 -5.08,-1.37 -1.6,0 -2.99,0.38 -4.18,1.14 -1.19,0.76 -2.1,1.81 -2.74,3.16 -0.64,1.34 -0.96,2.87 -0.96,4.58 0,1.79 0.34,3.36 1.01,4.71 0.68,1.35 1.61,2.38 2.8,3.1 1.19,0.71 2.55,1.07 4.07,1.07 0.91,0 1.78,-0.12 2.61,-0.37 0.83,-0.25 1.69,-0.65 2.58,-1.2 l 0.51,1.2 c -0.82,0.57 -1.74,1.01 -2.76,1.31 -1.01,0.31 -2.02,0.46 -3.03,0.46 z"
             id="path966" />
          <path
             class="st1"
             d="m 105.62,45.34 c -0.78,0 -1.53,-0.18 -2.26,-0.54 l 0.37,-1.14 c 0.67,0.27 1.27,0.4 1.8,0.4 0.76,0 1.41,-0.31 1.96,-0.94 0.54,-0.63 1.1,-1.73 1.67,-3.31 l 0.4,-1.08 -5.85,-14.56 h 1.6 l 4.97,13.08 4.94,-13.08 h 1.54 l -5.94,14.91 c -0.67,1.67 -1.24,2.95 -1.73,3.83 -0.49,0.88 -0.99,1.5 -1.51,1.88 -0.53,0.36 -1.18,0.55 -1.96,0.55 z"
             id="path968" />
          <path
             class="st1"
             d="M 118.49,38.89 V 17.47 h 1.43 v 8.39 c 0.91,-0.74 1.75,-1.26 2.5,-1.56 0.75,-0.3 1.61,-0.44 2.58,-0.44 1.24,0 2.32,0.33 3.26,1 0.93,0.67 1.65,1.58 2.14,2.73 0.49,1.15 0.74,2.46 0.74,3.93 0,1.54 -0.29,2.89 -0.86,4.05 -0.57,1.16 -1.35,2.05 -2.34,2.67 -0.99,0.62 -2.11,0.93 -3.37,0.93 -1.73,0 -3.31,-0.58 -4.74,-1.74 l -0.17,1.46 z m 6.29,-13.74 c -0.89,0 -1.72,0.16 -2.48,0.49 -0.76,0.32 -1.55,0.85 -2.37,1.57 v 8.82 c 0.63,0.59 1.33,1.05 2.1,1.37 0.77,0.32 1.57,0.49 2.41,0.49 1.58,0 2.85,-0.59 3.81,-1.76 0.96,-1.17 1.44,-2.71 1.44,-4.61 0,-1.88 -0.45,-3.42 -1.36,-4.6 -0.9,-1.18 -2.09,-1.77 -3.55,-1.77 z"
             id="path970" />
          <path
             class="st1"
             d="m 140.2,39.17 c -1.47,0 -2.74,-0.33 -3.83,-1 -1.09,-0.67 -1.92,-1.58 -2.5,-2.73 -0.58,-1.15 -0.87,-2.46 -0.87,-3.93 0,-1.5 0.3,-2.84 0.91,-4.01 0.61,-1.17 1.42,-2.07 2.43,-2.7 1.01,-0.63 2.11,-0.94 3.31,-0.94 1.24,0 2.32,0.3 3.24,0.89 0.92,0.59 1.63,1.4 2.13,2.43 0.49,1.03 0.74,2.19 0.74,3.48 0,0.42 -0.02,0.84 -0.06,1.26 h -11.25 c 0.06,1.2 0.34,2.25 0.86,3.16 0.51,0.9 1.19,1.6 2.04,2.08 0.85,0.49 1.79,0.73 2.84,0.73 0.97,0 1.8,-0.09 2.48,-0.27 0.69,-0.18 1.41,-0.49 2.17,-0.93 l 0.51,1.08 c -0.78,0.49 -1.58,0.85 -2.38,1.07 -0.79,0.22 -1.72,0.33 -2.77,0.33 z m -0.54,-14.02 c -0.93,0 -1.78,0.24 -2.53,0.73 -0.75,0.49 -1.36,1.15 -1.81,2 -0.46,0.85 -0.73,1.79 -0.83,2.84 h 9.82 v -0.23 c 0,-1.03 -0.2,-1.96 -0.6,-2.8 -0.4,-0.84 -0.95,-1.47 -1.64,-1.9 -0.69,-0.43 -1.5,-0.64 -2.41,-0.64 z"
             id="path972" />
          <path
             class="st1"
             d="m 155.8,25.41 c -0.46,-0.08 -0.89,-0.11 -1.28,-0.11 -0.8,0 -1.62,0.18 -2.46,0.54 -0.84,0.36 -1.62,0.88 -2.34,1.54 v 11.51 h -1.43 V 24.15 h 1.17 l 0.2,1.88 c 0.74,-0.7 1.55,-1.24 2.43,-1.61 0.88,-0.37 1.76,-0.56 2.66,-0.56 0.42,0 0.84,0.05 1.26,0.14 z"
             id="path974" />
          <path
             class="st1"
             d="m 161.77,39.17 c -0.99,0 -1.89,-0.11 -2.7,-0.33 -0.81,-0.22 -1.6,-0.57 -2.38,-1.04 l 0.49,-1.17 c 1.56,0.84 3.06,1.26 4.51,1.26 1.24,0 2.19,-0.24 2.86,-0.73 0.67,-0.49 1,-1.17 1,-2.07 0,-0.74 -0.26,-1.34 -0.79,-1.78 -0.52,-0.45 -1.45,-0.87 -2.78,-1.27 l -0.77,-0.23 c -1.48,-0.44 -2.54,-0.97 -3.16,-1.58 -0.62,-0.62 -0.93,-1.44 -0.93,-2.47 0,-1.14 0.44,-2.07 1.33,-2.8 0.88,-0.72 2.02,-1.08 3.41,-1.08 1.66,0 3.22,0.41 4.68,1.23 l -0.46,1.14 c -1.37,-0.72 -2.79,-1.08 -4.25,-1.08 -0.99,0 -1.78,0.23 -2.37,0.69 -0.59,0.46 -0.89,1.07 -0.89,1.83 0,0.48 0.1,0.88 0.3,1.21 0.2,0.33 0.52,0.63 0.97,0.9 0.45,0.27 1.06,0.51 1.84,0.74 l 0.77,0.23 c 1.66,0.48 2.83,1.03 3.51,1.67 0.69,0.64 1.03,1.5 1.03,2.58 0,1.28 -0.47,2.29 -1.41,3.04 -0.94,0.74 -2.21,1.11 -3.81,1.11 z"
             id="path976" />
          <path
             class="st1"
             d="m 175.8,39.17 c -1.47,0 -2.74,-0.33 -3.83,-1 -1.09,-0.67 -1.92,-1.58 -2.5,-2.73 -0.58,-1.15 -0.87,-2.46 -0.87,-3.93 0,-1.5 0.3,-2.84 0.91,-4.01 0.61,-1.17 1.42,-2.07 2.43,-2.7 1.01,-0.63 2.11,-0.94 3.31,-0.94 1.24,0 2.32,0.3 3.24,0.89 0.92,0.59 1.63,1.4 2.13,2.43 0.49,1.03 0.74,2.19 0.74,3.48 0,0.42 -0.02,0.84 -0.06,1.26 h -11.25 c 0.06,1.2 0.34,2.25 0.86,3.16 0.51,0.9 1.19,1.6 2.04,2.08 0.85,0.49 1.79,0.73 2.84,0.73 0.97,0 1.8,-0.09 2.48,-0.27 0.69,-0.18 1.41,-0.49 2.17,-0.93 l 0.51,1.08 c -0.78,0.49 -1.58,0.85 -2.38,1.07 -0.8,0.22 -1.73,0.33 -2.77,0.33 z m -0.55,-14.02 c -0.93,0 -1.78,0.24 -2.53,0.73 -0.75,0.49 -1.36,1.15 -1.81,2 -0.46,0.85 -0.73,1.79 -0.83,2.84 h 9.82 v -0.23 c 0,-1.03 -0.2,-1.96 -0.6,-2.8 -0.4,-0.84 -0.95,-1.47 -1.64,-1.9 -0.69,-0.43 -1.49,-0.64 -2.41,-0.64 z"
             id="path978" />
          <path
             class="st1"
             d="m 190.34,39.17 c -1.45,0 -2.71,-0.33 -3.8,-1 -1.09,-0.67 -1.92,-1.58 -2.51,-2.74 -0.59,-1.16 -0.89,-2.46 -0.89,-3.91 0,-1.52 0.31,-2.87 0.94,-4.03 0.63,-1.16 1.48,-2.06 2.57,-2.68 1.08,-0.63 2.31,-0.94 3.68,-0.94 0.8,0 1.53,0.1 2.18,0.29 0.66,0.19 1.34,0.51 2.04,0.97 l -0.49,1.08 c -0.67,-0.38 -1.28,-0.65 -1.83,-0.81 -0.55,-0.16 -1.19,-0.24 -1.91,-0.24 -1.14,0 -2.15,0.28 -3.01,0.84 -0.87,0.56 -1.54,1.32 -2.01,2.28 -0.48,0.96 -0.71,2.04 -0.71,3.24 0,1.26 0.25,2.37 0.76,3.34 0.5,0.97 1.19,1.72 2.06,2.24 0.87,0.52 1.84,0.79 2.93,0.79 0.74,0 1.43,-0.09 2.07,-0.26 0.64,-0.17 1.27,-0.44 1.9,-0.8 l 0.49,1.08 c -1.25,0.84 -2.73,1.26 -4.46,1.26 z"
             id="path980" />
          <path
             class="st1"
             d="m 208.35,24.15 v 14.73 h -1.17 l -0.23,-1.83 c -1.73,1.41 -3.52,2.11 -5.37,2.11 -1.64,0 -2.87,-0.49 -3.71,-1.47 -0.84,-0.98 -1.26,-2.43 -1.26,-4.35 v -9.19 h 1.43 v 9.05 c 0,3.08 1.29,4.63 3.88,4.63 1.69,0 3.36,-0.69 5,-2.08 v -11.6 z"
             id="path982" />
          <path
             class="st1"
             d="m 219.22,25.41 c -0.46,-0.08 -0.89,-0.11 -1.28,-0.11 -0.8,0 -1.62,0.18 -2.46,0.54 -0.84,0.36 -1.62,0.88 -2.34,1.54 v 11.51 h -1.43 V 24.15 h 1.17 l 0.2,1.88 c 0.74,-0.7 1.55,-1.24 2.43,-1.61 0.88,-0.37 1.76,-0.56 2.66,-0.56 0.42,0 0.84,0.05 1.26,0.14 z"
             id="path984" />
          <path
             class="st1"
             d="m 220.79,19.44 c 0,-0.3 0.1,-0.55 0.3,-0.74 0.2,-0.19 0.46,-0.29 0.79,-0.29 0.32,0 0.59,0.1 0.79,0.29 0.2,0.19 0.3,0.44 0.3,0.74 0,0.3 -0.1,0.55 -0.3,0.74 -0.2,0.19 -0.46,0.29 -0.79,0.29 -0.32,0 -0.59,-0.1 -0.79,-0.29 -0.2,-0.19 -0.3,-0.44 -0.3,-0.74 z m 0.37,4.71 h 1.43 v 14.73 h -1.43 z"
             id="path986" />
          <path
             class="st1"
             d="m 231.19,39.17 c -1.47,0 -2.55,-0.43 -3.25,-1.29 -0.7,-0.86 -1.06,-2.17 -1.06,-3.94 v -8.59 h -2.74 v -1.2 h 2.8 l 0.26,-4.31 h 1.11 v 4.31 h 5.48 v 1.2 h -5.48 v 8.48 c 0,2.7 1.01,4.05 3.03,4.05 0.93,0 1.82,-0.24 2.66,-0.71 l 0.37,1.11 c -0.42,0.27 -0.92,0.48 -1.5,0.64 -0.59,0.17 -1.14,0.25 -1.68,0.25 z"
             id="path988" />
          <path
             class="st1"
             d="m 236.96,45.34 c -0.78,0 -1.53,-0.18 -2.26,-0.54 l 0.37,-1.14 c 0.67,0.27 1.27,0.4 1.8,0.4 0.76,0 1.41,-0.31 1.96,-0.94 0.54,-0.63 1.1,-1.73 1.67,-3.31 l 0.4,-1.08 -5.85,-14.56 h 1.6 l 4.97,13.08 4.94,-13.08 h 1.54 l -5.94,14.91 c -0.67,1.67 -1.24,2.95 -1.73,3.83 -0.49,0.88 -0.99,1.5 -1.51,1.88 -0.53,0.36 -1.18,0.55 -1.96,0.55 z"
             id="path990" />
        </g>
      </g>
    </g>
  </g>
  <style
     type="text/css"
     id="style956">
	.st0{display:none;}
	.st1{display:inline;}
</style>
</svg>
