<?xml version="1.0" encoding="UTF-8"?><svg id="uuid-61cf5685-e0a0-4835-8c12-3a4ffa6b499b" xmlns="http://www.w3.org/2000/svg" width="2520.5178" height="621.05217" viewBox="0 0 2520.5178 621.05217"><defs><style>.uuid-cf231728-1f59-4e0d-9fdc-b13010592f2c{fill:#ed3023;}.uuid-75c99343-075e-4624-833d-0fe66a1b7585{fill:#ed3124;}</style></defs><g id="uuid-d0bffbac-a8bb-43b5-a245-10ad48734418"><path class="uuid-cf231728-1f59-4e0d-9fdc-b13010592f2c" d="M441.06937,27.81542c.19066,1.69769-3.44888,1.08618-4.53399,1.03269C270.41622,20.66021,103.79042,172.46082,145.86532,345.16297c40.89414,167.85552,272.54866,189.50356,327.23614,24.67413,30.18352-90.97389-14.40058-172.39332-102.47802-203.25742-5.45421-1.91126-22.31686-5.44921-25.47262-7.5068-3.92416-2.55861-.45495-22.41071.44166-27.44427,7.62243-42.79244,40.51611-81.54251,81.22368-96.60253,3.53872-1.30917,15.56115-5.43724,18.54066-5.02979,2.52582.34541,17.54551,9.01577,21.00808,10.98925,238.88962,136.15462,192.54279,497.74393-72.84763,568.88328C123.80913,682.16554-99.02079,389.38083,45.42342,150.31481,126.65268,15.87428,296.95314-37.54089,441.06937,27.81542Z"/><path class="uuid-cf231728-1f59-4e0d-9fdc-b13010592f2c" d="M1421.69373,125.65899v313.53891h-52.9793l-2.00403-15.97324c-1.3286-1.4103-11.60609,8.14866-13.86084,9.61154-26.81366,17.39667-62.69629,14.05905-88.40924-3.8085-54.79849-38.07867-61.20201-136.9888-19.18957-186.55239,30.06613-35.47011,74.96091-42.23231,118.46563-29.94406v-86.87225h57.97735ZM1327.52847,255.76877c-78.71636,6.13183-64.42855,154.44197,8.40767,137.20601,8.22765-1.94699,26.7171-10.9213,27.80255-20.15695l-.15862-109.7246c-10.08731-5.51942-24.3776-8.23384-36.0516-7.32446Z"/><path class="uuid-75c99343-075e-4624-833d-0fe66a1b7585" d="M2520.2646,340.34328h-146.9426c1.07787,60.58454,69.77841,63.88836,111.62501,41.10816,1.56166-.85013,10.74702-7.77323,11.32166-7.15316-.27008,8.47829,15.74888,41.72901,13.87159,47.24744-1.55828,4.58069-27.20004,13.80008-32.64333,15.37117-98.38272,28.39608-168.57405-22.96357-162.19416-126.07212,4.35043-70.30939,62.7364-117.73302,132.81436-100.63446,59.25116,14.45689,74.64466,76.15735,72.14747,130.13298ZM2461.28764,298.40495c-4.21979-61.21887-80.88497-57.9001-86.96603,0h86.96603Z"/><path class="uuid-75c99343-075e-4624-833d-0fe66a1b7585" d="M1925.2914,206.83373c148.06144-8.38505,153.15177,228.8036,14.69031,237.34726-148.17773,9.1432-157.53483-229.25766-14.69031-237.34726ZM1927.28612,255.76516c-67.89576,5.76664-61.72148,153.16417,15.26029,137.05699,57.65636-12.06365,55.35134-143.0543-15.26029-137.05699Z"/><path class="uuid-75c99343-075e-4624-833d-0fe66a1b7585" d="M1005.2065,235.84703c20.5884-20.57911,51.18045-30.52766,80.10847-29.29781,146.28024,6.21898,135.11994,257.55514-22.85303,236.51512-94.33536-12.56429-118.91945-145.58114-57.25544-207.21731ZM1075.61875,255.76519c-61.27761,5.24109-62.50898,125.58648-5.83896,137.05246,79.43258,16.07151,82.83341-143.63781,5.83896-137.05246Z"/><path class="uuid-75c99343-075e-4624-833d-0fe66a1b7585" d="M1643.60704,439.1979h-51.47989c-2.55081,0-2.38949-14.72037-3.9935-16.97013-39.47065,41.75122-123.40649,21.18562-130.17723-38.72483-8.43336-74.62204,70.44459-88.92398,127.67829-91.08401,1.17903-19.34988-5.5341-33.91985-25.74817-37.69663-24.35063-4.54966-46.90708,6.77247-66.6227,19.65548-1.59517-.37319-13.21584-25.58196-14.76882-29.21794-1.09462-2.56282-4.30095-8.81247-3.69321-10.95475.81376-2.8685,18.55308-12.19624,22.18593-13.86192,46.25818-21.20963,117.83973-22.92992,140.08683,32.1643,2.17986,5.39834,6.53247,19.03736,6.53247,24.42905v162.26138ZM1586.6293,377.78821v-43.93539c0-.35344-1.45241-1.682-2.25534-1.3066-23.26089,3.07271-67.48287,2.43812-69.7569,34.21429-2.50525,35.00695,40.87228,32.89504,62.33825,19.33771,1.66767-1.05326,9.32182-7.07246,9.67399-8.31001Z"/><path class="uuid-cf231728-1f59-4e0d-9fdc-b13010592f2c" d="M2279.3587,439.1979h-57.97735v-139.29515c0-14.25258-9.97223-34.34366-23.3091-40.62206-23.07668-10.86347-46.03037,3.21129-62.65732,18.65436v161.26285h-57.97735v-226.66667h52.9793c.86448,5.07136,1.0594,10.40929,2.03564,15.45715.18942.97943-.58916,2.10882,1.44323,1.50324,2.06163-.61429,8.3452-6.12962,11.20987-7.77941,61.27674-35.28998,131.19138-8.24589,134.24275,66.21847l.01033,151.26722Z"/><path class="uuid-cf231728-1f59-4e0d-9fdc-b13010592f2c" d="M1704.58323,212.53123c-1.27523-28.72527,2.65939-60.86958,27.07042-79.30239,21.30595-16.08816,56.02907-16.04264,81.09951-10.27806,2.89883.66654,14.24163,3.73824,16.10898,4.87254,1.03124.62641,1.72933.92904,1.73227,2.34978l-6.06248,46.4124c-18.44637-6.2011-51.18539-13.14038-59.75306,10.70201-.4535,1.26201-2.21829,7.04508-2.21829,7.76942v17.4743h48.98087v46.93098h-48.98087v179.73568h-57.97735v-179.73568h-29.98829v-46.93098h29.98829Z"/><polygon class="uuid-75c99343-075e-4624-833d-0fe66a1b7585" points="789.4407 212.53123 849.41732 362.32112 907.39463 212.53123 965.87179 212.53123 873.74409 439.02967 824.3865 439.27161 727.96472 212.53123 789.4407 212.53123"/></g></svg>