<?xml version="1.0" encoding="UTF-8"?><svg id="Layer_2" xmlns="http://www.w3.org/2000/svg" viewBox="0 0 560.82 178.31"><g id="Layer_1-2"><path d="M99.79,177.78v-29h6.36v29h-6.36Zm38.87,0l-14.04-18.43v18.44h-6.28v-29.01h5.86l13.54,17.86v-17.86h6.28v29h-5.37Zm28.24-23.12v23.12h-6.36v-23.12h-8.8v-5.88h23.95v5.88h-8.8Zm16.49,23.12v-29h21.81v5.67h-15.52v5.77h13.63v5.67h-13.63v6.2h15.7v5.67h-21.98Zm50.09,0l-6.23-9.27h-4.99v9.28h-6.36v-29.01h13.19c6.82,0,10.9,3.6,10.9,9.57v.08c.19,4.05-2.35,7.73-6.19,8.99l7.07,10.36h-7.38Zm.13-19.1c0-2.76-1.9-4.15-4.99-4.15h-6.32v8.33h6.41c3.1,0,4.88-1.65,4.88-4.1l.03-.08Zm37.19,19.1l-14-18.44v18.44h-6.28v-29h5.86l13.54,17.86v-17.86h6.28v29h-5.41Zm37.11,0l-2.64-6.51h-12.25l-2.64,6.51h-6.49l12.39-29.21h5.86l12.39,29.21h-6.63Zm-8.78-21.53l-3.84,9.4h7.68l-3.84-9.4Zm32.07-1.57v23.12h-6.36v-23.12h-8.8v-5.88h23.95v5.88h-8.8Zm17.17,23.12v-29.01h6.36v29h-6.36Zm31.65,.51c-8.91,.02-15.32-6.67-15.32-14.92v-.08c0-8.27,6.49-15,15.4-15s15.32,6.67,15.32,14.92v.08c0,8.24-6.47,15.02-15.4,15.02v-.02Zm8.74-15c.17-4.87-3.63-8.94-8.48-9.11-.09,0-.18,0-.27,0-5.12,0-8.68,4.06-8.68,9.03v.08c-.17,4.87,3.63,8.94,8.48,9.11,.09,0,.18,0,.27,0,5.12,0,8.68-4.06,8.68-9.03v-.08Zm37.32,14.49l-14-18.44v18.44h-6.25v-29h5.86l13.54,17.86v-17.86h6.28v29h-5.43Zm37.11,0l-2.64-6.51h-12.2l-2.64,6.51h-6.49l12.39-29.21h5.86l12.39,29.21h-6.68Zm-8.71-21.53l-3.84,9.4h7.68l-3.84-9.4Zm22.57,21.54v-29.01h6.36v23.2h14.41v5.8h-20.77Z"/><path d="M299.42,56.18c-3.38-1.77-7.11-2.75-10.92-2.87-7.61,0-11.91,5.51-13.04,7.35v59.12h-23.07V36.92h21.13l1.32,8.68c.92-1.51,6.41-10.46,17.32-10.46,2.47,.03,4.92,.46,7.26,1.26v19.78h0Zm54.74-19.78c-2.34-.8-4.79-1.23-7.26-1.26-10.91,0-16.38,8.95-17.32,10.46l-1.32-8.68h-21.13V119.79h23.07V60.66c1.16-1.88,5.42-7.35,13.04-7.35,3.81,.11,7.55,1.09,10.92,2.87v-19.78Zm-115.89,24.31v59.08h-21.17l-1.32-8.64c-1.46,1.42-8.25,10.42-22.24,10.42-13.2,0-22.3-10.11-22.3-23.72,0-29.32,34.47-33.45,43.99-34.41v-2.35c0-4.8-4.01-9.78-14.66-9.78-11.25,0-19.92,6.24-21.48,7.35v-17.09c8.99-4.32,18.85-6.52,28.82-6.43,21.21-.02,30.37,9.7,30.37,25.57Zm-23.07,18.92c-7.33,0-20.72,2.53-20.72,14.13,0,5.88,4.01,10.11,9.04,10.11,6.54,0,11.67-4.71,11.67-15.3v-8.93ZM88.61,12.35l20.74,44.63-8.14,17.46L66.62,0l-26.36,12.33,20.72,44.57c-1.62,3.47-4.22,9.13-8.44,18.13-9.48,20.32-16.81,26.01-29.79,26.01-3.57-.06-7.11-.72-10.47-1.94L0,125.51c6.23,2.6,12.89,3.99,19.63,4.09,15.37,0,26.66-10.02,36.47-31.14l12.1-26.01,21.99,47.37h32.07l-13.89-29.87,8.14-17.46,21.99,47.37h32.07L114.97,0l-26.36,12.35Zm460.51,24.58V9.51l-23.07,10.79v16.63h-7.39v14.41h7.4V119.8h23.07V51.33h11.69v-14.41h-11.7Zm-186.34,82.88h23.07V36.92h-23.07V119.8ZM500.14,9.5l-23.07,10.79v16.63h-7.4v14.41h7.4V119.79h23.07V51.33h11.7v-14.41h-11.7V9.5Zm-35.85,62.03v13.63c0,19.75-9.62,36.42-33.26,36.42s-33.26-16.54-33.26-36.42v-13.62c0-19.83,9.62-36.42,33.26-36.42s33.26,16.66,33.26,36.42h0Zm-23.25-3.29c0-9.91-2.4-16.94-10.01-16.94s-10.01,7.03-10.01,16.94v20.22c0,9.91,2.36,16.94,10.01,16.94s10.01-7.03,10.01-16.94v-20.22Z"/></g></svg>