<svg xmlns="http://www.w3.org/2000/svg" viewBox="0 0 527.789 200"><path d="M415.228,93.026c0,1.536-.029,3.072-.029,4.6V195.7H378.09V28.107c.448,0,.9-.058,1.339-.058h29.747a2.4,2.4,0,0,1,2.136.989q39.127,48.579,78.309,97.128c.256.32.535.617,1.059,1.211V28.142h37.109V195.793H499.857a2.231,2.231,0,0,1-1.985-.931Q468.34,158.253,438.8,121.65q-11.61-14.385-23.277-28.746l-.285-.262Z" style="fill:#eb0017"/><path d="M271.244,200c-20.216-.582-41.211-8.956-58.25-26.25-17.184-17.458-25.8-38.628-25.447-63.173.343-23.784,9.171-44.186,25.942-60.962,15.1-15.107,33.431-23.7,54.752-25.279,27.519-2.037,51.209,6.8,70.471,26.565,16.561,16.974,24.749,37.656,24.708,61.311C363.344,160.342,324.5,199.773,271.244,200Zm54.875-84.023c0-18.092-4.987-30-14.711-39.821a49.285,49.285,0,0,0-35.73-14.95,48.586,48.586,0,0,0-35.834,14.7c-11.511,11.516-16.579,25.6-14.822,41.816a48.344,48.344,0,0,0,14.164,29.591C250.539,158.7,264.308,163.968,280.4,162.5,304.536,160.3,326.509,139.451,326.119,115.977Z" style="fill:#eb0017"/><path d="M201.321,195.793H162.094a1.649,1.649,0,0,1-1.828-1.164q-14.838-35.754-29.747-71.471c-2.543-6.076-5.162-12.139-7.722-18.238q-3.55-8.431-7.053-16.875Q108.463,70.425,101.2,52.792c-.157-.372-.373-.722-.675-1.3-10.6,25.5-21.1,50.709-31.7,76.127h41.217a1.746,1.746,0,0,1,1.926,1.263q6.93,15.956,13.966,31.883c.18.413.332.838.582,1.472H124.74q-34.333,0-68.713-.04a2.094,2.094,0,0,0-2.281,1.583c-4.254,10.294-8.554,20.565-12.8,30.841-.309.745-.582,1.2-1.536,1.2q-19.413-.059-38.826,0A2.92,2.92,0,0,1,0,195.764,11.862,11.862,0,0,1,.39,194.6q19.925-45.913,39.861-91.821,21.98-50.628,43.918-101.3A2.029,2.029,0,0,1,86.392,0q14.245.087,28.514,0a2.052,2.052,0,0,1,2.217,1.5q20.048,46.314,40.152,92.606Q179,144.154,200.716,194.245C200.878,194.705,201.065,195.164,201.321,195.793Z" style="fill:#eb0017"/></svg>