<?xml version="1.0" encoding="UTF-8"?>
<svg id="Layer_2" data-name="Layer 2" xmlns="http://www.w3.org/2000/svg" viewBox="0 0 1311.11203 259.54747">
  <defs>
    <style>
      .cls-1 {
        fill: #020288;
        stroke-width: 0px;
      }
    </style>
  </defs>
  <g id="Layer_1-2" data-name="Layer 1">
    <g>
      <path class="cls-1" d="M1217.04059.0538c31.35608-.00139,62.71633-.07022,94.07144.29873-.02075,86.30787-.0415,172.61577-.06201,258.92345-84.11593.07032-168.32248.45234-252.38644.06927-9.20961,1.39228-3.6428-12.44957-5.39803-17.85719.50379-9.96482.42786-20.72757.03836-30.99339.33823-31.5083.37549-64.54385-.01028-96.04914.30872-30.82906.63093-61.12561-.13471-91.94195.07754-4.75268.35329-9.5023.38316-14.25524-.33975-8.20628,1.2288-7.85631,8.68029-8.23119,51.60461.52198,103.21131-.21401,154.81822.03664ZM1155.0465,36.76885c-20.99088-.00606-41.98213-.14945-62.97266-.04523-2.32296-.54415-2.3481,1.0461-2.32149,2.57159.56363,15.32001-.58028,31.04209.26213,46.20406-.52416,31.41052-.29472,62.91537-.06506,93.99442-.36171,10.27488-.32906,21.01057.03193,30.99357.70003,3.03759-2.5114,12.96854,2.19321,12.10804,52.0697.5104,103.76142.40492,155.90768.04455,4.647.35162,10.03408.01608,14.99367.25444q12.40909.03413,11.64327-12.36469c.15629-20.98418.44635-41.9742-.0696-62.95742.73235-35.85667-.60219-71.76402.30143-107.62619,1.90746-6.93187-22.204-1.86506-26.87945-3.23904-31.00841.00034-62.01775.02259-93.02506.0619Z"/>
      <path class="cls-1" d="M704.0267,208.53769c13.39758,16.00817,5.12506,43.04768-15.84546,47.07937-10.19994,2.24183-20.66052,1.62009-31.00052,2.0041-4.52161-1.14759-22.10633,2.75894-21.54144-3.25267-.30438-35.33106.20952-70.62694.24141-105.98603,17.26105,1.10673,36.05943-2.31777,52.24338,2.13678,23.82615,7.68894,24.70528,43.35532-1.20409,49.73148,7.27671,1.78746,12.62418,4.21822,17.10672,8.28698ZM649.2984,160.4545c2.65612,38.44122-11.66383,35.85844,24.75373,34.89751,15.21442.96546,24.76893-21.57707,12.17917-30.98636-7.68593-7.61858-19.37848-4.1529-29.07189-4.84028-2.15055.47143-7.20894-1.23695-7.86102.92913ZM649.36218,239.41333c-.73911,6.04129-.17964,7.88744,5.72819,6.69173,10.4612.10816,21.00271,1.3645,31.04439-2.77442,12.86514-4.90751,13.01083-26.26016,2.0973-33.24249-9.23095-5.20092-20.82984-3.54316-31.06619-3.55721-2.73617,1.07021-8.73667-4.29901-7.82383,3.96716.00671,9.63839.01343,19.27684.02014,28.91523Z"/>
      <path class="cls-1" d="M0,241.50764c.17007-31.0155-.05141-62.0098.21666-93.02248,49.3195-2.30611,88.37209-1.42414,86.27395,59.90951-3.50986,50.81418-45.79363,51.40309-86.18951,48.90216-.10037-5.26308-.20074-10.52611-.3011-15.78919ZM63.29995,233.11875c12.339-14.94292,11.48124-47.4457-.91435-61.92844-7.95742-10.2252-19.12151-12.25513-31.20396-11.68951-4.14851,1.06221-17.37763-3.17205-17.37616,2.5268.75394,25.81493-.60991,51.64152.31992,77.45805-.1634,3.79869-1.55177,7.54571,4.03849,6.88401,15.00873-.72976,33.12333,1.57696,44.05795-10.8989.84952-.55919,1.8818-1.03484,1.07811-2.35202Z"/>
      <path class="cls-1" d="M458.07242,239.49597c.05032,3.11013-.28064,6.21401-.27762,9.32171-.03376,9.26923-.00929,9.18361-9.49349,8.67731-6.03395-.06818-2.12383-13.65477-3.31488-18.07605.13846-30.29912-.0481-60.5756.26401-90.87067,4.20802-.27084,8.41756-.62899,12.60593.22303.03052,14.93653-.33939,28.42714.26652,43.60322,9.49384-14.25968,29.0213-15.94241,42.11527-6.17048,13.13544,17.89498,5.56222,42.53862,7.18553,63.29958q-.03177,7.60439-7.18832,8.18642c-.89734-.32644-1.7171-.39009-2.21103.65203-2.58698.51325-2.98765-1.01118-2.99857-3.08254-.81236-15.56615,1.19277-31.30436-.7404-46.76941.26083-15.9903-13.12573-23.03667-26.15109-15.11644-14.51642,9.68481-9.50053,31.12492-10.06186,46.12229Z"/>
      <path class="cls-1" d="M124.31504,180.62272c23.81305-3.85969,37.92577,13.36152,38.07773,36.10983.32035,4.86637-1.4908,5.80035-5.76095,5.72351-14.80686-.31778-29.63454.3887-44.43629-.23167-9.63348.33513,3.78904,28.63576,14.01196,27.17192,23.72065,4.74501,19.08372-17.86531,27.37537-16.49296,2.7336.74622,9.01246-1.8601,7.74503,3.09541-5.43659,29.06297-50.32888,31.08994-61.69312,5.19935-8.7952-22.51874-3.10992-55.85837,24.68029-60.5754ZM149.25599,210.42768c.48909-27.71634-37.80103-27.13503-39.32425-.11866-1.17346,2.20296-.26641,2.96539,1.96417,2.91626,11.59355-.3093,23.18745-.19517,34.78213-.00394,1.95369.02841,3.38688-.32134,2.57794-2.79366Z"/>
      <path class="cls-1" d="M532.17144,251.43854c-8.30505-9.3359-11.93658-22.3798-11.86721-34.81148,2.26067-1.02001,1.62111-9.98329,3.93848-13.65709,4.74323-17.4446,22.19882-24.53246,38.80895-22.287,17.00201,3.15421,23.95915,21.17675,24.07057,36.72212.67803,3.925-.74051,5.11352-4.69989,4.94484-15.06528-.14425-30.16913.36746-45.24831-.11843-6.70915.47352-.40531,14.05246,1.47956,17.53762,5.31998,10.12558,16.1032,12.14837,24.52185,8.66407,11.42203-1.76067,6.59206-18.39559,19.70301-15.60915,5.49199-.16791,2.60082,5.17882,1.85821,8.38569-8.71479,20.41443-36.21226,23.0846-52.56523,10.22881ZM563.24319,212.97897c2.8749-.72351,12.30463,2.64428,10.90132-2.52457.09153-9.98666-5.35483-18.16237-15.25554-20.82089-12.22708-2.14039-22.0378,7.27495-23.66431,20.83206-3.53347,5.56967,24.30946,1.52795,28.01853,2.51339Z"/>
      <path class="cls-1" d="M749.04394,211.22001c3.884-1.13199,21.46641,3.12458,19.74404-2.8326,1.0797-14.73528-6.51943-21.58391-19.69891-19.17951-14.33202-.12076-4.81305,15.73813-20.69261,12.7274-2.72192.24447-3.40327-.78032-2.84081-3.4732,2.64454-16.78846,21.68312-20.91949,35.97586-17.8583,27.09828,4.25282,16.23213,37.25578,19.4658,56.10418-1.03917,4.70576,2.55635,19.27643.2183,20.96274-7.65473,1.01478-11.75683-1.453-10.98723-10.22404-12.91583,17.54952-44.00322,16.39459-50.07937-5.98549-3.19405-18.607,12.32441-28.71608,28.89494-30.24118ZM750.27866,249.84289c14.97676,1.33393,19.12608-16.10093,18.77215-27.91251-.64209-5.5149-15.82511-2.2-19.93332-1.40409-23.09764,1.48258-20.20993,31.71863,1.16117,29.3166Z"/>
      <path class="cls-1" d="M238.24001,238.4879c-.50157,3.43942,1.82083,18.48279-1.26361,18.98068-18.04104.89888-7.49602-1.52036-12.51342-10.16758-13.01621,19.55958-49.42949,12.84112-48.44412-12.93399-1.09148-14.40475-.34538-28.84509-.47257-43.26969-.08303-9.41362-.01559-9.40941,9.13395-9.55264,10.49478-4.57766-1.2961,52.51031,7.5173,59.92449,5.0904,10.53393,23.61541,8.81402,28.9851-1.99851,8.19687-15.50136,2.46694-33.27141,4.31253-49.94821.05185-8.08487.01535-7.88708,8.29645-8.05948,3.59905-.07494,4.46999,1.08978,4.3858,4.51402-.04698,17.49548.21242,35.00824.06259,52.51092Z"/>
      <path class="cls-1" d="M812.02222,212.39682c-2.38742,14.74608-.34226,29.91246-.92926,44.82825-5.09158-.6792-13.79096,3.36558-12.84826-5.09142.09545-20.6819-.16754-41.36024-.15898-62.03793-.13149-8.97361-.15658-8.84294,8.76248-8.7998,6.25971-.54863,3.38855,6.57529,4.0278,10.41345,12.67252-15.41506,40.7676-16.31827,48.29282,3.5738,4.27743,17.0977,1.75454,35.18585,2.10238,52.66178-.02432,10.15019-.0079,10.06982-10.06811,9.55022-2.3044-.11907-3.20821-.72685-3.15853-3.11891-2.11323-17.20521,4.57141-45.27914-4.78962-58.96369-11.67853-12.83133-31.43354-.32142-31.23271,16.98425Z"/>
      <path class="cls-1" d="M344.05484,256.21273c-15.72922,6.21652-39.72807,4.35675-44.78276-14.7909-2.70878-9.69211,5.7712-6.39065,11.86486-6.90711.8957,9.26654,8.09426,16.60609,17.55316,15.33997,6.20803-.16424,11.93761-1.64655,14.47307-8.38256,3.40046-6.03563-1.37873-14.08816-7.70048-15.31085-11.79233-4.52397-27.97016-4.64614-33.76204-17.74731-7.03114-24.92675,23.77853-33.70516,42.39009-25.75284,6.58131,3.41853,19.57768,22.00525,3.84898,20.02603-10.75025,2.43361-4.22331-20.17235-27.76821-12.05498-10.81811,3.7258-7.5853,18.45568,2.86613,20.03322,7.03127,2.27417,14.3271,3.91329,21.21439,6.54877,17.74963,6.6332,16.31297,31.72028-.19719,38.99857Z"/>
      <path class="cls-1" d="M431.63829,237.95512c-8.27107,32.75142-61.78622,25.51798-64.65027-7.06171-6.04695-27.05973,10.91828-56.15463,41.2783-51.64055,10.62152,2.40392,19.04549,7.39475,22.43478,18.59803,2.43812,8.05922,2.49616,7.89731-5.99268,8.13666-3.69689.1043-5.60251-.54041-6.17804-4.73922-.83974-6.63453-5.63773-10.98177-12.4059-11.64812-13.82923-3.01454-23.69183,5.81861-25.85765,20.87498-3.82009,16.37842,3.60714,43.1567,24.90062,38.87799,6.99673-.72956,12.2781-6.3189,13.99512-13.25415.99148-4.17163,4.89862-5.86016,11.36765-4.25878,4.22572,1.04603.32975,4.12796,1.10808,6.11486Z"/>
      <path class="cls-1" d="M249.17336,181.38814c14.47452-.12168,12.83748,3.20037,13.01734-11.91583-.05085-5.46572,8.58766-5.23003,13.09141-8.24665,1.09837,23.78829-4.87841,20.06566,11.37004,20.28393,3.67569-.51233,4.72475.80899,4.77095,4.57285,1.13753,10.86626-16.03483-.78415-16.46084,8.00061,2.28961,8.87162-4.84299,55.63003,6.17386,53.28276,5.49979,1.71239,12.15771-2.67785,10.9781,6.20612.28087,6.54578-7.6691,4.37227-11.981,5.22285-27.5774.47241-15.90958-39.46432-17.95577-57.80779.82754-12.51695-2.3719-10.16088-13.07757-9.91932-1.79821-3.24036-1.97166-6.46839.07348-9.67952Z"/>
      <path class="cls-1" d="M891.83385,177.35898c-.98902,23.92568.12133,47.69508-.36015,71.63422-.03435,8.71466-.01329,8.54519-8.76159,8.532-6.97049.54805-2.74011-13.49075-4.00269-18.13867.21917-30.32963-.12098-60.62661.35799-90.94974,4.08144-.00879,8.16288-.01761,12.24445-.02627.17406,9.64959.348,19.29902.522,28.94846Z"/>
      <path class="cls-1" d="M914.16572,241.43337c-7.01487-8.90037-13.99822-17.96126-22.12368-25.93125-.32135-3.96221,4.47513-3.88769,5.41208-6.85867,3.40487-2.51499,6.04992-5.76085,8.74539-8.97895,9.69373-7.74429,16.2786-21.7584,30.56431-18.58364,3.4024-.36868,3.85144.91108,1.3641,3.43348-9.00063,8.63237-17.97835,17.2889-26.97322,25.92773-1.42373,1.60566-5.01069,2.32305-2.10898,5.63792,11.46113,13.80326,24.20263,26.42404,34.24969,41.16154-17.22741,3.27401-19.00034-4.64328-29.12968-15.80817Z"/>
      <path class="cls-1" d="M1250.15681,62.18544c1.14164.15465,2.28329.30932,3.72154.50419-22.11275,32.5665-46.62763,63.60747-68.8182,95.71015-34.96778,46.2419-16.1272,38.78675-74.76749,39.12779,25.06463-36.37969,51.17271-69.61546,76.05388-105.69598,28.01735-38.98109,17.42639-28.49858,63.81027-29.64615Z"/>
    </g>
  </g>
</svg>