<svg width="160" height="160" xmlns="http://www.w3.org/2000/svg"><circle cx="81.68" cy="80" r="78.32" style="fill:#fff;stroke-width:.8"/><path d="M98.08 59.2c0-9.12 6.08-17.92 9.44-16.24 3.36 1.68-2.8 10.48-9.44 16.24m-41.92 3.28c0-7.28 7.28-21.2 11.68-19.76 4.4 1.44-4.32 15.76-11.68 19.76zm-7.28 52.32c-3.28.16-5.52-2-5.52-5.52 0-9.52 13.2-18.64 23.2-23.52-1.84 13.28-6.32 28.48-17.68 29.04zm60.88-31.04c-7.52 0-13.28 5.52-13.28 12.16 0 6.64 3.36 10 7.76 10 1.52 0 3.12-.88 3.12-2.88s-3.84-3.6-3.52-7.92c.16-2.8 2.8-4.72 5.52-4.72 5.28 0 7.76 5.12 7.76 10.48-.24 8.16-6.24 13.92-13.36 13.92-9.28 0-15.2-8.88-15.2-18.4 0-14.24 9.28-19.76 14.16-21.04 0 0 12.72 2.24 12.32-3.36-.16-2.48-3.84-3.44-6.48-3.52a18.72 18.72 0 0 0-5.92.96 7.28 7.28 0 0 1-3.28-4.08c9.12-6.88 15.52-13.52 15.52-21.04 0-4-2.64-7.52-7.76-7.52-9.04 0-15.92 11.52-15.92 21.92a18.48 18.48 0 0 0 .4 5.12c-5.76 4.16-10 6.8-17.76 11.44a38.64 38.64 0 0 1 .88-6.72c2.64-2.88 6.24-7.2 6.24-10.48 0-1.6-.88-2.88-2.64-2.88-4.4 0-7.76 6.64-8.64 11.28-2 2.4-6 5.52-9.28 5.52-3.28 0-3.52-2.4-3.76-3.28 8.4-2.88 18.8-14.4 18.8-24.88 0-2.16-.88-7.04-7.52-7.04-10 0-18.4 14.8-18.4 26.32-3.52 0-4.88-3.76-4.88-6.64s1.12-5.76 1.12-6.64a1.76 1.76 0 0 0-1.76-2c-3.36 0-5.28 4.48-5.28 9.52.16 7.12 4.88 11.52 11.04 12 .88 4.16 4.64 8.16 9.28 8.16 2.88 0 6.48-.88 8.88-3.04-.24 1.52-.4 2.88-.64 4.16-9.76 5.12-16.88 8.64-23.28 14.4-5.04 4.64-7.92 10.88-7.92 15.76 0 6.64 4.16 12.88 12.8 12.88 10.16 0 17.92-8.24 21.68-19.52 1.76-5.36 2.48-13.04 2.96-20.16a207.04 207.04 0 0 0 20.32-12.88 7.92 7.92 0 0 0 2.24 2.64c-4.64 2.48-15.76 9.36-15.76 25.52 0 11.52 7.76 24.4 23.04 24.4 12.64 0 21.28-10.4 21.28-20.4 0-10-5.12-17.52-14.88-17.52zm38.08 19.04c0 .08-.16.16-.4.08l-.24-.24a61.68 61.68 0 0 0 2.64-17.12c0-9.76-4-15.68-9.04-15.68-3.12 0-5.36 2.16-5.36 5.52 0 6 7.36 6.4 7.36 19.52 0 5.28-1.12 10.4-2.88 15.92-8.24 27.68-34.32 40.56-59.84 40.56-11.68 0-20.08-2.4-22.56-3.52a.48.48 0 0 1-.08-.48c.08-.16.24-.24.32-.16a56.16 56.16 0 0 0 17.04 2.64c9.76 0 15.52-4 15.52-8.88a5.44 5.44 0 0 0-5.44-5.52h-.08c-6 0-6.48 7.52-19.28 7.52-5.52 0-10.4-1.12-16.16-2.88C21.92 131.68 8.8 105.68 8.8 80a71.92 71.92 0 0 1 3.6-22.56.32.32 0 0 1 .4-.08.4.4 0 0 1 .24.32 55.76 55.76 0 0 0-2.64 17.04c0 9.68 3.92 15.44 9.04 15.44a5.12 5.12 0 0 0 5.28-5.12v-.16c0-6-7.28-6.64-7.28-19.52 0-5.52 1.12-10.4 2.88-16.16 8.4-27.52 34.32-40.4 59.76-40.56 11.84-.08 22.24 3.44 22.64 3.76a.32.32 0 0 1 0 .4q-.08.24-.24.24c-.16-.08-6.88-2.88-17.04-2.88s-15.52 4-15.52 9.12a5.28 5.28 0 0 0 5.28 5.28h.24c6 0 6.48-7.28 19.28-7.28 5.52 0 10.4 1.12 16.16 2.88 27.68 8.4 40.32 34.56 40.56 59.84a69.04 69.04 0 0 1-3.6 22.8zM80.08 3.76a76.24 76.24 0 1 0 76.16 76.32A76.16 76.16 0 0 0 80.08 3.76zm0 156.24A80 80 0 1 1 160 80a80 80 0 0 1-79.92 80z" style="fill:#005eb8;stroke-width:.8;fill-opacity:1"/></svg>