<?xml version="1.0" encoding="UTF-8"?><svg id="Layer_2" xmlns="http://www.w3.org/2000/svg" viewBox="0 0 688 160"><defs><style>.cls-1{fill:#175788;fill-rule:evenodd;}</style></defs><g id="Layer_1-2"><path class="cls-1" d="m61.6,158.7h13.18v-76.62h-20.08l-13.92,39.94c-1.09,3.27-3.17,10.54-3.17,10.54h-.28s-2.16-7.31-3.24-10.53l-13.94-39.96H0v76.62h12.17v-62.87h.3s2.98,9.83,2.99,9.83l15.39,44.95h11.99l15.99-46.99c.23-.61,2.47-7.89,2.47-7.89h.29v62.97Zm59.6.1h12.73v-53.28h-13.22v29.05c0,10.21-3.87,15.73-11.82,15.73-3.28,0-5.76-1.01-7.25-3.31-1.59-2.2-1.79-5.81-1.79-9.61v-31.85h-13.11v36.26c0,12.51,5.96,18.23,17.78,18.23,8.54,0,13.91-4.71,16.49-10.02h.2v8.82Zm59.9-.1h13.22v-35.76c0-12.91-5.76-18.73-17.59-18.73-8.74,0-14.41,4.71-17.09,10.12h-.2v-8.91h-12.62v53.28h13.11v-31.35c0-8.11,4.07-13.42,12.12-13.42,3.18,0,5.76,1,7.35,3.2,1.59,2.31,1.69,5.81,1.69,9.62v31.95Zm24.96,0h13.21v-53.28h-13.21v53.28Zm-.1-63.79h13.41v-12.82h-13.41v12.82Zm36.72,36.96c0-10.43,3.47-18.84,12.12-18.84,6.65,0,9.74,4.61,10.23,10.11h12.92c-.59-13.01-10.34-19.03-23.14-19.03-15.9,0-25.63,11.23-25.63,28.04s9.14,27.85,25.43,27.85c13.01,0,22.86-6.81,23.65-20.03h-12.71c-.2,4.71-2.69,10.82-10.84,10.82-9.54,0-12.02-8.82-12.02-18.93h0Zm78.12,26.83h13.21v-35.76c0-12.91-5.76-18.73-17.59-18.73-8.64,0-14.2,4.81-16.59,9.82h-.2v-31.94h-13.11v76.61h13.11v-31.35c0-8.11,4.07-13.42,12.12-13.42,3.18,0,5.76,1,7.36,3.2,1.59,2.31,1.69,5.81,1.69,9.62v31.95Zm115.11-76.61h49.48v10.95h-35.86v21.88h33.58v10.95h-33.58v21.89h36.66v10.95h-50.28v-76.61Zm-52.78,34.85v-25.14h14.01c3.53,0,7,.76,9.6,2.67,2.58,1.92,4.3,4.99,4.3,9.64s-1.58,8.07-4.16,10.06c-2.57,1.99-6.13,2.77-10.04,2.77h-13.72Zm28.5,41.76h15.02l-8.44-16.73-8.45-16.73c3.52-1.13,7.36-3.12,10.3-6.47,2.95-3.33,5-8.04,5-14.66,0-4.85-1.21-8.75-3.28-11.85-2.05-3.1-4.96-5.41-8.34-7.07-2.29-1.1-4.74-1.86-7.27-2.37-2.53-.51-5.15-.73-7.73-.73h-28.91v76.62h13.61v-30.65h13.72l7.39,15.33,7.39,15.31Zm276.37-60.2v10.95h-127.58l-10.85-10.95h138.43ZM609.28,0l-10.85,10.94h89.57V0h-78.72Zm-32.56,32.83l-10.86,10.94h122.14v-10.94h-111.28Zm-32.58,32.83l-10.86,10.94h154.72v-10.94h-143.86Zm38,65.68l10.86,10.95h95v-10.95h-105.86Zm54.29-103.98h-105.87v-10.95h95.02l10.85,10.95Zm-105.87,54.73v10.95h143.87l10.86-10.95h-154.73Zm0,32.83v10.95h111.3l10.86-10.95h-122.16Zm0,32.83v10.95h78.72l10.86-10.95h-89.58Zm127.59-98.5h-127.59v10.95h138.44l-10.85-10.95Z"/></g></svg>