<svg xmlns="http://www.w3.org/2000/svg" viewBox="0 0 600 83.94"><defs><style>.cls-1{fill:#404040;}.cls-2{fill:#fa6400;}</style></defs><g id="Layer_2" data-name="Layer 2"><g id="Layer_1-2" data-name="Layer 1"><path class="cls-1" d="M600,52.34c0-4.52-2.66-6.86-6.78-8.46-3.24-1.26-6.08-2.33-8.25-3.15s-4-2.26-4-3.8c0-2.12,2.72-3.35,6.32-3.35,4.24,0,7.58.58,10.81.86h.09a.82.82,0,0,0,.83-.81V30.11a1,1,0,0,0-.88-.89A49,49,0,0,0,587.59,28c-9.07,0-13.39,3.76-13.39,9A8.43,8.43,0,0,0,580,45.16c4.26,1.69,13,3.65,13,7.18,0,2.73-1.32,4.22-5.66,4.22a90.89,90.89,0,0,1-11-.85h-.09a.93.93,0,0,0-.93.9V60a1,1,0,0,0,.93.94,54.84,54.84,0,0,0,11,1.24c9.76,0,12.83-5.09,12.83-9.84Zm-314.16,0c0-4.52-2.66-6.86-6.77-8.46-3.25-1.26-6.09-2.33-8.26-3.15s-4-2.26-4-3.8c0-2.12,2.71-3.35,6.31-3.35a108.19,108.19,0,0,1,10.81.86h.1a.82.82,0,0,0,.82-.81V30.11a1,1,0,0,0-.87-.89A49.17,49.17,0,0,0,273.43,28c-9.07,0-13.39,3.76-13.39,9a8.43,8.43,0,0,0,5.75,8.23c4.26,1.69,13,3.65,13,7.18,0,2.73-1.32,4.22-5.66,4.22a90.89,90.89,0,0,1-11-.85H262a.93.93,0,0,0-.93.9V60a1,1,0,0,0,.93.94,54.84,54.84,0,0,0,11,1.24c9.76,0,12.83-5.09,12.83-9.84Zm72.38,7.57V29.25a.88.88,0,0,0-.93-.89h-4.2a.88.88,0,0,0-.93.89V52.48c0,.27-.13.42-.23.42s-.3-.15-.39-.38L337.78,29.87c-.59-1.23-1.12-1.51-2.14-1.51h-5.28a1.91,1.91,0,0,0-1.94,1.88V60.86a1,1,0,0,0,1,.94h4.13a.92.92,0,0,0,.93-.94V38.71c0-.28.11-.38.25-.38s.3.11.43.38l13.23,21.4c.77,1.69,1.8,1.69,3,1.69h4.93a1.92,1.92,0,0,0,2-1.89ZM253.67,61.09V30.24a1.91,1.91,0,0,0-1.95-1.88h-4a2,2,0,0,0-1.8,1.12l-9.36,18.4c-.24.42-.34.65-.53.65s-.31-.23-.55-.65l-9.35-18.39a2.06,2.06,0,0,0-1.8-1.13h-4a1.92,1.92,0,0,0-1.95,1.88V61.09c0,.47.39.71.84.71h4.92a.9.9,0,0,0,.78-.94V40.5c0-.33.05-.46.15-.46s.14.13.24.28l7.93,16.82a1.75,1.75,0,0,0,1.55.81h2.54a1.76,1.76,0,0,0,1.55-.81l7.87-16.82c.11-.15.2-.28.24-.28s.15.13.15.46V60.86a.91.91,0,0,0,.78.94h4.93a.74.74,0,0,0,.83-.71Zm61.41-18.42c0-6.21-3.88-9-8.66-9s-8.67,2.78-8.67,9v4.82c0,6.21,3.89,9,8.67,9s8.66-2.77,8.66-9Zm6.84,0v4.82c0,10.35-7.45,14.68-15.5,14.68s-15.49-4.33-15.49-14.69V42.67c0-10.35,7.44-14.68,15.49-14.68S321.92,32.31,321.92,42.67Zm-116.35,0c0-6.21-3.89-9-8.67-9s-8.67,2.78-8.67,9v4.82c0,6.21,3.89,9,8.67,9s8.67-2.77,8.67-9Zm6.83,0v4.82c0,10.35-7.45,14.68-15.5,14.68s-15.49-4.33-15.49-14.69V42.67c0-10.35,7.45-14.68,15.49-14.68S212.4,32.31,212.4,42.67ZM174.76,60.85V29.25a.92.92,0,0,0-1-.89H169a.92.92,0,0,0-1,.89V41.48H152.54V29.25a.92.92,0,0,0-1-.89h-4.83a.92.92,0,0,0-1,.89V60.86a1,1,0,0,0,1,.94h4.83a1,1,0,0,0,1-.94V47.22H168V60.86a1,1,0,0,0,1,.94h4.82a1,1,0,0,0,1-.94Zm329.69-27h-9.73V60.86a1,1,0,0,1-1,.94h-4.82a1,1,0,0,1-1-.94v-27h-9.74a.88.88,0,0,1-1-.83V29.25a.92.92,0,0,1,1-.89h26.24a.92.92,0,0,1,1,.89V33a.88.88,0,0,1-1,.84Zm-365.32,0h-9.72V60.86a1,1,0,0,1-1,.94h-4.81a1,1,0,0,1-1-.94v-27h-9.74a.88.88,0,0,1-1-.83V29.25a.92.92,0,0,1,1-.89h26.24a.92.92,0,0,1,1,.89V33a.88.88,0,0,1-1,.84Zm333.79,15V29.25a.92.92,0,0,0-1-.89h-4.83a.91.91,0,0,0-1,.89v19.6c0,5.36-2.57,7.91-7.84,7.91s-7.83-2.55-7.83-7.91V29.25a.91.91,0,0,0-1-.89h-4.82a.92.92,0,0,0-1,.89v19.6c0,10,6.76,13.32,14.6,13.32s14.61-3.29,14.61-13.32Zm43.72-1.63h15.61a1,1,0,0,0,1-.94v-3.4a1,1,0,0,0-1-.93H516.64V37.63c0-3.94.16-4.05,3.84-4.05h12.35a1,1,0,0,0,1-.94v-3c0-.67-.25-.9-1-1A68.54,68.54,0,0,0,522.29,28c-8.09,0-12.39-.05-12.39,9.65V52.52c0,9.7,4.3,9.65,12.39,9.65a67.19,67.19,0,0,0,10.54-.66c.73-.09,1-.33,1-1v-3a1,1,0,0,0-1-.94H520.48c-3.68,0-3.84-.1-3.84-4Zm-96.35,0H435.9a1,1,0,0,0,1-.94v-3.4a1,1,0,0,0-1-.93H420.29V37.63c0-3.94.16-4.05,3.85-4.05h12.34a1,1,0,0,0,1-.94v-3c0-.67-.25-.9-1-1A68.54,68.54,0,0,0,425.94,28c-8.09,0-12.38-.05-12.38,9.65V52.52c0,9.7,4.29,9.65,12.39,9.65a67.13,67.13,0,0,0,10.53-.66c.73-.09,1-.33,1-1v-3a1,1,0,0,0-1-.94H424.14c-3.69,0-3.85-.1-3.85-4Zm142-8.6c0-3.53-2.84-5-7.71-5-1,0-5.47.1-6.34.19V44c.77.05,5.5.14,6.34.14,5,0,7.71-.93,7.71-5.07Zm7.9,22.62a.53.53,0,0,1-.58.56h-6c-.53,0-.73-.48-1-.94l-7-11.42h-1.08c-1.28,0-5.22-.13-6.34-.19V60.86a.93.93,0,0,1-.91.94h-4.9a1,1,0,0,1-1-.94V30c0-.94.58-1.27,1.56-1.41A105,105,0,0,1,554.59,28c7.5,0,14.44,2.59,14.44,10.64v.43c0,5-2.58,7.71-6.58,9.2l7.65,12.6a.6.6,0,0,1,.1.38ZM400.44,38.62c0-3.53-2.84-5-7.71-5-1,0-5.47.1-6.34.19V44c.78.05,5.5.14,6.34.14,5,0,7.71-.93,7.71-5.07Zm7.9,22.62a.53.53,0,0,1-.58.56h-6c-.53,0-.73-.48-1-.94l-7-11.42h-1.08c-1.28,0-5.21-.13-6.34-.19V60.86a.92.92,0,0,1-.9.94h-4.9a1,1,0,0,1-1-.94V30c0-.94.57-1.27,1.55-1.41A105,105,0,0,1,392.73,28c7.51,0,14.44,2.59,14.44,10.64v.43c0,5-2.58,7.71-6.58,9.2l7.65,12.6a.6.6,0,0,1,.1.38Z"/><path class="cls-2" d="M86.38,50.76A4.21,4.21,0,1,0,90.65,55,4.24,4.24,0,0,0,86.38,50.76ZM81,61.67a3.57,3.57,0,1,0,3.63,3.57A3.6,3.6,0,0,0,81,61.67Zm-8,8.55a3.12,3.12,0,0,0-3.14,3.09h0A3.12,3.12,0,0,0,72.9,76.4h0A3.12,3.12,0,0,0,76,73.32h0a3.12,3.12,0,0,0-3.14-3.09Zm-9,5.76a2.53,2.53,0,0,0-2.55,2.5h0A2.55,2.55,0,1,0,63.86,76ZM55,79a2.15,2.15,0,1,0,2.19,2.14A2.16,2.16,0,0,0,55,79h0Zm-8.33,1.21a1.86,1.86,0,0,0-1.88,1.84h0a1.87,1.87,0,0,0,1.88,1.86h0a1.87,1.87,0,0,0,1.88-1.85h0A1.86,1.86,0,0,0,46.64,80.24ZM38.3,79a2.16,2.16,0,0,0-2.18,2.14h0A2.19,2.19,0,1,0,38.31,79Zm-8.89-3A2.5,2.5,0,1,0,32,78.47,2.51,2.51,0,0,0,29.41,76Zm-9-5.75a3.09,3.09,0,1,0,3.13,3.09h0A3.12,3.12,0,0,0,20.37,70.23Zm-8-8.55A3.57,3.57,0,1,0,16,65.25,3.6,3.6,0,0,0,12.32,61.68ZM6.9,50.75a4.2,4.2,0,1,0,0,8.4,4.2,4.2,0,1,0,0-8.4Zm-2-13.64a4.87,4.87,0,1,0,0,9.73,4.87,4.87,0,1,0,0-9.73Zm2-12.31A4.2,4.2,0,1,0,11.16,29,4.23,4.23,0,0,0,6.9,24.8Zm5.42-9.67A3.57,3.57,0,1,0,16,18.7,3.6,3.6,0,0,0,12.32,15.13Zm8.05-7.58a3.08,3.08,0,1,0,3.14,3.08h0A3.11,3.11,0,0,0,20.37,7.55ZM29.42,3A2.5,2.5,0,1,0,32,5.47,2.52,2.52,0,0,0,29.42,3ZM38.3.62a2.17,2.17,0,0,0-2.19,2.15,2.19,2.19,0,0,0,4.38,0A2.17,2.17,0,0,0,38.3.62ZM46.63,0a1.87,1.87,0,0,0-1.88,1.85,1.88,1.88,0,0,0,3.75,0A1.86,1.86,0,0,0,46.63,0ZM55,.62a2.17,2.17,0,0,0-2.19,2.15h0a2.19,2.19,0,0,0,4.37,0A2.17,2.17,0,0,0,55,.62ZM63.86,3a2.5,2.5,0,1,0,2.53,2.5A2.52,2.52,0,0,0,63.86,3Zm9,4.58a3.12,3.12,0,0,0-3.13,3.09h0a3.13,3.13,0,1,0,3.13-3.08Zm8,7.58a3.58,3.58,0,1,0,3.64,3.58,3.61,3.61,0,0,0-3.64-3.58Zm5.43,9.65A4.2,4.2,0,1,0,90.64,29,4.23,4.23,0,0,0,86.37,24.78ZM66.79,48.39a1.89,1.89,0,1,0,1.92,1.89,1.91,1.91,0,0,0-1.92-1.89Zm-4.78,7a1.9,1.9,0,0,0-1.92,1.89h0A1.92,1.92,0,1,0,62,55.39Zm-7.1,4.49a2.05,2.05,0,1,0,2.08,2A2.07,2.07,0,0,0,54.91,59.88Zm-8.4,1.22a2.78,2.78,0,0,0-2.8,2.76h0a2.81,2.81,0,1,0,2.81-2.76Zm-8.37-1.64a3.13,3.13,0,1,0,3.18,3.13A3.15,3.15,0,0,0,38.14,59.46Zm-7.6-5.28a3.48,3.48,0,1,0,3.53,3.48A3.5,3.5,0,0,0,30.54,54.18Zm-5-7.06a3,3,0,0,0-3,2.91h0a3,3,0,1,0,3-2.92Zm-1.18-7.76a2.27,2.27,0,0,0-2.29,2.26h0a2.29,2.29,0,1,0,2.29-2.26Zm2-7.58a1.91,1.91,0,0,0-1.93,1.9h0a1.93,1.93,0,0,0,3.85,0h0a1.91,1.91,0,0,0-1.92-1.89Zm4.79-6.92a1.89,1.89,0,1,0,1.91,1.89,1.91,1.91,0,0,0-1.91-1.89ZM38.25,20a2.05,2.05,0,1,0,2.09,2,2.07,2.07,0,0,0-2.09-2Zm8.4-2.65a2.76,2.76,0,0,0-2.78,2.74h0a2.78,2.78,0,0,0,5.56,0h0A2.76,2.76,0,0,0,46.65,17.36Zm8.39.91a3.12,3.12,0,1,0,3.17,3.12A3.15,3.15,0,0,0,55,18.27Zm7.57,4.58a3.48,3.48,0,1,0,3.53,3.48A3.51,3.51,0,0,0,62.61,22.85Zm5,8.17a2.94,2.94,0,0,0-3,2.91h0a3,3,0,1,0,3-2.92Zm-7.7,12.79a1.74,1.74,0,1,0,1.76,1.74,1.76,1.76,0,0,0-1.76-1.74ZM56.48,49.2a2.6,2.6,0,0,0-2.63,2.59h0a2.63,2.63,0,1,0,2.63-2.59Zm-6.77,3.52a2.71,2.71,0,1,0,2.76,2.71A2.73,2.73,0,0,0,49.71,52.72Zm-7.92-.2a2.43,2.43,0,0,0-2.44,2.41h0a2.45,2.45,0,1,0,2.44-2.41Zm-5.88-3.93a1.78,1.78,0,0,0-1.79,1.77h0a1.79,1.79,0,0,0,3.58,0h0a1.78,1.78,0,0,0-1.79-1.77ZM33.57,43.5a1.3,1.3,0,0,0-1.3,1.29h0a1.31,1.31,0,0,0,2.61,0h0a1.3,1.3,0,0,0-1.3-1.29Zm-.13-6.63a1.75,1.75,0,0,0-1.77,1.74h0a1.77,1.77,0,1,0,1.77-1.74Zm3.44-7.09a2.58,2.58,0,1,0,2.63,2.58A2.6,2.6,0,0,0,36.88,29.78ZM43.61,26a2.72,2.72,0,1,0,2.76,2.72A2.74,2.74,0,0,0,43.61,26Zm7.94.87a2.42,2.42,0,0,0-2.45,2.4h0a2.45,2.45,0,0,0,4.9,0h0a2.43,2.43,0,0,0-2.45-2.41ZM57.4,32a1.77,1.77,0,1,0,1.79,1.77A1.78,1.78,0,0,0,57.4,32Zm2.47,6.1a1.3,1.3,0,0,0-1.31,1.28h0a1.31,1.31,0,1,0,1.31-1.29h0Zm8.9,2a2.27,2.27,0,1,0,2.3,2.26A2.28,2.28,0,0,0,68.77,40.11Zm9.5,2.74a2.4,2.4,0,0,0-2.42,2.39h0a2.43,2.43,0,1,0,2.42-2.39Zm-2.4,8.43a2.28,2.28,0,0,0-2.3,2.26h0a2.3,2.3,0,1,0,2.3-2.26h0Zm-4.14,7.08a1.92,1.92,0,0,0-1.94,1.91h0a1.94,1.94,0,0,0,3.88,0h0a1.92,1.92,0,0,0-1.94-1.91Zm-5,5.26a1.65,1.65,0,1,0,1.68,1.65h0a1.66,1.66,0,0,0-1.68-1.65Zm-5.24,3.83a1.43,1.43,0,0,0-1.44,1.41h0a1.44,1.44,0,0,0,2.87,0h0a1.42,1.42,0,0,0-1.43-1.42Zm-5.94,2.17a1.66,1.66,0,0,0-1.67,1.65h0a1.67,1.67,0,0,0,3.34,0h0A1.65,1.65,0,0,0,55.59,69.62Zm-7,1.12a1.91,1.91,0,0,0-1.93,1.9h0a1.94,1.94,0,0,0,3.87,0h0a1.91,1.91,0,0,0-1.93-1.9Zm-8-.78a2.49,2.49,0,0,0-2.51,2.48h0A2.51,2.51,0,1,0,40.65,70Zm-8.39-3a2.92,2.92,0,1,0,3,2.92,2.94,2.94,0,0,0-3-2.92h0Zm-7.43-5.49a3.43,3.43,0,1,0,3.49,3.43,3.46,3.46,0,0,0-3.49-3.43Zm-6.16-8.27A3.72,3.72,0,1,0,22.45,57,3.74,3.74,0,0,0,18.67,53.24Zm-3.5-8.61a2.93,2.93,0,0,0-3,2.92h0a3,3,0,1,0,3-2.92ZM15,36.3a2.4,2.4,0,1,0,2.44,2.4h0A2.42,2.42,0,0,0,15,36.3Zm2.4-8.17a2.29,2.29,0,0,0-2.3,2.26h0a2.3,2.3,0,1,0,2.3-2.27Zm4.14-6.35a1.91,1.91,0,0,0-1.93,1.9h0a1.94,1.94,0,0,0,3.87,0h0a1.91,1.91,0,0,0-1.93-1.9Zm5-4.74a1.65,1.65,0,0,0-1.67,1.64h0a1.67,1.67,0,0,0,3.34,0h0A1.66,1.66,0,0,0,26.5,17Zm5.24-3.39a1.42,1.42,0,1,0,1.44,1.42A1.44,1.44,0,0,0,31.74,13.65Zm5.94-2.6A1.65,1.65,0,0,0,36,12.69h0a1.67,1.67,0,1,0,1.67-1.64Zm7-1.65a1.91,1.91,0,1,0,1.94,1.9,1.92,1.92,0,0,0-1.94-1.9h0Zm8-.35a2.48,2.48,0,1,0,2.51,2.47A2.5,2.5,0,0,0,52.62,9.05ZM60.77,11a2.93,2.93,0,1,0,3,2.92h0A2.93,2.93,0,0,0,60.77,11Zm7.7,4.59A3.44,3.44,0,1,0,72,19,3.46,3.46,0,0,0,68.47,15.54Zm6.12,7.74A3.72,3.72,0,1,0,78.36,27,3.74,3.74,0,0,0,74.59,23.28Zm3.5,10.19a2.92,2.92,0,1,0,3,2.92,2.95,2.95,0,0,0-3-2.92ZM93.26,42a4.94,4.94,0,1,1-4.94-4.87A4.9,4.9,0,0,1,93.26,42Z"/></g></g></svg>