<?xml version="1.0" encoding="UTF-8"?><svg id="Layer_2" xmlns="http://www.w3.org/2000/svg" viewBox="0 0 706.46 160"><defs><style>.cls-1{fill:#183558;}.cls-1,.cls-2,.cls-3,.cls-4{stroke-width:0px;}.cls-2{fill:#fff;}.cls-3{fill:#00acd8;}.cls-4{fill:#fbb649;}</style></defs><g id="Layer_1-2"><path class="cls-1" d="M442.58,92.8l-18.22-46.03h-15.75l.98,2.22,26.83,65.23h11.82l27.82-67.45h-15.26l-18.22,46.03M606.52,87.88l-31.75-41.11h-12.8v66.95h14.28v-42.83l32.74,42.34h11.57V46.52h-14.28v41.35h.25ZM506.34,46.28l-29.54,67.45h14.77l12.31-28.31h0l8.62-20.43h0v-.25l7.88,18.95-5.42,12.31h10.58l3.69,8.86,3.45,8.62h15.26l-29.29-66.95h-12.31v-.25ZM677.17,46.28h-12.55l-29.54,67.45h14.77l12.31-28.31h0l8.62-19.94h0l.25-.49,7.88,18.95-5.42,12.55h10.58l3.69,8.86,3.45,8.62h15.26l-29.29-67.69Z"/><path class="cls-1" d="M243.94,98.95c-2.71,2.71-5.91,5.17-9.35,7.14-3.69,1.97-7.88,2.95-12.31,2.71-3.69,0-7.38-.74-10.83-2.46-3.2-1.48-6.15-3.45-8.37-5.91-2.46-2.71-4.43-5.91-5.66-9.35-1.48-3.45-1.97-7.38-1.97-11.08h0c0-3.69.74-7.63,1.97-11.08s3.2-6.65,5.66-9.35c2.46-2.46,5.17-4.68,8.37-6.15,3.45-1.48,6.89-2.22,10.58-2.22,2.22,0,4.68.25,6.89.74,1.97.49,3.94,1.23,5.66,1.97,1.72.74,3.2,1.72,4.68,2.95,1.48.98,2.71,2.22,4.18,3.45l1.23.98,4.43-4.68-1.23-.98c-1.72-1.48-3.2-2.95-4.92-4.18s-3.69-2.46-5.66-3.45c-2.22-.98-4.43-1.72-6.89-2.22-2.71-.49-5.42-.74-8.37-.74-4.68,0-9.11.98-13.29,2.71-3.94,1.72-7.38,4.43-10.34,7.63-2.95,3.2-5.17,6.89-6.89,11.08-1.72,4.18-2.46,8.62-2.46,13.29h0c0,4.68.74,9.11,2.46,13.29,1.48,4.18,3.69,7.88,6.89,11.08,2.95,3.2,6.4,5.66,10.34,7.38,4.18,1.72,8.62,2.71,13.05,2.71,2.71,0,5.42-.25,8.12-.98,2.46-.49,4.68-1.48,7.14-2.46,2.22-.98,4.18-2.22,5.91-3.69,1.72-1.48,3.45-2.95,4.92-4.68l1.23-1.23-4.68-4.18-.49,1.97M293.17,46.28l-31.75,67.2h6.4l27.82-58.58,15.51,32.98-3.94,8.37h7.88l8.12,17.23h6.4l-31.51-67.2h-4.92M378.09,85.42c1.97-.25,3.94-.74,5.66-1.48,2.46-.98,4.92-2.22,6.89-3.94,1.97-1.72,3.45-3.69,4.68-5.91.98-2.46,1.72-5.17,1.72-7.88h0c0-2.46-.49-4.92-1.23-7.14-.98-2.22-2.22-4.18-3.69-5.66-2.46-2.22-5.17-3.94-8.37-5.17-3.69-1.23-7.38-1.72-11.32-1.72h-27.82v66.95h6.15v-27.32h20.18l20.68,27.32h7.88l-21.42-28.06M350.52,80.25v-27.57h21.42c4.92-.25,9.85.98,13.78,3.69,3.2,2.46,4.92,6.15,4.68,10.09h0c0,1.97-.49,3.69-1.23,5.66-.74,1.72-1.97,3.2-3.69,4.43s-3.69,2.22-5.91,2.95c-2.71.74-5.42,1.23-8.37,1.23l-20.68-.49"/><path class="cls-3" d="M160,80c0,44.06-35.94,80-80,80S0,124.06,0,80,35.94,0,80,0s80,35.69,80,80h0Z"/><path class="cls-4" d="M80.49,40.86c-4.43,0-8.86.25-13.29.98-1.97.25-4.18.74-5.91,1.72h.25c1.23.49,2.71.98,4.18,1.23,4.92.74,9.85,1.23,14.77,1.23,4.43,0,8.86-.25,13.29-.98,1.97-.25,3.94-.74,5.91-1.48h-.49c-1.23-.49-2.71-.98-4.18-1.23-4.68-1.23-9.6-1.48-14.52-1.48M80.49,48.98c-4.68,0-9.35-.25-13.78-.98-2.95-.25-5.66-1.23-8.12-2.71-.49-.49-.74-1.23-.98-1.97,0-.74.49-1.48.98-1.97s.98-.74,1.72-1.23c1.48-.74,3.2-.98,4.92-1.48,5.17-.98,10.09-1.23,15.26-1.23,4.68,0,9.35.25,13.78.98,2.95.25,5.66,1.23,8.12,2.95.49.49.98,1.23.98,1.97s-.49,1.48-.98,1.97c-.49.49-.98.74-1.72.98-1.48.74-3.2,1.23-4.92,1.48-5.17.98-10.34,1.48-15.26,1.23"/><path class="cls-2" d="M115.2,81.48c-1.72-2.22-3.2-4.43-4.68-6.89h.49s8.62-.49,7.14-3.45c0,0-1.72-3.45-7.88-3.45h-.98c-.25,0-.74,0-.74,2.22-1.97-4.68-4.92-8.62-8.86-11.57-.98-.49-1.97-.74-2.95-.98-1.72-.25-15.51-.49-16.49-.49h0c-1.23,0-14.77,0-16.49.49-.98.25-1.97.49-2.95.98-4.18,3.2-7.14,7.14-9.11,11.57,0-2.22-.49-2.22-.98-2.22h-.74c-6.4,0-7.88,3.45-7.88,3.45-1.48,2.95,7.14,3.45,7.14,3.45h.49c-1.48,2.46-2.95,4.68-4.68,6.89-.98.98-1.72,2.22-2.46,3.45-.49,1.23-.74,2.71-.74,4.18,0,2.22.25,12.06.25,12.06v12.31c0,.74.25,1.23.98,1.23h9.85c.74,0,1.23-.49.98-1.23h0v-1.48h52.18v1.48c0,.74.49,1.23.98,1.23h9.85c.74,0,1.23-.49.98-1.23h0v-12.31s.25-9.85.25-12.06c0-1.48-.25-2.71-.74-4.18-.49-.98-1.23-2.22-2.22-3.45ZM55.38,72.12c1.72-4.18,3.94-8.12,6.65-12.06,0,0,5.66-.25,13.05-.25v1.72c0,.49.49.98.98.98h8.62c.49,0,.98-.25.98-.74h0v-1.23l-.25-.49c7.38,0,13.05.25,13.05.25,2.71,3.69,4.92,7.88,6.89,12.06.49,1.48-.74,1.48-.74,1.48h-48.74c0-.49-1.23-.49-.49-1.72ZM46.28,92.31c-1.97-.49-1.97-1.72-1.97-1.72-.25-1.72,0-3.45.49-4.92.49-1.23,1.97-1.97,3.45-1.72,1.97.74,3.94,1.48,5.66,2.71,3.2,1.72,3.69,7.38,3.69,7.38-3.94-.25-7.63-.98-11.32-1.72ZM99.2,94.28c-5.66.49-14.03.49-19.2.49s-13.29,0-19.2-.49c0,0-1.72-3.45.98-3.69.25,0,7.88-.25,18.46-.25s17.97.25,18.22.25c2.22.49.74,3.94.74,3.69h0ZM115.94,90.83s-.25,1.23-1.97,1.72c-3.69.74-7.38,1.23-11.32,1.72,0,0,.49-5.66,3.69-7.38,1.72-1.23,3.69-1.97,5.66-2.71,1.48-.25,2.95.49,3.45,1.72.49,1.48.74,3.2.49,4.92h0Z"/></g></svg>