<svg width="540" height="160" viewBox="0 0 540 160" fill="none" xmlns="http://www.w3.org/2000/svg">
<path d="M443.871 56.3772L465.473 80.1846L486.27 56.3772H530.679L487.279 105.182L531.274 154.385H485.073L463.674 130.389L442.471 154.385H397.859L441.47 105.385L397.859 56.3772H443.871Z" fill="#FF5900"/>
<path d="M397.861 56.3776V89.4918H348.469V119.878H397.861V154.385H312.17V0H397.861V34.4127H348.469V56.3776H397.861Z" fill="#FF5900"/>
<path d="M276.025 0V63.1818H275.626C267.617 53.9838 257.621 50.7848 246.022 50.7848C222.258 50.7848 204.356 66.9466 198.074 88.3021C190.9 64.7704 172.417 50.3423 145.011 50.3423C122.756 50.3423 105.18 60.331 96.0109 76.6088V56.3776H50.0065V34.4127H100.211V0H9V154.385H50.0065V89.4918H90.8824C89.6637 94.2576 89.0109 99.3644 89.0109 104.754C89.0109 136.954 113.616 159.558 145.011 159.558C171.416 159.558 188.818 147.161 198.016 124.565H162.87C158.119 131.361 154.514 133.371 145.011 133.371C133.993 133.371 124.49 123.759 124.49 112.363H196.05C199.155 137.941 219.081 160 246.421 160C258.216 160 269.017 154.197 275.618 144.404H276.017V154.4H312.164V0H276.025ZM125.636 89.9488C127.914 80.1415 135.523 73.7362 145.018 73.7362C155.471 73.7362 162.689 79.9456 164.59 89.9488C165.388 89.9488 125.636 89.9488 125.636 89.9488ZM254.081 130.883C240.756 130.883 232.472 118.464 232.472 105.501C232.472 91.6462 239.675 78.3207 254.081 78.3207C269.017 78.3207 274.965 91.6462 274.965 105.501C274.965 118.638 268.662 130.883 254.081 130.883Z" fill="#2A007C"/>
</svg>
