<svg width="90" height="77" viewBox="0 0 90 77" fill="none" xmlns="http://www.w3.org/2000/svg">
<path d="M42.7288 8.53974C38.2057 11.1017 34.5488 13.3315 31.7579 15.2292C28.9671 17.032 26.1281 19.4516 23.241 22.488C20.5464 25.2397 18.4773 28.2286 17.0338 31.4547C15.5902 34.5859 14.5798 38.6186 14.0024 43.5527H20.9314C26.898 43.5527 31.5654 45.0234 34.9337 47.9649C38.3982 50.8115 40.1305 55.0339 40.1305 60.6322C40.1305 64.6174 38.5907 68.3654 35.5111 71.8761C32.5278 75.292 28.3896 77 23.0967 77C14.8204 77 8.90184 74.3432 5.3411 69.0296C1.78037 63.6211 0 56.5521 0 47.8225C0 41.655 1.34731 36.0567 4.04192 31.0277C6.73653 25.9039 10.0086 21.3494 13.858 17.3641C17.8037 13.284 21.9899 9.8207 26.4168 6.97412C30.8437 4.12754 34.5488 1.80283 37.5321 0L42.7288 8.53974Z" fill="#F5F4F2"/>
<path d="M90 8.53974C85.4769 11.1017 81.8199 13.3315 79.0291 15.2292C76.2382 17.032 73.3993 19.4516 70.5122 22.488C67.8176 25.2397 65.7485 28.2286 64.305 31.4547C62.8614 34.5859 61.8509 38.6186 61.2735 43.5527H68.2025C74.1692 43.5527 78.8366 45.0234 82.2049 47.9649C85.6694 50.8115 87.4016 55.0339 87.4016 60.6322C87.4016 64.6174 85.8618 68.3654 82.7823 71.8761C79.799 75.292 75.6608 77 70.3678 77C62.0915 77 56.173 74.3432 52.6123 69.0296C49.0515 63.6211 47.2712 56.5521 47.2712 47.8225C47.2712 41.655 48.6185 36.0567 51.3131 31.0277C54.0077 25.9039 57.2797 21.3494 61.1292 17.3641C65.0748 13.284 69.2611 9.8207 73.688 6.97412C78.1148 4.12754 81.8199 1.80283 84.8033 0L90 8.53974Z" fill="#F5F4F2"/>
</svg>
